<svg xmlns="http://www.w3.org/2000/svg" viewBox="0 0 500 500"><g id="freepik--background-complete--inject-40"><rect y="382.4" width="500" height="0.25" style="fill:#ebebeb"></rect><rect x="416.78" y="398.49" width="33.12" height="0.25" style="fill:#ebebeb"></rect><rect x="322.53" y="401.21" width="8.69" height="0.25" style="fill:#ebebeb"></rect><rect x="396.59" y="389.21" width="19.19" height="0.25" style="fill:#ebebeb"></rect><rect x="52.46" y="390.89" width="43.19" height="0.25" style="fill:#ebebeb"></rect><rect x="104.56" y="390.89" width="6.33" height="0.25" style="fill:#ebebeb"></rect><rect x="131.47" y="395.11" width="93.68" height="0.25" style="fill:#ebebeb"></rect><path d="M237,337.8H43.91a5.71,5.71,0,0,1-5.7-5.71V60.66A5.71,5.71,0,0,1,43.91,55H237a5.71,5.71,0,0,1,5.71,5.71V332.09A5.71,5.71,0,0,1,237,337.8ZM43.91,55.2a5.46,5.46,0,0,0-5.45,5.46V332.09a5.46,5.46,0,0,0,5.45,5.46H237a5.47,5.47,0,0,0,5.46-5.46V60.66A5.47,5.47,0,0,0,237,55.2Z" style="fill:#ebebeb"></path><path d="M453.31,337.8H260.21a5.72,5.72,0,0,1-5.71-5.71V60.66A5.72,5.72,0,0,1,260.21,55h193.1A5.71,5.71,0,0,1,459,60.66V332.09A5.71,5.71,0,0,1,453.31,337.8ZM260.21,55.2a5.47,5.47,0,0,0-5.46,5.46V332.09a5.47,5.47,0,0,0,5.46,5.46h193.1a5.47,5.47,0,0,0,5.46-5.46V60.66a5.47,5.47,0,0,0-5.46-5.46Z" style="fill:#ebebeb"></path><rect x="96.95" y="100.24" width="94.67" height="213.27" style="fill:#f5f5f5"></rect><rect x="41.65" y="163.11" width="205.27" height="87.53" transform="translate(351.16 62.59) rotate(90)" style="fill:#fafafa"></rect><rect x="143.28" y="103.21" width="2.01" height="208.3" style="fill:#f5f5f5"></rect><rect x="94.76" y="97.46" width="99.04" height="10.04" style="fill:#f5f5f5"></rect><rect x="94.76" y="108.61" width="99.04" height="1.19" style="fill:#f5f5f5"></rect><rect x="94.76" y="111.31" width="99.04" height="1.19" style="fill:#f5f5f5"></rect><rect x="94.76" y="114.01" width="99.04" height="1.19" style="fill:#f5f5f5"></rect><rect x="94.76" y="116.71" width="99.04" height="1.19" style="fill:#f5f5f5"></rect><rect x="94.76" y="119.41" width="99.04" height="1.19" style="fill:#f5f5f5"></rect><rect x="94.76" y="122.11" width="99.04" height="1.19" style="fill:#f5f5f5"></rect><rect x="94.76" y="124.81" width="99.04" height="1.19" style="fill:#f5f5f5"></rect><rect x="94.76" y="127.51" width="99.04" height="1.19" style="fill:#f5f5f5"></rect><rect x="94.76" y="130.21" width="99.04" height="1.19" style="fill:#f5f5f5"></rect><rect x="94.76" y="132.91" width="99.04" height="1.19" style="fill:#f5f5f5"></rect><rect x="94.76" y="135.61" width="99.04" height="1.19" style="fill:#f5f5f5"></rect><rect x="94.76" y="138.31" width="99.04" height="1.19" style="fill:#f5f5f5"></rect><rect x="94.76" y="141.01" width="99.04" height="1.19" style="fill:#f5f5f5"></rect><rect x="94.76" y="143.71" width="99.04" height="1.19" style="fill:#f5f5f5"></rect><rect x="94.76" y="146.41" width="99.04" height="1.19" style="fill:#f5f5f5"></rect><rect x="94.76" y="149.12" width="99.04" height="1.19" style="fill:#f5f5f5"></rect><rect x="94.76" y="151.82" width="99.04" height="1.19" style="fill:#f5f5f5"></rect><rect x="94.76" y="154.52" width="99.04" height="1.19" style="fill:#f5f5f5"></rect><rect x="209.03" y="100.24" width="94.67" height="213.27" style="fill:#f5f5f5"></rect><rect x="153.73" y="163.11" width="205.27" height="87.53" transform="translate(463.25 -49.49) rotate(90)" style="fill:#fafafa"></rect><rect x="255.36" y="103.21" width="2.01" height="208.3" style="fill:#f5f5f5"></rect><rect x="206.85" y="97.46" width="99.04" height="10.04" style="fill:#f5f5f5"></rect><rect x="206.85" y="108.61" width="99.04" height="1.19" style="fill:#f5f5f5"></rect><rect x="206.85" y="111.31" width="99.04" height="1.19" style="fill:#f5f5f5"></rect><rect x="206.85" y="114.01" width="99.04" height="1.19" style="fill:#f5f5f5"></rect><rect x="206.85" y="116.71" width="99.04" height="1.19" style="fill:#f5f5f5"></rect><rect x="206.85" y="119.41" width="99.04" height="1.19" style="fill:#f5f5f5"></rect><rect x="206.85" y="122.11" width="99.04" height="1.19" style="fill:#f5f5f5"></rect><rect x="206.85" y="124.81" width="99.04" height="1.19" style="fill:#f5f5f5"></rect><rect x="206.85" y="127.51" width="99.04" height="1.19" style="fill:#f5f5f5"></rect><rect x="206.85" y="130.21" width="99.04" height="1.19" style="fill:#f5f5f5"></rect><rect x="206.85" y="132.91" width="99.04" height="1.19" style="fill:#f5f5f5"></rect><rect x="206.85" y="135.61" width="99.04" height="1.19" style="fill:#f5f5f5"></rect><rect x="206.85" y="138.31" width="99.04" height="1.19" style="fill:#f5f5f5"></rect><rect x="206.85" y="141.01" width="99.04" height="1.19" style="fill:#f5f5f5"></rect><rect x="206.85" y="143.71" width="99.04" height="1.19" style="fill:#f5f5f5"></rect><rect x="206.85" y="146.41" width="99.04" height="1.19" style="fill:#f5f5f5"></rect><rect x="206.85" y="149.12" width="99.04" height="1.19" style="fill:#f5f5f5"></rect><rect x="206.85" y="151.82" width="99.04" height="1.19" style="fill:#f5f5f5"></rect><rect x="206.85" y="154.52" width="99.04" height="1.19" style="fill:#f5f5f5"></rect><rect x="321.12" y="100.24" width="94.67" height="213.27" style="fill:#f5f5f5"></rect><rect x="265.82" y="163.11" width="205.27" height="87.53" transform="translate(575.33 -161.58) rotate(90)" style="fill:#fafafa"></rect><rect x="367.45" y="103.21" width="2.01" height="208.3" style="fill:#f5f5f5"></rect><rect x="318.93" y="97.46" width="99.04" height="10.04" style="fill:#f5f5f5"></rect><rect x="318.93" y="108.61" width="99.04" height="1.19" style="fill:#f5f5f5"></rect><rect x="318.93" y="111.31" width="99.04" height="1.19" style="fill:#f5f5f5"></rect><rect x="318.93" y="114.01" width="99.04" height="1.19" style="fill:#f5f5f5"></rect><rect x="318.93" y="116.71" width="99.04" height="1.19" style="fill:#f5f5f5"></rect><rect x="318.93" y="119.41" width="99.04" height="1.19" style="fill:#f5f5f5"></rect><rect x="318.93" y="122.11" width="99.04" height="1.19" style="fill:#f5f5f5"></rect><rect x="318.93" y="124.81" width="99.04" height="1.19" style="fill:#f5f5f5"></rect><rect x="318.93" y="127.51" width="99.04" height="1.19" style="fill:#f5f5f5"></rect><rect x="318.93" y="130.21" width="99.04" height="1.19" style="fill:#f5f5f5"></rect><rect x="318.93" y="132.91" width="99.04" height="1.19" style="fill:#f5f5f5"></rect><rect x="318.93" y="135.61" width="99.04" height="1.19" style="fill:#f5f5f5"></rect><rect x="318.93" y="138.31" width="99.04" height="1.19" style="fill:#f5f5f5"></rect><rect x="318.93" y="141.01" width="99.04" height="1.19" style="fill:#f5f5f5"></rect><rect x="318.93" y="143.71" width="99.04" height="1.19" style="fill:#f5f5f5"></rect><rect x="318.93" y="146.41" width="99.04" height="1.19" style="fill:#f5f5f5"></rect><rect x="318.93" y="149.12" width="99.04" height="1.19" style="fill:#f5f5f5"></rect><rect x="318.93" y="151.82" width="99.04" height="1.19" style="fill:#f5f5f5"></rect><rect x="318.93" y="154.52" width="99.04" height="1.19" style="fill:#f5f5f5"></rect><path d="M411.85,356.07s5.06-11.05-.72-21.94-7.47-13.45-3.78-15.69,5.38,8.72,5.38,8.72a24.58,24.58,0,0,0,.54-15.41c-2.56-7.88-4.17-20.72-.67-22.09s.67,16,3.72,21.94a51.16,51.16,0,0,0,3-12.93c.42-6.33-.24-16.44,2.53-19s4.54-.8,1.82,13.17a146.18,146.18,0,0,0-2.7,25.32s6-18.32,10.05-18.86,4,5.4.57,10.55-10.11,14.36-11.2,19.11c0,0,6.6-13.79,12.53-9.56s-5.17,12.55-10.11,15.56-8.38,21.87-8.38,21.87Z" style="fill:#e0e0e0"></path><path d="M415.85,360.6s-4.93-11.12,1-21.92,7.63-13.35,4-15.63-5.48,8.63-5.48,8.63-3-7.58-.36-15.42,4.43-20.65.94-22.08-.86,16-4,21.88a51.34,51.34,0,0,1-2.82-13c-.34-6.33.44-16.43-2.3-19.06s-4.53-.87-2,13.14a146.84,146.84,0,0,1,2.4,25.36s-5.79-18.41-9.82-19-4.09,5.34-.7,10.54,9.94,14.52,11,19.28c0,0-6.43-13.89-12.41-9.75s5,12.63,9.92,15.71,8.12,22,8.12,22Z" style="fill:#ebebeb"></path><polygon points="393.1 352.68 433.84 352.68 430.54 381.82 396.4 381.82 393.1 352.68" style="fill:#ebebeb"></polygon><path d="M87.76,350.6c-.15-1-3.52-24.29,3.24-32.34a7.36,7.36,0,0,1,5.62-2.77c13.66-.32,15.53,10.66,15.55,10.77l-1.62.25c-.06-.4-1.68-9.68-13.89-9.39a5.7,5.7,0,0,0-4.41,2.19c-6.3,7.49-2.91,30.81-2.88,31.05Z" style="fill:#ebebeb"></path><path d="M86.94,349.54l-1.63-.05c0-.22.54-21.48-9.94-25.87-10.26-4.3-14.88,4.54-15.07,4.92l-1.46-.73c.06-.11,5.47-10.59,17.16-5.69C87.51,326.94,87,348.62,86.94,349.54Z" style="fill:#ebebeb"></path><path d="M87,351.21c0-.34-.1-34-6.65-43.8-6.29-9.44-16.45-5-16.88-4.8l-.67-1.48c.12-.06,11.83-5.23,18.91,5.38,6.82,10.24,6.92,43.29,6.92,44.7Z" style="fill:#ebebeb"></path><path d="M98.58,316.3s-6,2.2-4.19,7.39S115,337.42,115,337.42s7.89-7.24.64-19S98.74,312.59,98.58,316.3Z" style="fill:#e0e0e0"></path><path d="M80,305.64s4.24-.45,3.9-3-16.46-9.22-26,1.52c0,0,6.09,10.46,14.89,10.59S80,305.64,80,305.64Z" style="fill:#e0e0e0"></path><path d="M75.69,322.87s2.92-2.36-.23-3.51-18.63-.82-18.79,14.5c0,0,18,3,20.25-2.84S75.69,322.87,75.69,322.87Z" style="fill:#e0e0e0"></path><polygon points="101.78 381.82 73.81 381.82 70.8 351.21 104.8 351.21 101.78 381.82" style="fill:#ebebeb"></polygon><rect x="69.3" y="347.83" width="36.99" height="6.76" style="fill:#e0e0e0"></rect></g><g id="freepik--Shadow--inject-40"><ellipse id="freepik--path--inject-40" cx="250" cy="416.24" rx="193.89" ry="11.32" style="fill:#f5f5f5"></ellipse></g><g id="freepik--character-3--inject-40"><g id="freepik--group--inject-40"><path d="M318.89,196.72s0,9.58-3,13.3-18.72,11.47-18.72,11.47-9.36,0-10.22,0-3.25,4.27-3.25,4.27l4,4.72s11.61-2.25,10.55-5.62c0,0,15.43-6,19.78-9.05s7.65-16.56,7.65-16.56Z" style="fill:#e4897b"></path><path d="M324,169.41c-4.66-1.69-7.31,30.24-7.31,30.24l12,4.19S333,172.7,324,169.41Z" style="fill:#407BFF"></path><path d="M329.33,197.08c-.3,4-.68,6.76-.68,6.76l-12-4.19s2.64-31.94,7.3-30.24c3.14,1.15,4.66,5.67,5.31,11.08h0A89.33,89.33,0,0,1,329.33,197.08Z" style="fill:#fff;opacity:0.4;isolation:isolate"></path><path d="M329.33,197.08c-5.57-6.55-2-18.13-2-18.13a7.35,7.35,0,0,1,1.93,1.54h0A89.33,89.33,0,0,1,329.33,197.08Z" style="opacity:0.2;isolation:isolate"></path><path d="M375.19,407h10.14a.74.74,0,0,1,.71.57l1.64,7.43a1.23,1.23,0,0,1-.95,1.46l-.27,0c-3.28,0-5.67-.26-9.78-.26-2.54,0-10.19.27-13.69.27s-4-3.46-2.53-3.78c6.43-1.4,11.27-3.34,13.33-5.19A2,2,0,0,1,375.19,407Z" style="fill:#263238"></path><path d="M332.21,406.71h10.13a.72.72,0,0,1,.71.57l1.65,7.43a1.21,1.21,0,0,1-1.22,1.48c-3.28-.05-5.67-.25-9.79-.25-2.53,0-10.18.26-13.69.26s-4-3.46-2.52-3.77c6.43-1.4,11.27-3.35,13.33-5.19A2,2,0,0,1,332.21,406.71Z" style="fill:#263238"></path><path d="M375.19,407h10.14a.74.74,0,0,1,.71.57l1.64,7.43a1.23,1.23,0,0,1-.95,1.46l-.27,0c-3.28,0-5.67-.26-9.78-.26-2.54,0-10.19.27-13.69.27s-4-3.46-2.53-3.78c6.43-1.4,11.27-3.34,13.33-5.19A2,2,0,0,1,375.19,407Z" style="fill:#fff;opacity:0.1"></path><path d="M332.21,406.71h10.13a.72.72,0,0,1,.71.57l1.65,7.43a1.21,1.21,0,0,1-1.22,1.48c-3.28-.05-5.67-.25-9.79-.25-2.53,0-10.18.26-13.69.26s-4-3.46-2.52-3.77c6.43-1.4,11.27-3.35,13.33-5.19A2,2,0,0,1,332.21,406.71Z" style="fill:#fff;opacity:0.1"></path><path d="M380.57,219.09H336.28c-4.21,23-17.39,116.35-7.93,188.84h15S342,297.84,355.19,262.26c1.52,19,17,145.6,17,145.6h15.26s-2.28-47.61-4.57-92.58C381.45,287,380.63,224.91,380.57,219.09Z" style="fill:#407BFF"></path><path d="M380.57,219.09H336.28c-4.21,23-17.39,116.35-7.93,188.84h15S342,297.84,355.19,262.26c1.52,19,17,145.6,17,145.6h15.26s-2.28-47.61-4.57-92.58C381.45,287,380.63,224.91,380.57,219.09Z" style="fill:#fff;opacity:0.2;isolation:isolate"></path><path d="M355.18,262.27a119.06,119.06,0,0,0-4.94,19.15C349,264.48,354,246.51,354,246.51Z" style="opacity:0.2;isolation:isolate"></path><path d="M380.69,220.48l-45.35,1.19c1.26-26-11-42.41-12.56-50.39a2.15,2.15,0,0,1,1.64-2.53c2.25-.49,4.56-.91,6.9-1.27a216.52,216.52,0,0,1,31.84-2.14c4.72,0,3.68.14,3.68.14C374.84,171.76,381.15,206.1,380.69,220.48Z" style="fill:#407BFF"></path><path d="M380.69,220.48l-45.35,1.19c1.26-26-11-42.41-12.56-50.39a2.15,2.15,0,0,1,1.64-2.53c2.25-.49,4.56-.91,6.9-1.27a216.52,216.52,0,0,1,31.84-2.14c4.72,0,3.68.14,3.68.14C374.84,171.76,381.15,206.1,380.69,220.48Z" style="fill:#fff;opacity:0.4;isolation:isolate"></path><path d="M352.83,166.86c-1,5.95-10.37,11.91-10.37,11.91s-4.81-5.31-5.2-9.36a8.24,8.24,0,0,0,1.5-2,3.58,3.58,0,0,0,.45-1.76,7.5,7.5,0,0,0-1.11-3.26,15.49,15.49,0,0,0-1.09-1.68l6.53-8.1,1.5-1.87c.07.56.16,1.18.27,1.83a43.74,43.74,0,0,0,1,4.31C347.45,161.06,349.48,165.36,352.83,166.86Z" style="fill:#e4897b"></path><path d="M346.27,156.89c-.33,4-1.83,9.53-7.51,10.53a3.58,3.58,0,0,0,.45-1.76,7.5,7.5,0,0,0-1.11-3.26,15.49,15.49,0,0,0-1.09-1.68l6.53-8.1c.57,0,1.17,0,1.77,0A43.74,43.74,0,0,0,346.27,156.89Z" style="opacity:0.2;isolation:isolate"></path><path d="M319.85,136.07s-.15,11.3,6.31,14.75,3.62-17.16,3.62-17.16Z" style="fill:#263238"></path><path d="M325.65,157.43a11.7,11.7,0,0,0,.68,1,11,11,0,0,0,3.11,2.81,11.16,11.16,0,0,0,4,1.51,10.43,10.43,0,0,0,7.37-1.42,10.12,10.12,0,0,0,3.63-4.07c2.64-5.13,1.12-9.62-.85-17.41a11,11,0,0,0-17.77-5.9C319.28,139.37,321.83,151.07,325.65,157.43Z" style="fill:#e4897b"></path><path d="M332.64,145.67c.23.6,0,1.23-.39,1.36s-.89-.28-1.1-.9,0-1.23.39-1.36S332.43,145,332.64,145.67Z" style="fill:#263238"></path><path d="M325.59,147.9a1,1,0,0,1-.39,1.36c-.4.13-.89-.28-1.09-.9s0-1.23.38-1.36S325.4,147.31,325.59,147.9Z" style="fill:#263238"></path><path d="M327.92,147.5a23.17,23.17,0,0,1-1.29,6.27,3.75,3.75,0,0,0,3.18-.39Z" style="fill:#de5753"></path><path d="M322,145.71a.41.41,0,0,0,.38-.12,3.1,3.1,0,0,1,2.53-1.14.38.38,0,0,0,.1-.76h0a3.82,3.82,0,0,0-3.21,1.4.37.37,0,0,0,0,.53h0A.35.35,0,0,0,322,145.71Z" style="fill:#263238"></path><path d="M333.14,142.41a.4.4,0,0,0,.18-.14.38.38,0,0,0-.2-.5h0a3.82,3.82,0,0,0-3.51.19.38.38,0,0,0-.1.53h0a.38.38,0,0,0,.53.1h0a3.13,3.13,0,0,1,2.78-.11A.37.37,0,0,0,333.14,142.41Z" style="fill:#263238"></path><path d="M334.94,132.08l.49,3.53a2.64,2.64,0,0,1,2.13,2.87c-.34,3.17,2.47,7.2,5.15,8.4,0,0-.26-1.27.87-1.25s2.56,6.59,1.33,10.23c0,0,2.36-3.62,2.31-10.9-.05-6.74-1.24-12.05-3.18-14.14Z" style="fill:#263238"></path><path d="M348.91,145.07a7.65,7.65,0,0,1-3,5c-2.16,1.57-4.18-.14-4.37-2.67-.15-2.26.77-5.86,3.33-6.41S349.25,142.61,348.91,145.07Z" style="fill:#e4897b"></path><path d="M332,157.13a.24.24,0,0,1-.24-.22.23.23,0,0,1,.22-.27,2.76,2.76,0,0,0,2.44-3,.25.25,0,0,1,.23-.27.26.26,0,0,1,.27.23s.17,3.23-2.89,3.54Z" style="fill:#263238"></path><path d="M345,132.24s-.39-4.71-8.4-6.27-14.64,4.56-20.18,2.85-2.29,10.71,8.16,9.33A82.37,82.37,0,0,0,345,132.24Z" style="fill:#263238"></path><path d="M362.1,176.18s-3.81,17.34-5.17,22.68c-2.73,10.81-15.85,22.07-15.85,22.07s8.18-1.91,16.78-3.37c10.65-1.8,20.63-16.48,14.66-36Z" style="opacity:0.2;isolation:isolate"></path><path d="M361.78,192.79s0,9.58-3,13.3S340,217.56,340,217.56H329.81c-.86,0-3.25,4.27-3.25,4.27l4,4.72s11.61-2.25,10.55-5.62c0,0,15.43-6,19.78-9.05s7.65-16.56,7.65-16.56Z" style="fill:#e4897b"></path><path d="M366.84,165.48c-4.66-1.7-7.3,30.24-7.3,30.24l12,4.19S375.86,168.76,366.84,165.48Z" style="fill:#407BFF"></path><path d="M366.84,165.48c-4.66-1.7-7.3,30.24-7.3,30.24l12,4.19S375.86,168.76,366.84,165.48Z" style="fill:#fff;opacity:0.4;isolation:isolate"></path></g></g><g id="freepik--character-2--inject-40"><path d="M245,416.47c-21.38,0-38.77-21.31-38.77-47.51s17.39-47.5,38.77-47.5,38.76,21.31,38.76,47.5S266.33,416.47,245,416.47Zm0-90c-18.62,0-33.77,19.07-33.77,42.5s15.15,42.51,33.77,42.51S278.72,392.4,278.72,369,263.58,326.46,245,326.46Z" style="fill:#2e353a"></path><path d="M236.24,372.36a15.41,15.41,0,0,1-.34-2.4H216.71a46.9,46.9,0,0,0,1.68,11.67Z" style="fill:none"></path><path d="M237.89,376.38a12.62,12.62,0,0,1-1-2.08L219,383.57a39.61,39.61,0,0,0,5.15,10.4Z" style="fill:none"></path><path d="M244,405.94V380.66a7.34,7.34,0,0,1-1.67-.44l-7.66,23.18A22.49,22.49,0,0,0,244,405.94Z" style="fill:none"></path><path d="M235.9,368a14.12,14.12,0,0,1,.38-2.55l-17.74-9.6A46.48,46.48,0,0,0,216.71,368Z" style="fill:none"></path><path d="M265.77,344,252,361.55a12.62,12.62,0,0,1,1,2.08l17.86-9.27A39.3,39.3,0,0,0,265.77,344Z" style="fill:none"></path><path d="M219.16,353.87l17.75,9.6a13.31,13.31,0,0,1,1-1.92L224.14,344A39.67,39.67,0,0,0,219.16,353.87Z" style="fill:none"></path><path d="M247.49,380.26a7.5,7.5,0,0,1-1.53.4v25.28a22.55,22.55,0,0,0,8.93-2.34Z" style="fill:none"></path><path d="M246,332v25.28a7.26,7.26,0,0,1,1.66.44l7.66-23.18A22.48,22.48,0,0,0,246,332Z" style="fill:none"></path><path d="M242.42,357.67a6.85,6.85,0,0,1,1.54-.4V332a22.37,22.37,0,0,0-8.94,2.33Z" style="fill:none"></path><path d="M239.15,359.91a9.44,9.44,0,0,1,1.47-1.3l-7.39-23.31a29.76,29.76,0,0,0-7.85,7Z" style="fill:none"></path><path d="M270.76,384.06,253,374.45a12.93,12.93,0,0,1-1,1.93L265.77,394A39.7,39.7,0,0,0,270.76,384.06Z" style="fill:none"></path><path d="M240.51,379.23a9.07,9.07,0,0,1-1.36-1.21l-13.77,17.61a29.77,29.77,0,0,0,7.47,6.77Z" style="fill:none"></path><path d="M250.76,378a9.44,9.44,0,0,1-1.47,1.3l7.39,23.3a29.54,29.54,0,0,0,7.85-7Z" style="fill:none"></path><path d="M249.4,358.7a9.07,9.07,0,0,1,1.36,1.21l13.77-17.61a29.77,29.77,0,0,0-7.47-6.77Z" style="fill:none"></path><path d="M254,370a15,15,0,0,1-.39,2.56l17.74,9.6A46.5,46.5,0,0,0,273.2,370Z" style="fill:none"></path><path d="M253.67,365.57A16.77,16.77,0,0,1,254,368H273.2a46.88,46.88,0,0,0-1.68-11.66Z" style="fill:none"></path><path d="M245,326c-18.9,0-34.27,19.29-34.27,43s15.37,43,34.27,43,34.26-19.29,34.26-43S263.85,326,245,326ZM252,361.55,265.77,344a39.3,39.3,0,0,1,5.15,10.4l-17.86,9.27A12.62,12.62,0,0,0,252,361.55ZM246,357.27V332a22.48,22.48,0,0,1,9.32,2.54l-7.66,23.18A7.26,7.26,0,0,0,246,357.27Zm-2,0a6.85,6.85,0,0,0-1.54.4L235,334.32A22.37,22.37,0,0,1,244,332Zm-7.05,6.2-17.75-9.6a39.67,39.67,0,0,1,5-9.91l13.75,17.59A13.31,13.31,0,0,0,236.91,363.47Zm-.63,1.94a14.12,14.12,0,0,0-.38,2.55H216.71a46.48,46.48,0,0,1,1.83-12.15ZM235.9,370a15.41,15.41,0,0,0,.34,2.4l-17.85,9.27A46.9,46.9,0,0,1,216.71,370Zm.95,4.34a12.62,12.62,0,0,0,1,2.08L224.14,394a39.61,39.61,0,0,1-5.15-10.4Zm7.11,6.36v25.28a22.49,22.49,0,0,1-9.33-2.54l7.66-23.18A7.34,7.34,0,0,0,244,380.66Zm2,0a7.5,7.5,0,0,0,1.53-.4l7.4,23.34a22.55,22.55,0,0,1-8.93,2.34Zm7-6.21,17.76,9.61a39.7,39.7,0,0,1-5,9.91L252,376.38A12.93,12.93,0,0,0,253,374.45Zm.63-1.93A15,15,0,0,0,254,370H273.2a46.5,46.5,0,0,1-1.83,12.16ZM254,368a16.77,16.77,0,0,0-.35-2.39l17.85-9.27A46.88,46.88,0,0,1,273.2,368Zm10.51-25.66-13.77,17.61a9.07,9.07,0,0,0-1.36-1.21l7.66-23.17A29.77,29.77,0,0,1,264.53,342.3Zm-31.3-7,7.39,23.31a9.44,9.44,0,0,0-1.47,1.3L225.38,342.3A29.76,29.76,0,0,1,233.23,335.3Zm-7.85,60.33L239.15,378a9.07,9.07,0,0,0,1.36,1.21l-7.66,23.17A29.77,29.77,0,0,1,225.38,395.63Zm31.3,7-7.39-23.3a9.44,9.44,0,0,0,1.47-1.3l13.77,17.61A29.54,29.54,0,0,1,256.68,402.62Z" style="fill:#407BFF"></path><g style="opacity:0.2;isolation:isolate"><path d="M245,326c-18.9,0-34.27,19.29-34.27,43s15.37,43,34.27,43,34.26-19.29,34.26-43S263.85,326,245,326ZM252,361.55,265.77,344a39.3,39.3,0,0,1,5.15,10.4l-17.86,9.27A12.62,12.62,0,0,0,252,361.55ZM246,357.27V332a22.48,22.48,0,0,1,9.32,2.54l-7.66,23.18A7.26,7.26,0,0,0,246,357.27Zm-2,0a6.85,6.85,0,0,0-1.54.4L235,334.32A22.37,22.37,0,0,1,244,332Zm-7.05,6.2-17.75-9.6a39.67,39.67,0,0,1,5-9.91l13.75,17.59A13.31,13.31,0,0,0,236.91,363.47Zm-.63,1.94a14.12,14.12,0,0,0-.38,2.55H216.71a46.48,46.48,0,0,1,1.83-12.15ZM235.9,370a15.41,15.41,0,0,0,.34,2.4l-17.85,9.27A46.9,46.9,0,0,1,216.71,370Zm.95,4.34a12.62,12.62,0,0,0,1,2.08L224.14,394a39.61,39.61,0,0,1-5.15-10.4Zm7.11,6.36v25.28a22.49,22.49,0,0,1-9.33-2.54l7.66-23.18A7.34,7.34,0,0,0,244,380.66Zm2,0a7.5,7.5,0,0,0,1.53-.4l7.4,23.34a22.55,22.55,0,0,1-8.93,2.34Zm7-6.21,17.76,9.61a39.7,39.7,0,0,1-5,9.91L252,376.38A12.93,12.93,0,0,0,253,374.45Zm.63-1.93A15,15,0,0,0,254,370H273.2a46.5,46.5,0,0,1-1.83,12.16ZM254,368a16.77,16.77,0,0,0-.35-2.39l17.85-9.27A46.88,46.88,0,0,1,273.2,368Zm10.51-25.66-13.77,17.61a9.07,9.07,0,0,0-1.36-1.21l7.66-23.17A29.77,29.77,0,0,1,264.53,342.3Zm-31.3-7,7.39,23.31a9.44,9.44,0,0,0-1.47,1.3L225.38,342.3A29.76,29.76,0,0,1,233.23,335.3Zm-7.85,60.33L239.15,378a9.07,9.07,0,0,0,1.36,1.21l-7.66,23.17A29.77,29.77,0,0,1,225.38,395.63Zm31.3,7-7.39-23.3a9.44,9.44,0,0,0,1.47-1.3l13.77,17.61A29.54,29.54,0,0,1,256.68,402.62Z"></path></g><path d="M271,322.08H232.13a8.27,8.27,0,0,0-8.26,8.26v64.58a3.7,3.7,0,0,1-3.7,3.7H208a2,2,0,1,0,0,4h12.13a7.72,7.72,0,0,0,7.7-7.7V371H271a2,2,0,0,0,2-2V324.08A2,2,0,0,0,271,322.08ZM269,367H227.87V330.34a4.26,4.26,0,0,1,4.26-4.26H269Z" style="fill:#2e353a"></path><path d="M271,322.08H232.13a8.27,8.27,0,0,0-8.26,8.26v64.58a3.7,3.7,0,0,1-3.7,3.7H208a2,2,0,1,0,0,4h12.13a7.72,7.72,0,0,0,7.7-7.7V371H271a2,2,0,0,0,2-2V324.08A2,2,0,0,0,271,322.08ZM269,367H227.87V330.34a4.26,4.26,0,0,1,4.26-4.26H269Z" style="fill:#fff;opacity:0.30000000000000004"></path><path d="M275.63,235.32v64.42H228.69a7.51,7.51,0,0,0-7.51,7.51v33.43h50.44a9.1,9.1,0,0,0,9.09-9.1V235.32Z" style="fill:#2e353a"></path><path d="M275.63,235.32v64.42H228.69a7.51,7.51,0,0,0-7.51,7.51v33.43h50.44a9.1,9.1,0,0,0,9.09-9.1V235.32Z" style="fill:#fff;opacity:0.30000000000000004"></path><path d="M227.8,324h76.32a0,0,0,0,1,0,0v14.64a0,0,0,0,1,0,0H220.21a0,0,0,0,1,0,0v-7A7.59,7.59,0,0,1,227.8,324Z" style="fill:#2e353a"></path><path d="M311.65,336.51H220.08a2.08,2.08,0,0,0-2.08,2.08h0a2.09,2.09,0,0,0,2.08,2.09h91.57a2.08,2.08,0,0,0,2.08-2h0A2.08,2.08,0,0,0,311.65,336.51Z" style="fill:#2e353a"></path><path d="M311.65,336.51H220.08a2.08,2.08,0,0,0-2.08,2.08h0a2.09,2.09,0,0,0,2.08,2.09h91.57a2.08,2.08,0,0,0,2.08-2h0A2.08,2.08,0,0,0,311.65,336.51Z" style="fill:#fff;opacity:0.30000000000000004"></path><path d="M277.42,237.23h42.64a0,0,0,0,1,0,0v86.09a13.2,13.2,0,0,1-13.2,13.2H277.42a0,0,0,0,1,0,0V237.23A0,0,0,0,1,277.42,237.23Z" style="fill:#2e353a"></path><rect x="203.42" y="395.24" width="29.62" height="6.36" rx="2.48" style="fill:#2e353a"></rect><rect x="203.42" y="395.24" width="29.62" height="6.36" rx="2.48" style="fill:#fff;opacity:0.2"></rect><path d="M311.46,367.55l-38.71-13.77L311.46,340a1.5,1.5,0,0,0-1-2.83l-42.17,15-42.18-15a1.5,1.5,0,0,0-1,2.83l38.7,13.77-38.7,13.77a1.5,1.5,0,0,0-.91,1.92,1.48,1.48,0,0,0,1.41,1,1.42,1.42,0,0,0,.5-.08l42.18-15,42.17,15a1.5,1.5,0,0,0,1-2.83Z" style="fill:#2e353a"></path><path d="M311.46,367.55l-38.71-13.77L311.46,340a1.5,1.5,0,0,0-1-2.83l-42.17,15-42.18-15a1.5,1.5,0,0,0-1,2.83l38.7,13.77-38.7,13.77a1.5,1.5,0,0,0-.91,1.92,1.48,1.48,0,0,0,1.41,1,1.42,1.42,0,0,0,.5-.08l42.18-15,42.17,15a1.5,1.5,0,0,0,1-2.83Z" style="fill:#fff;opacity:0.30000000000000004"></path><path d="M278.05,244.83a1.5,1.5,0,0,1-1.5-1.5V231.84a8.56,8.56,0,0,1,8.16-8.55l9.68-.47a1.5,1.5,0,1,1,.14,3l-9.68.47a5.56,5.56,0,0,0-5.3,5.56v11.49A1.5,1.5,0,0,1,278.05,244.83Z" style="fill:#263238"></path><polygon points="228.99 391.28 238.6 388.27 237.36 378.79 236.21 370.09 224.4 372.42 226.82 382.41 228.99 391.28" style="fill:#ebb376"></polygon><polygon points="226.89 382.61 237.41 378.96 236.23 370.18 224.42 372.46 226.89 382.61" style="opacity:0.2;isolation:isolate"></polygon><path d="M239.42,386.07c0-.75-11.74.25-11.74.25s-7,6-14,7.53-2.92,4.68,4.9,4.4l19.35-.69C243.53,397.36,239.93,393.78,239.42,386.07Z" style="fill:#2e353a"></path><path d="M210.73,306.9c7-12,44.17-14.26,68.79-15.95l8.4,21.69s-36.75-2-47.36,9.94c-8.43,9.52-2.69,52.28-2.69,52.28L222.06,376S198.36,328.18,210.73,306.9Z" style="fill:#2e353a"></path><path d="M210.73,306.9c7-12,44.17-14.26,68.79-15.95l8.4,21.69s-36.75-2-47.36,9.94c-8.43,9.52-2.69,52.28-2.69,52.28L222.06,376S198.36,328.18,210.73,306.9Z" style="opacity:0.2;isolation:isolate"></path><polygon points="248.99 391.28 258.6 388.27 257.36 378.79 256.2 370.09 244.4 372.42 246.82 382.41 248.99 391.28" style="fill:#ebb376"></polygon><polygon points="246.89 382.61 257.42 378.96 256.23 370.18 244.42 372.46 246.89 382.61" style="opacity:0.2;isolation:isolate"></polygon><path d="M281.12,229.22c5-2.4,18.3-.32,21.51,2.73s-9.89,12-16.92,10.72S277.21,231.09,281.12,229.22Z" style="fill:#407BFF"></path><path d="M281.12,229.22c5-2.4,18.3-.32,21.51,2.73s-9.89,12-16.92,10.72S277.21,231.09,281.12,229.22Z" style="opacity:0.2;isolation:isolate"></path><path d="M255.85,290.74s8.71-16.84,9.16-18.15c2.32-6.78,44.44-.67,44.44-.67s11.61,35.29-2.85,45.42c-12.57,8.81-43,4.84-48.17,6.43-4.78,1.47-7.12,6.6.15,54.41l-15.67.59s-22.94-57-22.69-67.28S218.67,296.53,255.85,290.74Z" style="fill:#2e353a"></path><path d="M256.37,288.26S268.64,245,273,233.82c1.61-4.14,40.22-.13,40.22-.13v52.36s-28.88,10.22-37.32,6c-2.68-1.35-5.54-10.62-5.54-10.62s-5.4,10.06-8.74,10.14C259.71,291.6,256.37,288.26,256.37,288.26Z" style="fill:#407BFF"></path><path d="M313.21,233.69v52.36s-28.88,10.22-37.32,6c-2.68-1.35-5.54-10.62-5.54-10.62s-5.39,10.06-8.74,10.14c-1.9.05-5.24-3.29-5.24-3.29s.16-.58.47-1.63c1.66-5.83,7.49-26.15,12-40.48,1.65-5.24,3.12-9.68,4.15-12.33C274.6,229.68,313.21,233.69,313.21,233.69Z" style="fill:#fff;opacity:0.6000000000000001"></path><circle cx="280.06" cy="253.59" r="1.06" style="opacity:0.2;isolation:isolate"></circle><circle cx="276.42" cy="264.13" r="1.06" style="opacity:0.2;isolation:isolate"></circle><circle cx="272.33" cy="275.87" r="1.06" style="opacity:0.2;isolation:isolate"></circle><path d="M313.21,256.05v29.3c-30.73,10.4-39.26,1.4-39.26,1.4s16.84-9.56,23.83-13.12,8.34-22.16,8.34-22.16A80.71,80.71,0,0,1,313.21,256.05Z" style="opacity:0.2;isolation:isolate"></path><path d="M264.68,272.18c.11,6.11,1.08,8.1,1.36,10.81.24,2.46-.48,8.08-9.2,3.64,1.66-5.83,7.49-26.15,12-40.48a3.12,3.12,0,0,1,1,.68S264.55,264.63,264.68,272.18Z" style="opacity:0.2;isolation:isolate"></path><path d="M301.73,233.87s-4.75,3.95-9.2,4.15-8.68,6.73-8.68,6.73-1.1-6.53-.81-7.12a7.33,7.33,0,0,0-.66-2.3h0c-.52-1.58-.92-3.36.66-3.36,2.67,0,.81-5.41.81-5.41l15.09-4.15a22.41,22.41,0,0,0-.85,4.33C297.82,229.74,298.27,233.31,301.73,233.87Z" style="fill:#ebb376"></path><path d="M298.94,222.4a22.41,22.41,0,0,0-.85,4.33c-3,3.57-8.28,8.13-15.71,8.59-.52-1.58-.92-3.36.66-3.36,2.67,0,.81-5.41.81-5.41Z" style="opacity:0.2;isolation:isolate"></path><path d="M300,234.76s-7.85,13.84-9.52,25.32a40.66,40.66,0,0,1,8.13,0c3.07.49.86-15.24,8.11-26.5Z" style="fill:#407BFF"></path><path d="M300,234.76s-7.85,13.84-9.52,25.32a40.66,40.66,0,0,1,8.13,0c3.07.49.86-15.24,8.11-26.5Z" style="opacity:0.2;isolation:isolate"></path><path d="M281.12,235.36c0,4.51,5.4,8.2,13.5,1.48s10.26-8.28,12.26-5.92c0,0,2.71.2,3.14,2.46a21.12,21.12,0,0,0-6.5,4.05C301,240,290.06,249.49,283,248.7s-8.78-11-4.76-15.12c0,0,.15-6.41,6.26-3.87C284.54,229.71,281.12,230.21,281.12,235.36Z" style="fill:#407BFF"></path><path d="M290.44,260.08s-1,4.32-.77,4.51.61-4.28,1.39-3.95-.65,4.1,0,4-.05-3.83.76-3.9-.11,3.85.49,3.9,0-3.9.78-3.9-.25,4,.4,3.9.14-4.09.86-4.09-.39,3.91.33,4.1-.06-3.91.86-3.91-.2,4,.26,3.91-.26-4.1.66-3.91-.06,4.06.46,3.91-.46-3.91.46-3.71.6,4,.86,3.72.15-3.39.7-3.46,0,2.77.82,3-.82-4.08-.82-4.08S293.73,259,290.44,260.08Z" style="fill:#407BFF"></path><path d="M292.85,201.44c-8.42-1.33-11.84,2.75-13.82,11.33-.06.22-.15.66-.15.66-5.24,4.64-2.17,17.49,9.75,17.49C303.45,230.92,306.84,203.64,292.85,201.44Z" style="fill:#ebb376"></path><path d="M284.54,213.16a17.92,17.92,0,0,1-3,3.1,2.34,2.34,0,0,0,2.07,1.3Z" style="fill:#d58745"></path><path d="M289.81,213.28c-.13.69.14,1.32.6,1.4s.93-.41,1.06-1.1-.15-1.31-.61-1.4S289.93,212.59,289.81,213.28Z" style="fill:#263238"></path><path d="M291.05,212.25l-1.39-.86S290.18,212.79,291.05,212.25Z" style="fill:#263238"></path><path d="M281.27,211.58c-.13.69.14,1.32.6,1.4s.93-.41,1.06-1.1-.15-1.31-.61-1.4S281.39,210.89,281.27,211.58Z" style="fill:#263238"></path><path d="M282.51,210.55l-1.39-.86S281.63,211.09,282.51,210.55Z" style="fill:#263238"></path><path d="M294.26,209.69a.33.33,0,0,1-.31-.18,4.1,4.1,0,0,0-3.15-1.67.36.36,0,0,1,0-.72h0a4.74,4.74,0,0,1,3.75,2,.36.36,0,0,1-.13.49A.41.41,0,0,1,294.26,209.69Z" style="fill:#263238"></path><path d="M281.28,206.68a.35.35,0,0,1-.33-.21.37.37,0,0,1,.18-.48,4.35,4.35,0,0,1,3.79-.15.36.36,0,0,1-.35.64,3.58,3.58,0,0,0-3.14.17Z" style="fill:#263238"></path><path d="M314.88,210.47c-1.53-1.34-4.44-.58-6.54.26,0-.09,0-.17,0-.26a9.58,9.58,0,0,0-3.83-8c0-3.36-2.6-4.84-5.46-5.73s-5.35.79-8.71-.79a4.69,4.69,0,0,0-6.5,1.88c-.87,1.58-.49,3.87-3.29,3.95s-2.12,2.7-1.58,4.1.39,1-.5,2.55c-.61,1.06.3,1.73.95,2-.11.74-.13,1.2-.13,1.2q.12-.6.27-1.14c4-15.23,18.84-6.22,18.84-6.22-1.44,5.25,1.4,12.79,1.4,12.79,1.25,3.35-.59,6.73-1.75,8.4a10.66,10.66,0,0,1-.83,1.07,9.66,9.66,0,0,0,1.45-1.07c6-.21,5.72-3.47,5.71-4.55a3.73,3.73,0,0,1,.67-1.39c1,1.94,3.11,4.5,6.86,3.67C317.75,221.93,317.45,212.73,314.88,210.47Z" style="fill:#263238"></path><path d="M285.78,222.19a4.94,4.94,0,0,1-2.08-.48.37.37,0,0,1-.18-.48.35.35,0,0,1,.48-.18,3.77,3.77,0,0,0,4.83-1.22.36.36,0,0,1,.5-.1.36.36,0,0,1,.1.5A4.68,4.68,0,0,1,285.78,222.19Z" style="fill:#263238"></path><path d="M291.23,216.8a1.89,1.89,0,0,1-1.37-.5,2.75,2.75,0,0,1-.6-2.16.26.26,0,0,1,.28-.22.26.26,0,0,1,.22.29,2.35,2.35,0,0,0,.45,1.74,1.69,1.69,0,0,0,1.53.3.25.25,0,0,1,.29.21.25.25,0,0,1-.2.29A4.28,4.28,0,0,1,291.23,216.8Z" style="fill:#d58745"></path><path d="M281.18,214.74a3.19,3.19,0,0,1-1.32-.34.26.26,0,0,1-.11-.34.25.25,0,0,1,.33-.11,1.69,1.69,0,0,0,2.64-1,.25.25,0,0,1,.48.13,2.5,2.5,0,0,1-1.21,1.52A2,2,0,0,1,281.18,214.74Z" style="fill:#d58745"></path><path d="M291.05,222.08a.25.25,0,0,1-.24-.19c-.66-2.9-3.87-4.08-3.9-4.09a.25.25,0,0,1-.15-.32.24.24,0,0,1,.32-.15c.14,0,3.5,1.29,4.21,4.45a.25.25,0,0,1-.18.3Z" style="fill:#d58745"></path><path d="M314.88,210.47c-1.53-1.34-4.44-.58-6.54.26,0-.09,0-.17,0-.26a9.58,9.58,0,0,0-3.83-8c0-3.36-2.6-4.84-5.46-5.73s-5.35.79-8.71-.79a4.69,4.69,0,0,0-6.5,1.88c-.87,1.58-.49,3.87-3.29,3.95s-2.12,2.7-1.58,4.1.39,1-.5,2.55c-.61,1.06.3,1.73.95,2-.11.74-.13,1.2-.13,1.2q.12-.6.27-1.14c4-15.23,18.84-6.22,18.84-6.22-1.44,5.25,1.4,12.79,1.4,12.79,1.25,3.35-.59,6.73-1.75,8.4a10.66,10.66,0,0,1-.83,1.07,9.66,9.66,0,0,0,1.45-1.07c6-.21,5.72-3.47,5.71-4.55a3.73,3.73,0,0,1,.67-1.39c1,1.94,3.11,4.5,6.86,3.67C317.75,221.93,317.45,212.73,314.88,210.47Z" style="fill:#fff;opacity:0.4"></path><path d="M298.16,218.64a3.74,3.74,0,0,1,4.51-2.75c2.56.7,3,6.25-3.73,6.51C298,222.44,297.6,221.45,298.16,218.64Z" style="fill:#ebb376"></path><g style="opacity:0.2"><path d="M294.26,209.69a.33.33,0,0,1-.31-.18,4.1,4.1,0,0,0-3.15-1.67.36.36,0,0,1,0-.72h0a4.74,4.74,0,0,1,3.75,2,.36.36,0,0,1-.13.49A.41.41,0,0,1,294.26,209.69Z" style="fill:#fff"></path></g><g style="opacity:0.2"><path d="M281.28,206.68a.35.35,0,0,1-.33-.21.37.37,0,0,1,.18-.48,4.35,4.35,0,0,1,3.79-.15.36.36,0,0,1-.35.64,3.58,3.58,0,0,0-3.14.17Z" style="fill:#fff"></path></g><path d="M202.45,341.47s.19-30.26,7.71-38S245.6,291,245.6,291s26-2.71,35.46,2.05,9.58,29.45,9.58,29.45S265.35,319.65,262,331a147.67,147.67,0,0,0-4.62,22.18Z" style="fill:#407BFF"></path><path d="M239.42,386.07c0-.75-11.74.25-11.74.25s-7,6-14,7.53-2.92,4.68,4.9,4.4l19.35-.69C243.53,397.36,239.93,393.78,239.42,386.07Z" style="opacity:0.2;isolation:isolate"></path><path d="M259.42,386.07c-.05-.75-11.74.25-11.74.25s-7,6-14,7.53-2.92,4.68,4.9,4.4l19.35-.69C263.53,397.36,259.93,393.78,259.42,386.07Z" style="fill:#2e353a"></path><path d="M288.38,281l-8.32,4.32a10.21,10.21,0,0,0-4.7.13c-2.25.69-6.56,4.52-6.34,6.21s6.75.54,7.91.84,3.55-1.2,4.19-1.5.8-2.29.8-2.29l6.46-2.22Z" style="fill:#ebb376"></path><path d="M313.21,233.69c6,1.63,9.42,32.95,3.42,42.18s-31.41,12.79-31.41,12.79l-2.5-6.34s19.58-8.12,21.67-12.08,3.08-11.86,1.3-21.49S313.21,233.69,313.21,233.69Z" style="fill:#407BFF"></path><path d="M313.21,233.69c6,1.63,9.42,32.95,3.42,42.18s-31.41,12.79-31.41,12.79l-2.5-6.34s19.58-8.12,21.67-12.08,3.08-11.86,1.3-21.49S313.21,233.69,313.21,233.69Z" style="fill:#fff;opacity:0.6000000000000001"></path><path d="M262.18,279.07,264,285.4a8.49,8.49,0,0,1,2.08,3.26c.42,1.48-.21,3-1,3.25-2,.64-6.3,1.58-6.6.5s-.89-5.75.89-5.54l-1.39-5.13Z" style="fill:#ebb376"></path><path d="M273,233.82c-6.86,1.83-20.87,24.38-18.71,36.84s4.34,14.74,4.34,14.74l5.63-3s-3.07-12.72-1.18-17.24C272.33,243,273,233.82,273,233.82Z" style="fill:#407BFF"></path><path d="M273,233.82c-6.86,1.83-20.87,24.38-18.71,36.84s4.34,14.74,4.34,14.74l5.63-3s-3.07-12.72-1.18-17.24C272.33,243,273,233.82,273,233.82Z" style="fill:#fff;opacity:0.6000000000000001"></path><path d="M320.05,244.83a1.5,1.5,0,0,1-1.5-1.5V231.84a8.56,8.56,0,0,1,8.16-8.55l9.68-.47a1.5,1.5,0,1,1,.14,3l-9.68.47a5.56,5.56,0,0,0-5.3,5.56v11.49A1.5,1.5,0,0,1,320.05,244.83Z" style="fill:#263238"></path><path d="M317.63,237.86v61.88H270.69a7.51,7.51,0,0,0-7.51,7.51v33.43h50.44a9.1,9.1,0,0,0,9.09-9.1V237.86a2.54,2.54,0,0,0-2.54-2.54h0A2.54,2.54,0,0,0,317.63,237.86Z" style="fill:#2e353a"></path><path d="M317.63,237.86v61.88H270.69a7.51,7.51,0,0,0-7.51,7.51v33.43h50.44a9.1,9.1,0,0,0,9.09-9.1V237.86a2.54,2.54,0,0,0-2.54-2.54h0A2.54,2.54,0,0,0,317.63,237.86Z" style="fill:#fff;opacity:0.4"></path><path d="M311,322.08H272.13a8.27,8.27,0,0,0-8.26,8.26v64.58a3.7,3.7,0,0,1-3.7,3.7H241a2,2,0,1,0,0,4h19.13a7.72,7.72,0,0,0,7.7-7.7V371H311a2,2,0,0,0,2-2V324.08A2,2,0,0,0,311,322.08ZM309,367H267.87V330.34a4.26,4.26,0,0,1,4.26-4.26H309Z" style="fill:#2e353a"></path><path d="M311,322.08H272.13a8.27,8.27,0,0,0-8.26,8.26v64.58a3.7,3.7,0,0,1-3.7,3.7H241a2,2,0,1,0,0,4h19.13a7.72,7.72,0,0,0,7.7-7.7V371H311a2,2,0,0,0,2-2V324.08A2,2,0,0,0,311,322.08ZM309,367H267.87V330.34a4.26,4.26,0,0,1,4.26-4.26H309Z" style="fill:#fff;opacity:0.6000000000000001"></path><rect x="224.42" y="395.24" width="36.62" height="6.36" rx="2.48" style="fill:#2e353a"></rect><rect x="224.42" y="395.24" width="36.62" height="6.36" rx="2.48" style="fill:#fff;opacity:0.4"></rect><path d="M311,416.47c-21.38,0-38.77-21.31-38.77-47.51s17.39-47.5,38.77-47.5,38.76,21.31,38.76,47.5S332.33,416.47,311,416.47Zm0-90c-18.62,0-33.77,19.07-33.77,42.5s15.15,42.51,33.77,42.51S344.72,392.4,344.72,369,329.58,326.46,311,326.46Z" style="fill:#2e353a"></path><path d="M311,412c-18.9,0-34.27-19.29-34.27-43s15.37-43,34.27-43,34.26,19.29,34.26,43S329.85,412,311,412Zm0-80c-15.59,0-28.27,16.6-28.27,37s12.68,37,28.27,37,28.26-16.6,28.26-37S326.54,332,311,332Z" style="fill:#407BFF"></path><ellipse cx="310.96" cy="368.96" rx="9.1" ry="11.77" style="fill:#407BFF"></ellipse><rect x="309.96" y="328.96" width="2" height="80.01" style="fill:#407BFF"></rect><rect x="279.69" y="367.96" width="62.54" height="2" style="fill:#407BFF"></rect><rect x="309.96" y="333.06" width="2" height="71.81" transform="translate(-161.26 269.75) rotate(-38.01)" style="fill:#407BFF"></rect><rect x="275.05" y="367.96" width="71.81" height="2" transform="translate(-171.24 386.65) rotate(-51.98)" style="fill:#407BFF"></rect><rect x="272.15" y="367.96" width="77.62" height="2" transform="translate(-136.89 548.59) rotate(-71.73)" style="fill:#407BFF"></rect><rect x="309.96" y="336.22" width="2" height="65.49" transform="translate(-161.52 466.93) rotate(-61.59)" style="fill:#407BFF"></rect><rect x="309.96" y="330.07" width="2" height="77.78" transform="translate(-96.98 111.25) rotate(-17.59)" style="fill:#407BFF"></rect><rect x="278.31" y="367.96" width="65.29" height="2" transform="translate(-135.04 184.81) rotate(-27.44)" style="fill:#407BFF"></rect></g><g id="freepik--character-1--inject-40"><path d="M184.74,221.41l9-4.49s2.14-2.9,2.72-3,11.39,1.32,11.39,1.32-1.18,3.43-2.24,4.48-8-.26-8-.26l-8.84,4.35Z" style="fill:#b97964"></path><path d="M177.06,181.2c-2.41,2.33-4.67,4.12-1.17,7.35s2.84,8.56-1.63,10.94S147.39,210,139.1,200.63s-2.12-15.78,2-17.53.15-6.35-.23-9.69,14.92-17,22.06-17.87,12,5.28,11.87,11.52S181,177.4,177.06,181.2Z" style="fill:#263238"></path><path d="M168.38,198.16c-.49,0,2.75,21.45,3.62,24.66s18.8-5.42,18.8-5.42l2.9,4.43S178,235.06,171.2,233.58s-11.87-24.92-11.87-24.92Z" style="fill:#407BFF"></path><path d="M193.7,221.83S178,235.06,171.2,233.57c-2.72-.6-5.17-4.74-7.13-9.49a105.28,105.28,0,0,1-4.64-15c-.06-.31-.1-.47-.1-.47l1-1.14,3.65-4.24,4.4-5.09c-.34.83,2.79,21.49,3.64,24.63s18.8-5.42,18.8-5.42Z" style="fill:#fff;opacity:0.7000000000000001"></path><path d="M164.07,224.08a105.28,105.28,0,0,1-4.64-15c.28-.56.57-1.1.88-1.61a14.31,14.31,0,0,1,3.65-4.24l.14-.1S168,214.36,164.07,224.08Z" style="opacity:0.2;isolation:isolate"></path><polygon points="122.76 270.92 150.27 274.81 155.18 203.84 127.63 207.12 122.76 270.92" style="fill:#407BFF"></polygon><polygon points="122.76 270.92 150.27 274.81 155.18 203.84 127.63 207.12 122.76 270.92" style="fill:#fff;opacity:0.4"></polygon><polygon points="136.35 405.58 129.74 405.58 131.77 396.44 133.64 388.05 141.92 386.78 138.98 396.73 136.35 405.58" style="fill:#b97964"></polygon><polygon points="138.91 396.93 131.71 396.62 133.61 388.14 141.91 386.82 138.91 396.93" style="opacity:0.2;isolation:isolate"></polygon><polygon points="122.66 405.58 116.05 405.58 118.08 396.44 119.95 388.05 128.23 386.78 125.29 396.73 122.66 405.58" style="fill:#b97964"></polygon><polygon points="125.22 396.93 118.02 396.62 119.92 388.14 128.22 386.82 125.22 396.93" style="opacity:0.2;isolation:isolate"></polygon><path d="M110.7,230.86s-.34.71-.87,2c-2.49,6.15-9.31,25.58-6.76,48.1,1.51,13.32,16.23,37.29,18.42,50.35,2.55,15.21-4.13,42-2.41,61.67l10.51.92,3.17-2,9-1.35s23.46-53.36,23-71.81c-.33-14.49-23-66.43-23-66.43l2.16-19.21" style="fill:#263238"></path><path d="M134.42,391.69l-1.66.25-2.69,1.7c1.72-6,16.54-57.88,16.8-69.3.3-12.14-17-55.2-17-55.2l4.43-8-.67,12.18s16.34,33.48,17.63,51C152.53,341.14,135.78,387.91,134.42,391.69Z" style="opacity:0.2;isolation:isolate"></path><path d="M127.88,405.29c0-.73,9-.16,9-.16s5.52,5.61,10.87,6.87,2.36,4.47-3.62,4.47H129.3C125.05,416.47,127.7,412.85,127.88,405.29Z" style="fill:#263238"></path><path d="M137.85,406.29a.19.19,0,0,1-.07-.06h0l0-.06h0a.19.19,0,0,1,0-.08h0a.28.28,0,0,1,0-.09c0-.11.79-2.18,2-2.69a1.42,1.42,0,0,1,1.16,0c.41.2.61.45.59.76,0,.47-.66.94-1.39,1.33a3.75,3.75,0,0,1,2,.22.93.93,0,0,1,.47.61.85.85,0,0,1-.21.95,1.28,1.28,0,0,1-.79.22A11.46,11.46,0,0,1,137.85,406.29Zm.82-.15c1.32.56,3,1.05,3.39.71,0,0,.15-.13.06-.48a.52.52,0,0,0-.26-.31,2.28,2.28,0,0,0-1.06-.2A10.42,10.42,0,0,0,138.67,406.14Zm1.25-2.39a3.87,3.87,0,0,0-1.54,1.92c1.33-.5,2.61-1.2,2.63-1.6,0-.12-.2-.24-.32-.3a1.07,1.07,0,0,0-.41-.1A.94.94,0,0,0,139.92,403.75Z" style="fill:#407BFF"></path><polygon points="129.59 390.43 144.44 388.4 143.2 393.93 130.94 395.47 129.59 390.43" style="fill:#407BFF"></polygon><path d="M114.19,405.29c0-.73,9-.16,9-.16s5.51,5.61,10.86,6.87,2.36,4.47-3.62,4.47h-14.8C111.36,416.47,114,412.85,114.19,405.29Z" style="fill:#263238"></path><path d="M124.17,406.29a.16.16,0,0,1-.08-.06h0l0-.06h0a.19.19,0,0,1,0-.08h0a.15.15,0,0,1,0-.09c0-.11.79-2.18,2-2.69a1.42,1.42,0,0,1,1.16,0c.41.2.61.45.59.76,0,.47-.66.94-1.39,1.33a3.74,3.74,0,0,1,2,.22,1,1,0,0,1,.48.61.86.86,0,0,1-.22.95,1.26,1.26,0,0,1-.79.22A11.31,11.31,0,0,1,124.17,406.29Zm.82-.15c1.32.56,3,1.05,3.38.71,0,0,.15-.13.06-.48a.52.52,0,0,0-.26-.31,2.23,2.23,0,0,0-1-.2A10.33,10.33,0,0,0,125,406.14Zm1.24-2.39a3.87,3.87,0,0,0-1.54,1.92c1.33-.5,2.61-1.2,2.63-1.6,0-.12-.2-.24-.32-.3a1,1,0,0,0-.41-.1A.94.94,0,0,0,126.23,403.75Z" style="fill:#407BFF"></path><polygon points="116.91 390.43 132.76 388.4 131.44 393.93 118.35 395.47 116.91 390.43" style="fill:#407BFF"></polygon><polygon points="112.62 226.54 111.07 231.01 142.35 239.28 144.19 234 112.62 226.54"></polygon><rect x="120.62" y="227.78" width="1.6" height="8.16" transform="translate(69.8 -24.73) rotate(16.26)" style="fill:#263238"></rect><rect x="128.96" y="231.63" width="7.08" height="5.37" transform="translate(60.95 -25.19) rotate(14.07)" style="fill:#fff"></rect><rect x="139.95" y="232.22" width="1.6" height="8.16" transform="translate(71.85 -29.97) rotate(16.27)" style="fill:#263238"></rect><path d="M167.89,198.16q-2,2.66-3.79,5c-4.56,6.1-7.8,10.43-10.29,13.92a72.94,72.94,0,0,0-7.23,12c-.81,1.72-1.61,3.59-2.5,5.79l-31.46-8.39c5.92-22,11-33.52,13.53-39.27l.08-.18a8,8,0,0,1,9.33-4.43c2.26.61,4.9,1.38,7.35,2.21a103.67,103.67,0,0,1,13.29,6A96.08,96.08,0,0,1,167.89,198.16Z" style="fill:#407BFF"></path><path d="M135.56,182.66c-4.14-1.09,1.95,13.47,11.36,16.31s15.07-.65,15.08-3.35S148.05,186,135.56,182.66Z" style="fill:#b97964"></path><path d="M138.32,182.39s3.16,14.26,0,24.73-29,73.83-29,73.83H95.59s4.25-31.27,17-58.13c0,0,11.46-36.09,11.72-37.68S130.67,181,138.32,182.39Z" style="fill:#407BFF"></path><path d="M156.33,190s.41,14.61-5,27.56l-1.07,55.2s4.44-28.36,6.4-49.94l11.71-24.66Z" style="fill:#407BFF"></path><path d="M138.32,207.12c-3.17,10.46-29,73.83-29,73.83H95.59s3.89-28.59,15.4-54.57c.53-1.19,1.07-2.38,1.63-3.56,0,0,1.09-3.43,2.6-8.23,3.4-10.75,8.94-28.35,9.12-29.45.26-1.58,6.33-4.19,14-2.75C138.32,182.39,141.48,196.65,138.32,207.12Z" style="fill:#fff;opacity:0.8"></path><path d="M156.33,190s.41,14.61-5,27.56l-1.07,55.2s4.44-28.36,6.4-49.94l11.71-24.66Z" style="fill:#fff;opacity:0.8"></path><path d="M156.67,188.77s4.16,3.36,6.9,12.26L158,205l1.35,3.64-8,12.75a29.48,29.48,0,0,1,.64-9.89C153.25,206.77,157.05,192.8,156.67,188.77Z" style="fill:#407BFF"></path><path d="M139.73,182.39a46.9,46.9,0,0,1-5.11,35s-.31-13.3-2.11-18.15l4.29-1.71L128.33,192S135.2,180.75,139.73,182.39Z" style="fill:#407BFF"></path><path d="M156.67,188.77s4.16,3.36,6.9,12.26L158,205l1.35,3.64-8,12.75a29.48,29.48,0,0,1,.64-9.89C153.25,206.77,157.05,192.8,156.67,188.77Z" style="fill:#fff;opacity:0.7000000000000001"></path><path d="M139.73,182.39a46.9,46.9,0,0,1-5.11,35s-.31-13.3-2.11-18.15l4.29-1.71L128.33,192S135.2,180.75,139.73,182.39Z" style="fill:#fff;opacity:0.7000000000000001"></path><path d="M124.08,231.38c-3.22.3-8.84-2.52-13.09-5,.53-1.19,1.07-2.38,1.63-3.56,0,0,1.09-3.43,2.6-8.23C120.35,220.88,128,231,124.08,231.38Z" style="opacity:0.2;isolation:isolate"></path><path d="M126.35,251.49s3.11.43,9.1-5.3,14-12.45,15.94-11.53l17.74,8.56-23.93,17Z" style="fill:#407BFF"></path><path d="M126.35,251.49s3.11.43,9.1-5.3,14-12.45,15.94-11.53l17.74,8.56-23.93,17Z" style="fill:#fff;opacity:0.7000000000000001"></path><path d="M126.8,255l24.51-19.19a1.12,1.12,0,0,1,1.14-.14l18.46,8.17a.49.49,0,0,1,.09.84L146.79,262.7a1.12,1.12,0,0,1-1.06.15l-18.8-7.05A.49.49,0,0,1,126.8,255Z" style="fill:#407BFF"></path><path d="M162.63,239c-.19-.13-.56,0-.84.16l.74.35C162.68,239.37,162.83,239.15,162.63,239Z" style="fill:none"></path><path d="M163.05,239.78c.22-.33.5-1-.15-1.29a2.13,2.13,0,0,0-1.86.33c-.95-.44-1.84-.86-2.47-1.14a.37.37,0,0,0-.4.07l-1.54,1.41a.55.55,0,0,0,.16.91l6.29,2.69a1.34,1.34,0,0,0,1.36-.2l1.25-1.05a.29.29,0,0,0-.05-.49Zm-.42-.76c.2.13.05.35-.1.51l-.74-.35C162.07,239,162.44,238.89,162.63,239Z" style="fill:#263238"></path><path d="M132,234.93l4.09,5.47s4,.79,5,1.84A43.82,43.82,0,0,1,146,249c.39,1.05-5.5,3.95-6.25,3.56s-4.95-6.33-5.48-7.39a2.58,2.58,0,0,1,0-2.14l-4.34-5Z" style="fill:#b97964"></path><path d="M124.34,185.14c3.69,2,4,9.94,4,9.94s-8.47,16.43-9,19S135,237.51,135,237.51l-3.8,3.54s-19.52-20.92-21.63-26S124.34,185.14,124.34,185.14Z" style="fill:#407BFF"></path><path d="M124.34,185.14c3.69,2,4,9.94,4,9.94s-8.47,16.43-9,19S135,237.51,135,237.51l-3.8,3.54s-19.52-20.92-21.63-26S124.34,185.14,124.34,185.14Z" style="fill:#fff;opacity:0.7000000000000001"></path><path d="M170.46,226.7a2.62,2.62,0,1,1-2.62-2.62A2.62,2.62,0,0,1,170.46,226.7Z" style="fill:#263238"></path><g style="opacity:0.6000000000000001"><path d="M170.46,226.7a2.62,2.62,0,1,1-2.62-2.62A2.62,2.62,0,0,1,170.46,226.7Z" style="fill:#fff"></path></g><path d="M157.87,205.1a36.35,36.35,0,0,1,.55-4.82c.94-5.94,2-12.68-6.88-16.52-2.68-1.16-5.06-1.14-7.07.07-4.55,2.74-5.72,10.66-5.95,12.73a5.18,5.18,0,0,0-4.33,1.54c-3.25,3.47-1.77,11.46-1.7,11.8a.49.49,0,0,0,.58.39.5.5,0,0,0,.4-.58c0-.08-1.46-7.82,1.44-10.92a4.37,4.37,0,0,1,4-1.2,4.73,4.73,0,0,1,3.71,2.22c2.51,4.07-.34,12.18-.37,12.26a.51.51,0,0,0,.31.64.47.47,0,0,0,.17,0,.52.52,0,0,0,.47-.33c.12-.35,3-8.64.27-13.12a5.63,5.63,0,0,0-4-2.61c.23-1.93,1.37-9.52,5.47-12,1.72-1,3.79-1,6.16,0,8.17,3.53,7.22,9.59,6.29,15.44a37.86,37.86,0,0,0-.56,5c-.12,8,2.45,20.91,9.89,21.18l0-1C159.82,225,157.77,211.57,157.87,205.1Z" style="fill:#263238"></path><path d="M157.87,205.1a36.35,36.35,0,0,1,.55-4.82c.94-5.94,2-12.68-6.88-16.52-2.68-1.16-5.06-1.14-7.07.07-4.55,2.74-5.72,10.66-5.95,12.73a5.18,5.18,0,0,0-4.33,1.54c-3.25,3.47-1.77,11.46-1.7,11.8a.49.49,0,0,0,.58.39.5.5,0,0,0,.4-.58c0-.08-1.46-7.82,1.44-10.92a4.37,4.37,0,0,1,4-1.2,4.73,4.73,0,0,1,3.71,2.22c2.51,4.07-.34,12.18-.37,12.26a.51.51,0,0,0,.31.64.47.47,0,0,0,.17,0,.52.52,0,0,0,.47-.33c.12-.35,3-8.64.27-13.12a5.63,5.63,0,0,0-4-2.61c.23-1.93,1.37-9.52,5.47-12,1.72-1,3.79-1,6.16,0,8.17,3.53,7.22,9.59,6.29,15.44a37.86,37.86,0,0,0-.56,5c-.12,8,2.45,20.91,9.89,21.18l0-1C159.82,225,157.77,211.57,157.87,205.1Z" style="fill:#fff;opacity:0.2"></path><path d="M143.27,211.47l-1.38-.28s-1,2.2-.19,2.59S143.73,212.62,143.27,211.47Z" style="fill:#263238"></path><g style="opacity:0.6000000000000001"><path d="M143.27,211.47l-1.38-.28s-1,2.2-.19,2.59S143.73,212.62,143.27,211.47Z" style="fill:#fff"></path></g><path d="M132.76,209h1.4s.6,2.37-.33,2.57S132.07,210,132.76,209Z" style="fill:#263238"></path><g style="opacity:0.6000000000000001"><path d="M132.76,209h1.4s.6,2.37-.33,2.57S132.07,210,132.76,209Z" style="fill:#fff"></path></g><circle cx="167.27" cy="225.55" r="1.47" style="fill:#263238"></circle><g style="opacity:0.7000000000000001"><circle cx="167.27" cy="225.55" r="1.47" style="fill:#fff"></circle></g><path d="M147.58,197c-5.3-6-4.84-10.15-4.84-10.15,6.93-.23,9.24-9.2,9.24-9.2l6,7.67a28.5,28.5,0,0,0-2.95,2.78c-3.89,4.31-2,6.09-2,6.09C152.25,197.7,147.58,197,147.58,197Z" style="fill:#b97964"></path><path d="M158,185.36a28.5,28.5,0,0,0-2.95,2.78c-2.75-3.85-3.05-10.45-3.05-10.45Z" style="opacity:0.2;isolation:isolate"></path><path d="M164.52,157.06c8.09,2,9.65,6.94,8.21,15.43-1.8,10.61-5.92,17.46-15.5,12.77C144.21,178.88,151.07,153.79,164.52,157.06Z" style="fill:#b97964"></path><path d="M167.6,170.77a17.86,17.86,0,0,0,1.54,3.93,2.29,2.29,0,0,1-2.36.39Z" style="fill:#a24e3f"></path><path d="M162.81,168.9c-.15.67-.63,1.13-1.08,1s-.69-.72-.54-1.39.63-1.13,1.07-1S163,168.23,162.81,168.9Z" style="fill:#263238"></path><path d="M162.07,167.5l1.58-.25S162.66,168.31,162.07,167.5Z" style="fill:#263238"></path><path d="M171.15,170.58c-.14.67-.62,1.13-1.07,1s-.69-.72-.54-1.39.63-1.13,1.07-1S171.3,169.91,171.15,170.58Z" style="fill:#263238"></path><path d="M170.42,169.18l1.58-.25S171,170,170.42,169.18Z" style="fill:#263238"></path><path d="M160.28,164a.35.35,0,0,1-.29-.15.37.37,0,0,1,.07-.51,4.66,4.66,0,0,1,4.16-.41.36.36,0,0,1-.26.67,4,4,0,0,0-3.46.32A.4.4,0,0,1,160.28,164Z" style="fill:#263238"></path><path d="M173.12,166.19a.34.34,0,0,1-.26-.12,3.53,3.53,0,0,0-2.76-1.33.38.38,0,0,1-.4-.32.36.36,0,0,1,.31-.4,4.21,4.21,0,0,1,3.38,1.56.37.37,0,0,1,0,.51A.35.35,0,0,1,173.12,166.19Z" style="fill:#263238"></path><path d="M152.34,168.55s5.41-5.73,6.09-11c0,0,17.64-2.65,14.47,13.83,0,0,5.09-14.08-8.76-17.79s-18.74,16.66-13,24.48C151.11,178.07,149,172.14,152.34,168.55Z" style="fill:#263238"></path><path d="M153.25,170.59a3.66,3.66,0,0,0-3-4.18c-2.58-.34-5,4.52.91,7.28C152,174.09,152.7,173.33,153.25,170.59Z" style="fill:#b97964"></path><path d="M177.77,175c-2.1-2-1.78-5.4-.13-8.85s-2.62-6-2.62-6-.34-4.34-3.68-6.08c-.6-.32-3.38,0-3.38,0-3.64-4-9.49-7.29-14.08-2.08-2.71,3.08-5.4-.07-9.69,6.33-3.1,4.63-.94,8.7-1.84,10.19-4.16,6.84,1.25,8.69,2.55,11.07,0,0,2.86-1.36,2.62-2.18-2-6.55,1.45-10.8,4.09-9.76s4.52.77,6.43-1.64.58-5,5-5.6,4.87-3.13,4.87-3.13a6.22,6.22,0,0,0,3.63,5.27c3.69,1.93,2.24,4.26,1.72,7.55s1.11,4.56,4,6.94-.16,4.12-.16,4.12A3.69,3.69,0,0,0,177.77,175Z" style="fill:#263238"></path><path d="M166.17,178.76a20,20,0,0,0-2,2.09l-.44-.26c-2-1.19-2.5-2.39-2.49-3.37a3.11,3.11,0,0,1,.39-1.35,3.07,3.07,0,0,1,.47-.66,10.94,10.94,0,0,0,3.4,3.14Z" style="fill:#263238"></path><path d="M165.5,178.35l-.6.6c-1.86-1.13-3-2.17-3.27-3.08a3.07,3.07,0,0,1,.47-.66A10.94,10.94,0,0,0,165.5,178.35Z" style="fill:#fff"></path><path d="M163.73,180.59c-2-1.19-2.5-2.39-2.49-3.37a7.44,7.44,0,0,1,1.94,1.76A2.76,2.76,0,0,1,163.73,180.59Z" style="fill:#de5753"></path></g></svg>