<svg xmlns="http://www.w3.org/2000/svg" viewBox="0 0 500 500"><g id="freepik--background-complete--inject-79"><rect y="382.4" width="500" height="0.25" style="fill:#ebebeb"></rect><rect x="416.78" y="398.49" width="33.12" height="0.25" style="fill:#ebebeb"></rect><rect x="322.53" y="401.21" width="8.69" height="0.25" style="fill:#ebebeb"></rect><rect x="396.59" y="389.21" width="19.19" height="0.25" style="fill:#ebebeb"></rect><rect x="52.46" y="390.89" width="43.19" height="0.25" style="fill:#ebebeb"></rect><rect x="104.56" y="390.89" width="6.33" height="0.25" style="fill:#ebebeb"></rect><rect x="131.47" y="395.11" width="93.68" height="0.25" style="fill:#ebebeb"></rect><path d="M237,337.8H43.91a5.71,5.71,0,0,1-5.7-5.71V60.66A5.71,5.71,0,0,1,43.91,55H237a5.71,5.71,0,0,1,5.71,5.71V332.09A5.71,5.71,0,0,1,237,337.8ZM43.91,55.2a5.46,5.46,0,0,0-5.45,5.46V332.09a5.46,5.46,0,0,0,5.45,5.46H237a5.47,5.47,0,0,0,5.46-5.46V60.66A5.47,5.47,0,0,0,237,55.2Z" style="fill:#ebebeb"></path><path d="M453.31,337.8H260.21a5.72,5.72,0,0,1-5.71-5.71V60.66A5.72,5.72,0,0,1,260.21,55h193.1A5.71,5.71,0,0,1,459,60.66V332.09A5.71,5.71,0,0,1,453.31,337.8ZM260.21,55.2a5.47,5.47,0,0,0-5.46,5.46V332.09a5.47,5.47,0,0,0,5.46,5.46h193.1a5.47,5.47,0,0,0,5.46-5.46V60.66a5.47,5.47,0,0,0-5.46-5.46Z" style="fill:#ebebeb"></path><rect x="308.4" y="102.64" width="108.2" height="151.33" style="fill:#f5f5f5"></rect><rect x="289.68" y="128.28" width="145.65" height="100.04" transform="translate(540.8 -184.2) rotate(90)" style="fill:#fafafa"></rect><rect x="361.35" y="104.75" width="2.3" height="147.8" style="fill:#f5f5f5"></rect><rect x="305.9" y="100.67" width="113.2" height="7.12" style="fill:#f5f5f5"></rect><rect x="305.9" y="108.58" width="113.2" height="0.84" style="fill:#f5f5f5"></rect><rect x="305.9" y="110.5" width="113.2" height="0.84" style="fill:#f5f5f5"></rect><rect x="305.9" y="112.41" width="113.2" height="0.84" style="fill:#f5f5f5"></rect><rect x="305.9" y="114.33" width="113.2" height="0.84" style="fill:#f5f5f5"></rect><rect x="305.9" y="116.24" width="113.2" height="0.84" style="fill:#f5f5f5"></rect><rect x="305.9" y="118.16" width="113.2" height="0.84" style="fill:#f5f5f5"></rect><rect x="305.9" y="120.07" width="113.2" height="0.84" style="fill:#f5f5f5"></rect><rect x="305.9" y="121.99" width="113.2" height="0.84" style="fill:#f5f5f5"></rect><rect x="305.9" y="123.91" width="113.2" height="0.84" style="fill:#f5f5f5"></rect><rect x="305.9" y="125.82" width="113.2" height="0.84" style="fill:#f5f5f5"></rect><rect x="305.9" y="127.74" width="113.2" height="0.84" style="fill:#f5f5f5"></rect><rect x="305.9" y="129.65" width="113.2" height="0.84" style="fill:#f5f5f5"></rect><rect x="305.9" y="131.57" width="113.2" height="0.84" style="fill:#f5f5f5"></rect><rect x="305.9" y="133.48" width="113.2" height="0.84" style="fill:#f5f5f5"></rect><rect x="305.9" y="135.4" width="113.2" height="0.84" style="fill:#f5f5f5"></rect><rect x="305.9" y="137.32" width="113.2" height="0.84" style="fill:#f5f5f5"></rect><rect x="305.9" y="139.23" width="113.2" height="0.84" style="fill:#f5f5f5"></rect><rect x="305.9" y="141.15" width="113.2" height="0.84" style="fill:#f5f5f5"></rect><circle cx="154.83" cy="106.5" r="20.36" style="fill:#e0e0e0"></circle><circle cx="154.83" cy="106.5" r="17.31" transform="translate(24.9 242.27) rotate(-80.78)" style="fill:#f0f0f0"></circle><polyline points="154.01 94.63 154.01 106.73 145.99 102.19" style="fill:#f0f0f0"></polyline><path d="M154,107.59a1,1,0,0,1-.43-.11l-8-4.54a.86.86,0,1,1,.85-1.5l6.73,3.8V94.63a.86.86,0,1,1,1.72,0v12.1a.86.86,0,0,1-.42.74A.88.88,0,0,1,154,107.59Z" style="fill:#e0e0e0"></path><rect x="76.3" y="151.75" width="87.55" height="68.91" transform="translate(306.28 66.13) rotate(90)" style="fill:#e6e6e6"></rect><rect x="87.19" y="144" width="65.77" height="84.41" style="fill:#f0f0f0"></rect><path d="M136,183.57c-2.55,2.82-3.19-2.78-3.19-2.78l-7.29-12.38L124,181.12l5.47,39.39s5,1.49,5.35,2.34-8.6,1.07-9.56,0,1-2.34,1-2.34L119.28,188l-.11.52-6.79,32s1.91,1.27,1,2.34-9.87.84-9.55,0,5.34-2.34,5.34-2.34l5.48-39.39L113,168.41l-7.29,12.38s-.64,5.6-3.19,2.78,1.92-5.36,1.92-5.36l7.92-13.75,4.37-1.51,1-1.22s-5.61-10.06,1.45-10.26v0h.21v0c7.06.2,1.46,10.26,1.46,10.26l1,1.22,4.37,1.51,7.92,13.75S138.56,180.76,136,183.57Z" style="fill:#fafafa"></path><path d="M119.17,151.47v37l-6.79,32s1.91,1.27,1,2.34-9.87.84-9.55,0,5.34-2.34,5.34-2.34l5.48-39.39L113,168.41l-7.29,12.38s-.64,5.6-3.19,2.78,1.92-5.36,1.92-5.36l7.92-13.75,4.37-1.51,1-1.22S112.11,151.67,119.17,151.47Z" style="fill:#e6e6e6"></path><rect x="133.71" y="153.83" width="9.11" height="3.55" style="fill:#e6e6e6"></rect><rect x="136.8" y="169.78" width="9.11" height="3.55" style="fill:#e6e6e6"></rect><rect x="93.57" y="186.53" width="9.11" height="3.55" style="fill:#e6e6e6"></rect><rect x="97.2" y="153.69" width="9.11" height="3.55" style="fill:#e6e6e6"></rect><rect x="133.71" y="192.42" width="9.11" height="3.55" style="fill:#e6e6e6"></rect><rect x="96.06" y="205.99" width="9.11" height="3.55" style="fill:#e6e6e6"></rect><rect x="138.27" y="209.54" width="9.11" height="3.55" style="fill:#e6e6e6"></rect><rect x="157.54" y="152.93" width="88.38" height="66.55" transform="translate(15.53 387.93) rotate(-90)" style="fill:#e6e6e6"></rect><rect x="170.02" y="143.58" width="63.41" height="21.19" style="fill:#fafafa"></rect><rect x="170.02" y="184.37" width="63.41" height="23.3" style="fill:#fafafa"></rect><path d="M179.25,153.24a6.42,6.42,0,1,0,6.42-6.42A6.42,6.42,0,0,0,179.25,153.24Z" style="fill:#e6e6e6"></path><path d="M214.14,174.43a6.42,6.42,0,1,0,6.42-6.42A6.42,6.42,0,0,0,214.14,174.43Z" style="fill:#fafafa"></path><path d="M178.49,197.07a6.42,6.42,0,1,0,6.42-6.42A6.42,6.42,0,0,0,178.49,197.07Z" style="fill:#ebebeb"></path><path d="M213.38,218.26a6.42,6.42,0,1,0,6.42-6.42A6.42,6.42,0,0,0,213.38,218.26Z" style="fill:#fafafa"></path><rect x="206.68" y="146.82" width="16.33" height="12.83" style="fill:#e6e6e6"></rect><rect x="183.75" y="168.01" width="16.33" height="12.83" style="fill:#fafafa"></rect><rect x="208.64" y="190.65" width="16.33" height="12.83" style="fill:#e6e6e6"></rect><rect x="183.75" y="211.84" width="16.33" height="12.83" style="fill:#fafafa"></rect></g><g id="freepik--Shadow--inject-79"><ellipse id="freepik--path--inject-79" cx="250" cy="416.24" rx="193.89" ry="11.32" style="fill:#f5f5f5"></ellipse></g><g id="freepik--Furniture--inject-79"><path d="M137.53,274.25h2.12c2.39,0,4.32-2.48,4.3-5.5s-2-5.47-4.37-5.45h-2.11c-2.39,0-4.32,2.48-4.3,5.5S135.14,274.26,137.53,274.25Z" style="fill:#407BFF"></path><ellipse cx="137.5" cy="268.77" rx="4.33" ry="5.47" transform="translate(-1.62 0.84) rotate(-0.35)" style="fill:#fff;isolation:isolate;opacity:0.2"></ellipse><path d="M128.87,271l7.87,0a2.19,2.19,0,0,0,0-4.26l-7.88.05a2.18,2.18,0,0,0,0,4.25Z" style="fill:#407BFF"></path><path d="M126.25,274.32l2.12,0c2.39,0,4.31-2.47,4.29-5.5s-2-5.46-4.36-5.44h-2.12c-2.39,0-4.31,2.48-4.29,5.5S123.86,274.33,126.25,274.32Z" style="fill:#407BFF"></path><path d="M126.25,274.32l2.12,0c2.39,0,4.31-2.47,4.29-5.5s-2-5.46-4.36-5.44h-2.12c-2.39,0-4.31,2.48-4.29,5.5S123.86,274.33,126.25,274.32Z" style="fill:#fff;isolation:isolate;opacity:0.1"></path><path d="M121.89,268.87c0-3,1.9-5.49,4.29-5.5s4.35,2.42,4.37,5.45-1.91,5.48-4.3,5.5S121.9,271.89,121.89,268.87Z" style="fill:#fff;isolation:isolate;opacity:0.2"></path><path d="M139.58,263.29h-2.11a4.44,4.44,0,0,0-4,3.37h-1.19a4.46,4.46,0,0,0-4-3.32h-2.12c-2.39,0-4.31,2.48-4.29,5.5s2,5.46,4.36,5.45l2.12,0a4.46,4.46,0,0,0,4-3.37h1.18a4.46,4.46,0,0,0,4,3.32h2.12c2.39,0,4.32-2.48,4.3-5.5S142,263.27,139.58,263.29Z" style="fill:#fff;isolation:isolate;opacity:0.30000000000000004"></path><path d="M118.33,274.25h2.11c2.39,0,4.32-2.48,4.3-5.5s-2-5.47-4.36-5.45h-2.12c-2.39,0-4.32,2.48-4.3,5.5S115.94,274.26,118.33,274.25Z" style="fill:#407BFF"></path><path d="M118.33,274.25h2.11c2.39,0,4.32-2.48,4.3-5.5s-2-5.47-4.36-5.45h-2.12c-2.39,0-4.32,2.48-4.3,5.5S115.94,274.26,118.33,274.25Z" style="fill:#fff;isolation:isolate;opacity:0.1"></path><path d="M114,268.8c0-3,1.91-5.48,4.3-5.5s4.35,2.43,4.36,5.45-1.9,5.48-4.29,5.5S114,271.82,114,268.8Z" style="fill:#fff;isolation:isolate;opacity:0.2"></path><path d="M109.66,271l7.87,0a2.19,2.19,0,0,0,0-4.26l-7.88.05a2.18,2.18,0,0,0,0,4.25Z" style="fill:#407BFF"></path><path d="M107,274.32l2.12,0c2.39,0,4.31-2.47,4.3-5.5s-2-5.46-4.37-5.44H107c-2.4,0-4.32,2.48-4.3,5.5S104.65,274.33,107,274.32Z" style="fill:#407BFF"></path><path d="M107,274.32l2.12,0c2.39,0,4.31-2.47,4.3-5.5s-2-5.46-4.37-5.44H107c-2.4,0-4.32,2.48-4.3,5.5S104.65,274.33,107,274.32Z" style="fill:#fff;isolation:isolate;opacity:0.1"></path><path d="M102.68,268.87c0-3,1.9-5.49,4.3-5.5s4.34,2.42,4.36,5.45-1.91,5.48-4.3,5.5S102.7,271.89,102.68,268.87Z" style="fill:#fff;isolation:isolate;opacity:0.2"></path><path d="M120.38,263.29h-2.12a4.45,4.45,0,0,0-4,3.37H113.1a4.44,4.44,0,0,0-4-3.32H107c-2.4,0-4.32,2.48-4.3,5.5s2,5.46,4.36,5.45l2.12,0a4.46,4.46,0,0,0,4-3.37h1.19a4.44,4.44,0,0,0,4,3.32h2.11c2.39,0,4.32-2.48,4.3-5.5S122.77,263.27,120.38,263.29Z" style="fill:#fff;isolation:isolate;opacity:0.30000000000000004"></path><rect x="74.34" y="274.32" width="76.28" height="108.08" transform="translate(224.96 656.72) rotate(180)" style="fill:#407BFF"></rect><rect x="74.34" y="274.32" width="16.82" height="108.08" transform="translate(165.5 656.72) rotate(180)" style="opacity:0.2"></rect><rect x="96.88" y="283.03" width="47.56" height="28.5" transform="translate(241.33 594.55) rotate(180)" style="fill:#407BFF"></rect><rect x="96.88" y="283.03" width="47.56" height="28.5" transform="translate(241.33 594.55) rotate(180)" style="fill:#fff;opacity:0.2"></rect><path d="M126.56,289.37a3.17,3.17,0,0,0-3.17-3.17h-2a3.17,3.17,0,1,0,0,6.34h2A3.17,3.17,0,0,0,126.56,289.37Z" style="fill:#407BFF"></path><path d="M126.56,289.37a3.17,3.17,0,0,0-3.17-3.17h-2a3.17,3.17,0,1,0,0,6.34h2A3.17,3.17,0,0,0,126.56,289.37Z" style="opacity:0.2"></path><path d="M120.21,289.37a3.18,3.18,0,1,0,3.18-3.17A3.17,3.17,0,0,0,120.21,289.37Z" style="fill:#407BFF"></path><path d="M120.21,289.37a3.18,3.18,0,1,0,3.18-3.17A3.17,3.17,0,0,0,120.21,289.37Z" style="fill:#fff;opacity:0"></path><rect x="96.88" y="314.64" width="47.56" height="28.5" transform="translate(241.33 657.77) rotate(180)" style="fill:#407BFF"></rect><rect x="96.88" y="314.64" width="47.56" height="28.5" transform="translate(241.33 657.77) rotate(180)" style="fill:#fff;opacity:0.2"></rect><path d="M126.56,321a3.17,3.17,0,0,0-3.17-3.17h-2a3.17,3.17,0,0,0,0,6.34h2A3.17,3.17,0,0,0,126.56,321Z" style="fill:#407BFF"></path><path d="M126.56,321a3.17,3.17,0,0,0-3.17-3.17h-2a3.17,3.17,0,0,0,0,6.34h2A3.17,3.17,0,0,0,126.56,321Z" style="opacity:0.2"></path><path d="M120.21,321a3.18,3.18,0,1,0,3.18-3.17A3.17,3.17,0,0,0,120.21,321Z" style="fill:#407BFF"></path><path d="M120.21,321a3.18,3.18,0,1,0,3.18-3.17A3.17,3.17,0,0,0,120.21,321Z" style="fill:#fff;opacity:0"></path><rect x="96.88" y="346.25" width="47.56" height="28.5" transform="translate(241.33 720.99) rotate(180)" style="fill:#407BFF"></rect><rect x="96.88" y="346.25" width="47.56" height="28.5" transform="translate(241.33 720.99) rotate(180)" style="fill:#fff;opacity:0.2"></rect><path d="M126.56,352.59a3.17,3.17,0,0,0-3.17-3.17h-2a3.17,3.17,0,0,0,0,6.34h2A3.17,3.17,0,0,0,126.56,352.59Z" style="fill:#407BFF"></path><path d="M126.56,352.59a3.17,3.17,0,0,0-3.17-3.17h-2a3.17,3.17,0,0,0,0,6.34h2A3.17,3.17,0,0,0,126.56,352.59Z" style="opacity:0.2"></path><path d="M120.21,352.59a3.18,3.18,0,1,0,3.18-3.17A3.17,3.17,0,0,0,120.21,352.59Z" style="fill:#407BFF"></path><path d="M120.21,352.59a3.18,3.18,0,1,0,3.18-3.17A3.17,3.17,0,0,0,120.21,352.59Z" style="fill:#fff;opacity:0"></path><rect x="74.34" y="274.32" width="76.28" height="108.08" transform="translate(224.96 656.72) rotate(180)" style="fill:#fff;opacity:0.1"></rect><path d="M94.17,243.4c2.35,0,4.25.59,4.25,1.3s-1.9-.25-4.25-.25a8.72,8.72,0,0,0-.9.05v5.14H91.93V244.7c-1.2.23-2,.47-2,0C89.92,244,91.82,243.4,94.17,243.4Z" style="fill:#407BFF"></path><path d="M94.17,243.4c2.35,0,4.25.59,4.25,1.3s-1.9-.25-4.25-.25a8.72,8.72,0,0,0-.9.05v5.14H91.93V244.7c-1.2.23-2,.47-2,0C89.92,244,91.82,243.4,94.17,243.4Z" style="fill:#fff;opacity:0.7000000000000001"></path><rect x="90.21" y="247.97" width="4.79" height="4.79" transform="translate(185.2 500.72) rotate(180)" style="fill:#407BFF"></rect><rect x="85.09" y="251.85" width="15.03" height="22.67" rx="2.9" transform="translate(185.2 526.37) rotate(180)" style="fill:#407BFF"></rect><path d="M99.05,259.71v11.73a2,2,0,0,1-2,2H88.17a2,2,0,0,1-2-2V257.55C89.93,257.57,96.06,259.87,99.05,259.71Z" style="fill:#fff;opacity:0.4"></path><polygon points="90.54 263.27 91.94 263.27 91.94 261.88 93.26 261.88 93.26 263.27 94.66 263.27 94.66 264.6 93.26 264.6 93.26 265.99 91.94 265.99 91.94 264.6 90.54 264.6 90.54 263.27" style="fill:#407BFF"></polygon><path d="M97.21,251.85H95V248H93.27V244.5a8.72,8.72,0,0,1,.9-.05c2.35,0,4.25,1,4.25.25s-1.9-1.3-4.25-1.3-4.25.59-4.25,1.3c0,.47.81.23,2,0V248H90.21v3.88H88a2.9,2.9,0,0,0-2.9,2.9v16.87a2.9,2.9,0,0,0,2.9,2.9h9.22a2.9,2.9,0,0,0,2.91-2.9V254.75A2.9,2.9,0,0,0,97.21,251.85Z" style="fill:#fff;opacity:0.2"></path></g><g id="freepik--Weights--inject-79"><path d="M242.78,382.12l4.7,0c5.3,0,9.57-5.5,9.53-12.2s-4.37-12.12-9.68-12.09l-4.69,0c-5.31,0-9.58,5.5-9.54,12.2S237.48,382.15,242.78,382.12Z" style="fill:#407BFF"></path><path d="M242.78,382.12l4.7,0c5.3,0,9.57-5.5,9.53-12.2s-4.37-12.12-9.68-12.09l-4.69,0c-5.31,0-9.58,5.5-9.54,12.2S237.48,382.15,242.78,382.12Z" style="fill:#fff;isolation:isolate;opacity:0.1"></path><path d="M233.1,370c0-6.7,4.23-12.17,9.54-12.2s9.64,5.38,9.68,12.09-4.23,12.16-9.54,12.2S233.14,376.74,233.1,370Z" style="fill:#fff;isolation:isolate;opacity:0.2"></path><path d="M223.56,374.81,241,374.7c2.06,0,3.72-2.13,3.7-4.74s-1.7-4.71-3.76-4.69l-17.47.1c-2.06,0-3.72,2.14-3.7,4.74S221.5,374.82,223.56,374.81Z" style="fill:#407BFF"></path><path d="M217.75,382.27l4.69,0c5.31,0,9.58-5.5,9.54-12.2S227.6,357.92,222.3,358l-4.7,0c-5.3,0-9.57,5.5-9.53,12.2S212.44,382.3,217.75,382.27Z" style="fill:#407BFF"></path><path d="M217.75,382.27l4.69,0c5.31,0,9.58-5.5,9.54-12.2S227.6,357.92,222.3,358l-4.7,0c-5.3,0-9.57,5.5-9.53,12.2S212.44,382.3,217.75,382.27Z" style="fill:#fff;isolation:isolate;opacity:0.1"></path><path d="M208.07,370.18c0-6.7,4.23-12.16,9.53-12.2s9.64,5.38,9.68,12.09-4.22,12.16-9.53,12.2S208.11,376.89,208.07,370.18Z" style="fill:#fff;isolation:isolate;opacity:0.2"></path><path d="M247.33,357.8l-4.69,0c-4,0-7.38,3.11-8.81,7.48l-2.63,0c-1.49-4.36-4.92-7.4-8.9-7.37l-4.7,0c-5.3,0-9.57,5.5-9.53,12.2s4.37,12.12,9.68,12.09l4.69,0c4,0,7.38-3.11,8.81-7.48l2.63,0c1.49,4.36,4.92,7.4,8.9,7.38l4.7,0c5.3,0,9.57-5.5,9.53-12.2S252.64,357.77,247.33,357.8Z" style="fill:#fff;isolation:isolate;opacity:0.30000000000000004"></path><path d="M185.47,382.14l3.86,0c4.36,0,7.86-4.51,7.83-10s-3.59-10-7.95-9.93l-3.86,0c-4.36,0-7.86,4.51-7.83,10S181.11,382.17,185.47,382.14Z" style="fill:#407BFF"></path><path d="M185.47,382.14l3.86,0c4.36,0,7.86-4.51,7.83-10s-3.59-10-7.95-9.93l-3.86,0c-4.36,0-7.86,4.51-7.83,10S181.11,382.17,185.47,382.14Z" style="fill:#fff;isolation:isolate;opacity:0.1"></path><path d="M177.52,372.22c0-5.51,3.47-10,7.83-10s7.92,4.41,8,9.92-3.47,10-7.83,10S177.56,377.73,177.52,372.22Z" style="fill:#fff;isolation:isolate;opacity:0.2"></path><path d="M169.68,376.14l14.35-.09c1.69,0,3.06-1.75,3-3.89s-1.39-3.87-3.09-3.86l-14.35.09c-1.69,0-3,1.75-3,3.89S168,376.15,169.68,376.14Z" style="fill:#407BFF"></path><path d="M164.91,382.27l3.86,0c4.35,0,7.86-4.51,7.83-10s-3.6-10-7.95-9.92l-3.86,0c-4.36,0-7.86,4.51-7.83,10S160.55,382.29,164.91,382.27Z" style="fill:#407BFF"></path><path d="M164.91,382.27l3.86,0c4.35,0,7.86-4.51,7.83-10s-3.6-10-7.95-9.92l-3.86,0c-4.36,0-7.86,4.51-7.83,10S160.55,382.29,164.91,382.27Z" style="fill:#fff;isolation:isolate;opacity:0.1"></path><path d="M157,372.34c0-5.51,3.47-10,7.83-10s7.92,4.42,8,9.93-3.47,10-7.83,10S157,377.85,157,372.34Z" style="fill:#fff;isolation:isolate;opacity:0.2"></path><path d="M189.21,362.17l-3.86,0c-3.27,0-6.06,2.55-7.23,6.14H176c-1.22-3.57-4-6.07-7.31-6.05l-3.86,0c-4.36,0-7.86,4.51-7.83,10s3.59,10,7.95,9.93l3.86,0c3.27,0,6.06-2.55,7.23-6.14h2.16c1.22,3.57,4,6.07,7.31,6.05l3.86,0c4.36,0,7.86-4.51,7.83-10S193.57,362.15,189.21,362.17Z" style="fill:#fff;isolation:isolate;opacity:0.30000000000000004"></path></g><g id="freepik--Plant--inject-79"><path d="M284.33,356.21c0-.29-1-28.47-5.52-32.89-4.36-4.25-9.41-.15-9.62,0l-.64-.77c.06-.05,5.95-4.85,11,0,4.84,4.71,5.78,32.4,5.82,33.58Z" style="fill:#407BFF"></path><path d="M284.73,361.77c-.14-1.38-3.15-34,9.15-48.07l.75.65c-12,13.79-8.94,47-8.91,47.32Z" style="fill:#407BFF"></path><path d="M284.55,358.21l-1-.06c0-.38,2.4-38.09-6.54-46.32l.68-.73C287,319.64,284.66,356.64,284.55,358.21Z" style="fill:#407BFF"></path><path d="M285.72,358.18h-1c0-1,.3-25.59,7.32-29.61a5.06,5.06,0,0,1,4.62-.45c4.27,1.76,6.37,9.31,6.46,9.63l-1,.26c0-.07-2-7.39-5.87-9a4.08,4.08,0,0,0-3.74.39C286,333.16,285.73,357.93,285.72,358.18Z" style="fill:#407BFF"></path><path d="M283,358.21l-1-.06c0-.19,1-19.29-4.09-26-1.22-1.6-2.55-2.35-3.93-2.26-3.31.23-6.11,5.12-6.14,5.17l-.87-.49c.12-.22,3.09-5.41,6.94-5.68,1.74-.11,3.35.77,4.79,2.65C284.08,338.55,283.06,357.41,283,358.21Z" style="fill:#407BFF"></path><path d="M283.87,360.81c-.14-1.86-3.38-45.63,2.34-53.37l.81.59c-5.51,7.45-2.19,52.26-2.15,52.71Z" style="fill:#407BFF"></path><path d="M298.16,332.67s-3.42,1.26-2.4,4.23,11.82,7.87,11.82,7.87,4.53-4.15.37-10.89S298.25,330.54,298.16,332.67Z" style="fill:#407BFF"></path><path d="M298.16,332.67s-3.42,1.26-2.4,4.23,11.82,7.87,11.82,7.87,4.53-4.15.37-10.89S298.25,330.54,298.16,332.67Z" style="fill:#fff;isolation:isolate;opacity:0.2"></path><path d="M283.3,327s3.64-.15,3.85,3-7.88,11.81-7.88,11.81-5.78-2.08-4.54-9.91S282.4,325.08,283.3,327Z" style="fill:#407BFF"></path><path d="M283.3,327s3.64-.15,3.85,3-7.88,11.81-7.88,11.81-5.78-2.08-4.54-9.91S282.4,325.08,283.3,327Z" style="fill:#fff;isolation:isolate;opacity:0.2"></path><path d="M280.22,312s2.43-.26,2.23-1.74-9.43-5.28-14.88.87c0,0,3.49,6,8.54,6.07S280.22,312,280.22,312Z" style="fill:#407BFF"></path><path d="M280.22,312s2.43-.26,2.23-1.74-9.43-5.28-14.88.87c0,0,3.49,6,8.54,6.07S280.22,312,280.22,312Z" style="fill:#fff;isolation:isolate;opacity:0.2"></path><path d="M284.74,308.41s-2.19,1.06-2.81-.3,5.21-9.47,13.09-7.13c0,0,.21,6.93-4,9.67S284.74,308.41,284.74,308.41Z" style="fill:#407BFF"></path><path d="M284.74,308.41s-2.19,1.06-2.81-.3,5.21-9.47,13.09-7.13c0,0,.21,6.93-4,9.67S284.74,308.41,284.74,308.41Z" style="fill:#fff;isolation:isolate;opacity:0.2"></path><path d="M273.26,331.47s1.67-1.35-.13-2-10.68-.47-10.77,8.31c0,0,10.33,1.72,11.6-1.63S273.26,331.47,273.26,331.47Z" style="fill:#407BFF"></path><path d="M273.26,331.47s1.67-1.35-.13-2-10.68-.47-10.77,8.31c0,0,10.33,1.72,11.6-1.63S273.26,331.47,273.26,331.47Z" style="fill:#fff;isolation:isolate;opacity:0.2"></path><path d="M294.32,311.78s-1.68-1.36.13-2,10.67-.47,10.76,8.31c0,0-10.32,1.72-11.6-1.63S294.32,311.78,294.32,311.78Z" style="fill:#407BFF"></path><path d="M294.32,311.78s-1.68-1.36.13-2,10.67-.47,10.76,8.31c0,0-10.32,1.72-11.6-1.63S294.32,311.78,294.32,311.78Z" style="fill:#fff;isolation:isolate;opacity:0.2"></path><path d="M288.86,318.85s-.15-1.64,1.18-1,5.94,5.63,1.15,10.36c0,0-6.45-4.77-5.28-7.26S288.86,318.85,288.86,318.85Z" style="fill:#407BFF"></path><path d="M288.86,318.85s-.15-1.64,1.18-1,5.94,5.63,1.15,10.36c0,0-6.45-4.77-5.28-7.26S288.86,318.85,288.86,318.85Z" style="fill:#fff;isolation:isolate;opacity:0.2"></path><path d="M271.76,321.19s1-1.31-.46-1.47-8,1.59-6.51,8.15c0,0,8-.6,8.35-3.33S271.76,321.19,271.76,321.19Z" style="fill:#407BFF"></path><path d="M271.76,321.19s1-1.31-.46-1.47-8,1.59-6.51,8.15c0,0,8-.6,8.35-3.33S271.76,321.19,271.76,321.19Z" style="fill:#fff;isolation:isolate;opacity:0.2"></path><polygon points="298.8 382.52 271.34 382.52 268.38 352.46 301.76 352.46 298.8 382.52" style="fill:#407BFF"></polygon><polygon points="298.8 382.52 271.34 382.52 268.38 352.46 301.76 352.46 298.8 382.52" style="fill:#fff;isolation:isolate;opacity:0.5"></polygon><rect x="266.91" y="349.14" width="36.32" height="6.63" style="fill:#407BFF"></rect><rect x="266.91" y="349.14" width="36.32" height="6.63" style="fill:#fff;isolation:isolate;opacity:0.2"></rect></g><g id="freepik--gym-ball--inject-79"><circle cx="384.83" cy="328.51" r="54.25" transform="translate(-119.58 368.33) rotate(-45)" style="fill:#407BFF"></circle><path d="M358.22,370a47.76,47.76,0,0,1-10-1,.38.38,0,0,1-.29-.44.39.39,0,0,1,.45-.29c24.15,5.11,48.06-9.95,61-27.14,13.86-18.35,17-39,8.46-55.21a.38.38,0,0,1,.67-.35c8.7,16.48,5.51,37.42-8.53,56C396.46,359.56,377,370,358.22,370Z" style="fill:#407BFF"></path><g style="opacity:0.2"><path d="M358.22,370a47.76,47.76,0,0,1-10-1,.38.38,0,0,1-.29-.44.39.39,0,0,1,.45-.29c24.15,5.11,48.06-9.95,61-27.14,13.86-18.35,17-39,8.46-55.21a.38.38,0,0,1,.67-.35c8.7,16.48,5.51,37.42-8.53,56C396.46,359.56,377,370,358.22,370Z" style="fill:#fff"></path></g><path d="M384,383.14a.37.37,0,0,1-.37-.3.39.39,0,0,1,.29-.45c33.86-7.06,52-28.56,53.88-63.89a.37.37,0,0,1,.39-.35.38.38,0,0,1,.36.39c-1.92,35.71-20.24,57.44-54.48,64.59Z" style="fill:#407BFF"></path><g style="opacity:0.2"><path d="M384,383.14a.37.37,0,0,1-.37-.3.39.39,0,0,1,.29-.45c33.86-7.06,52-28.56,53.88-63.89a.37.37,0,0,1,.39-.35.38.38,0,0,1,.36.39c-1.92,35.71-20.24,57.44-54.48,64.59Z" style="fill:#fff"></path></g><path d="M340.59,342.79a30.44,30.44,0,0,1-8.62-1.23.37.37,0,0,1-.26-.46.39.39,0,0,1,.47-.26c19.66,5.77,40.5-10.19,51.55-27.45,9.83-15.36,11.56-30.58,4.42-38.77a.37.37,0,0,1,0-.53.38.38,0,0,1,.53,0c7.36,8.45,5.65,24-4.36,39.66C374.77,328.78,357.84,342.79,340.59,342.79Z" style="fill:#407BFF"></path><g style="opacity:0.2"><path d="M340.59,342.79a30.44,30.44,0,0,1-8.62-1.23.37.37,0,0,1-.26-.46.39.39,0,0,1,.47-.26c19.66,5.77,40.5-10.19,51.55-27.45,9.83-15.36,11.56-30.58,4.42-38.77a.37.37,0,0,1,0-.53.38.38,0,0,1,.53,0c7.36,8.45,5.65,24-4.36,39.66C374.77,328.78,357.84,342.79,340.59,342.79Z" style="fill:#fff"></path></g><path d="M357.19,304.76c-4.36,5.26-10.67,7.23-14.08,4.39s-2.66-9.39,1.71-14.65,10.66-7.23,14.08-4.4S361.55,299.5,357.19,304.76Z" style="fill:#407BFF"></path><path d="M357.19,304.76c-4.36,5.26-10.67,7.23-14.08,4.39s-2.66-9.39,1.71-14.65,10.66-7.23,14.08-4.4S361.55,299.5,357.19,304.76Z" style="fill:#fff;opacity:0.2"></path><path d="M439.08,328.51a54.23,54.23,0,0,0-.65-8.41c0-.52.08-1,.11-1.56a.38.38,0,0,0-.36-.39.14.14,0,0,0-.09,0,54.21,54.21,0,0,0-19.16-31.84c-.12-.25-.24-.5-.37-.75a.38.38,0,0,0-.51-.15.33.33,0,0,0-.13.11,53.89,53.89,0,0,0-29-11.1c-.08-.1-.14-.21-.22-.3a.38.38,0,0,0-.53,0,.37.37,0,0,0-.13.27c-1.07-.06-2.14-.1-3.23-.1A54.25,54.25,0,0,0,332,340.84a.38.38,0,0,0-.29.26.37.37,0,0,0,.26.46l.21.06a54.21,54.21,0,0,0,15.87,26.76.52.52,0,0,0-.1.18.38.38,0,0,0,.29.44l.63.12a54,54,0,0,0,34.75,13.61.41.41,0,0,0,0,.11.37.37,0,0,0,.37.3h.07c.59-.12,1.16-.26,1.74-.39A54.24,54.24,0,0,0,439.08,328.51Z" style="fill:#fff;opacity:0.4"></path></g><g id="freepik--character-2--inject-79"><rect x="380.1" y="286.79" width="4.73" height="130.92" transform="translate(764.93 704.5) rotate(180)" style="fill:#407BFF"></rect><rect x="380.1" y="372.62" width="4.73" height="45.09" transform="translate(764.93 790.33) rotate(180)" style="fill:#263238"></rect><rect x="383.63" y="286.79" width="1.2" height="130.92" transform="translate(768.46 704.5) rotate(180)" style="opacity:0.2"></rect><polygon points="383.63 286.79 380.1 286.79 380.1 372.62 380.1 417.71 383.63 417.71 384.83 417.71 384.83 372.62 384.83 286.79 383.63 286.79" style="fill:#fff;opacity:0.2"></polygon><rect x="176.7" y="286.79" width="4.73" height="130.92" transform="translate(358.14 704.5) rotate(180)" style="fill:#407BFF"></rect><rect x="176.7" y="372.62" width="4.73" height="45.09" transform="translate(358.14 790.33) rotate(180)" style="fill:#263238"></rect><rect x="180.23" y="286.79" width="1.2" height="130.92" transform="translate(361.67 704.5) rotate(180)" style="opacity:0.2"></rect><polygon points="180.23 286.79 176.7 286.79 176.7 372.62 176.7 417.71 180.23 417.71 181.44 417.71 181.44 372.62 181.44 286.79 180.23 286.79" style="fill:#fff;opacity:0.2"></polygon><path d="M149.2,285.35h259c.76,0,1.37.4,1.37.89v4.48c0,.48-.61.87-1.37.89h-259c-.75,0-1.34-.41-1.34-.88v-4.48C147.86,285.76,148.45,285.38,149.2,285.35Z" style="fill:#407BFF"></path><path d="M149.2,285.35h259c.76,0,1.37.4,1.37.89v4.48c0,.48-.61.87-1.37.89h-259c-.75,0-1.34-.41-1.34-.88v-4.48C147.86,285.76,148.45,285.38,149.2,285.35Z" style="fill:#fff;opacity:0.6000000000000001"></path><path d="M408.18,291.61h0c.78,0,1.41-.4,1.41-.89v-4.48c0-.49-.63-.89-1.41-.89h0c-.78,0-1.41.4-1.41.89v4.48C406.77,291.21,407.4,291.61,408.18,291.61Z" style="opacity:0.2"></path><path d="M409.52,291l0-.09a.3.3,0,0,0,0-.13.09.09,0,0,0,0,0v-4.48a.13.13,0,0,0,0-.06.25.25,0,0,0,0-.12l0-.09a.16.16,0,0,0,0-.07.94.94,0,0,0-.09-.12l0,0a.61.61,0,0,0-.16-.12h0a1.91,1.91,0,0,0-1-.27h-259c-.75,0-1.34.41-1.34.89v4.48c0,.47.59.86,1.34.88h27.5v126.1h4.74V291.61H380.1v126.1h4.73V291.61h23.39a1.91,1.91,0,0,0,1-.27h0l.17-.13,0,0a.94.94,0,0,0,.09-.12A.25.25,0,0,0,409.52,291Z" style="opacity:0.2"></path><rect x="89.24" y="411.32" width="317.28" height="6.39" transform="translate(495.76 829.03) rotate(180)" style="fill:#263238"></rect><rect x="89.24" y="411.32" width="317.28" height="6.39" style="fill:#fff;opacity:0.6000000000000001"></rect><rect x="334.39" y="411.32" width="72.13" height="6.39" style="opacity:0.2"></rect><polygon points="384.83 411.31 406.52 417.71 334.39 417.71 334.39 411.32 384.83 411.31" style="opacity:0.2"></polygon><path d="M311.15,280s3.31,8.49,3.21,9.5-.9,5.41-1.24,5.44-6.78-.89-6.78-.89l-2.15-7.57s0-4.42,1.43-6.49Z" style="fill:#ffb573"></path><path d="M307.31,215.28c2.56,4.75,6.14,11.13,8.51,15.91,2.88,5.93,6,11.54,7.24,18.26a4,4,0,0,1-.23,2.07c-1,2.48-1.87,5.07-2.83,7.66a219.35,219.35,0,0,1-9.71,23,2.5,2.5,0,0,1-4.65-1.7c2.61-10.65,5.25-21.44,8.33-32l-.2,2.25c-1.37-5.11-4.31-10.14-6.77-14.94-2.52-4.65-6.11-11.18-8.52-15.83-2.82-5.88,5.53-10.33,8.83-4.68Z" style="fill:#ffb573"></path><path d="M318.4,231.39l-11.81,7.23a110.06,110.06,0,0,1-7-11.36c-1.78-3.41-3.24-6.94-3.46-9.56a5.76,5.76,0,0,1,.16-2c2-6.78,10.57-6.91,14.89.6A130.91,130.91,0,0,1,318.4,231.39Z" style="fill:#263238"></path><path d="M305.2,236.61c-2.08-3.5-8.63-11.85-8.63-19.6,2.94.93,6.81,5,6.81,5C305.8,226.42,305.83,229.63,305.2,236.61Z" style="opacity:0.2"></path><polygon points="271.55 396.67 271.74 406.46 277.22 406.46 277.22 396.67 271.55 396.67" style="fill:#ffb573"></polygon><path d="M278.41,404.21l-7.32-.08a.57.57,0,0,0-.56.44l-1.35,5.78a1,1,0,0,0,.94,1.17c2.56,0,3.8-.16,7-.12,2,0,8.93.3,11.67.33s3.12-2.68,2-2.93c-5-1.15-9.76-2.72-11.35-4.18A1.55,1.55,0,0,0,278.41,404.21Z" style="fill:#263238"></path><path d="M282.17,404.39a.43.43,0,0,0,0-.16.51.51,0,0,0-.27-.46c-.72-.38-2.71.8-3.1,1a.17.17,0,0,0-.09.18.17.17,0,0,0,.14.15c.83.21,2.31.48,3-.07A.92.92,0,0,0,282.17,404.39Zm-2.78.5c.88-.49,2-1,2.34-.79,0,0,.07,0,.08.15a.63.63,0,0,1-.21.54A3,3,0,0,1,279.39,404.89Z" style="fill:#407BFF"></path><path d="M280.87,402.75a.71.71,0,0,0,0-.15.54.54,0,0,0-.51-.44.89.89,0,0,0-.68.2c-.78.62-.95,2.51-1,2.59a.17.17,0,0,0,.08.17.19.19,0,0,0,.19,0A4.36,4.36,0,0,0,280.87,402.75Zm-1.75,1.84a3.59,3.59,0,0,1,.78-1.94.49.49,0,0,1,.4-.12c.18,0,.19.09.2.13C280.57,403.05,279.78,404.08,279.12,404.59Z" style="fill:#407BFF"></path><path d="M258,282.09c6.88,21.72,13.9,47.43,18.27,55.17-2.39,4.82-4.38,39.2-6.53,61.83h8.93c5-22.73,13.65-57.3,13.64-62.61.28-5-13.4-66.26-13.4-66.26l-19-4.77Z" style="fill:#407BFF"></path><polygon points="266.26 309.56 272.85 329.53 290.84 326.1 286.35 304.3 266.26 309.56" style="fill:#263238"></polygon><polygon points="273.9 350.53 289.73 351.38 286.42 365.89 272.57 364.55 273.9 350.53" style="fill:#263238"></polygon><polygon points="273.53 354.46 273 360.04 287.48 361.24 288.81 355.41 273.53 354.46" style="fill:#fff;opacity:0.5"></polygon><polygon points="267.51 313.18 287.14 308.24 289.3 318.59 270.54 322.53 267.51 313.18" style="fill:#fff;opacity:0.5"></polygon><path d="M272.85,329.53c2.52-6.57,2.25-28.17.15-36.94-.56-3.33-3.12-8.18-4.88-11.54L263.56,301Z" style="opacity:0.2"></path><path d="M274.23,411.3a1,1,0,0,1-1-1l-.17-7.79a1.5,1.5,0,0,1,0-.2L284.18,341l-7.64-35.46a1,1,0,0,1,.77-1.19,1,1,0,0,1,1.18.76l7.68,35.66a1,1,0,0,1,0,.39L275.07,402.6l.16,7.68a1,1,0,0,1-1,1Z" style="fill:#263238"></path><g style="opacity:0.30000000000000004"><path d="M274.23,411.3a1,1,0,0,1-1-1l-.17-7.79a1.5,1.5,0,0,1,0-.2L284.18,341l-7.64-35.46a1,1,0,0,1,.77-1.19,1,1,0,0,1,1.18.76l7.68,35.66a1,1,0,0,1,0,.39L275.07,402.6l.16,7.68a1,1,0,0,1-1,1Z" style="fill:#fff"></path></g><path d="M287.93,341a2.74,2.74,0,1,1-2.73-2.74A2.73,2.73,0,0,1,287.93,341Z" style="fill:#263238"></path><path d="M287.93,341a2.74,2.74,0,1,1-2.73-2.74A2.73,2.73,0,0,1,287.93,341Z" style="fill:#fff;opacity:0.4"></path><path d="M286.56,341a1.37,1.37,0,1,1-1.36-1.36A1.36,1.36,0,0,1,286.56,341Z" style="fill:#263238"></path><path d="M286.56,341a1.37,1.37,0,1,1-1.36-1.36A1.36,1.36,0,0,1,286.56,341Z" style="fill:#fff;opacity:0.2"></path><circle cx="274.25" cy="401.92" r="1.63" style="fill:#263238"></circle><circle cx="274.25" cy="401.92" r="1.63" style="fill:#fff;opacity:0.4"></circle><path d="M275.24,401.92a1,1,0,1,1-1-1A1,1,0,0,1,275.24,401.92Z" style="fill:#263238"></path><path d="M275.24,401.92a1,1,0,1,1-1-1A1,1,0,0,1,275.24,401.92Z" style="fill:#fff;opacity:0.2"></path><polygon points="236.72 396.67 235.04 405.4 240.71 405.4 242.35 396.67 236.72 396.67" style="fill:#ffb573"></polygon><path d="M247,258.45l34.11,3.82-2.44,15.17-10.59,3.61c.76,20.19-4.94,53.21-5.64,57.52-.86,8-11.05,38.3-17.87,60h-10c4.15-22.11,8.26-53.3,12.47-60.66-1.39-7.36-3.06-31.52-4.69-52.56-.08-3.46,0-8.77,0-8.77C242.61,268.91,245,265.58,247,258.45Z" style="fill:#407BFF"></path><path d="M241.8,404.21l-7.33-.08a.58.58,0,0,0-.56.44l-1.34,5.78a1,1,0,0,0,.94,1.17c2.55,0,3.8-.16,7-.12,2,0,8.94.3,11.67.33s3.12-2.68,2-2.93c-5-1.15-9.77-2.72-11.36-4.18A1.53,1.53,0,0,0,241.8,404.21Z" style="fill:#263238"></path><path d="M245.56,404.39v-.16a.52.52,0,0,0-.28-.46c-.72-.38-2.71.8-3.1,1a.19.19,0,0,0-.09.18.17.17,0,0,0,.14.15c.83.21,2.32.48,3-.07A1,1,0,0,0,245.56,404.39Zm-2.79.5c.88-.49,2-1,2.34-.79,0,0,.07,0,.08.15a.63.63,0,0,1-.21.54A3,3,0,0,1,242.77,404.89Z" style="fill:#407BFF"></path><path d="M244.25,402.75a.71.71,0,0,0,0-.15.52.52,0,0,0-.51-.44.89.89,0,0,0-.68.2c-.77.62-1,2.51-1,2.59a.19.19,0,0,0,.08.17.19.19,0,0,0,.19,0A4.36,4.36,0,0,0,244.25,402.75Zm-1.74,1.84a3.58,3.58,0,0,1,.77-1.94.5.5,0,0,1,.4-.12c.18,0,.2.09.2.13C244,403.05,243.16,404.08,242.51,404.59Z" style="fill:#407BFF"></path><polygon points="243.99 308.44 245.85 329.59 264.05 329.59 266.83 307.58 243.99 308.44" style="fill:#263238"></polygon><polygon points="243.04 350.52 259.31 352.12 255.56 364.57 240.61 362.79 243.04 350.52" style="fill:#263238"></polygon><polygon points="244.44 313.53 245.23 322.53 264.98 322.26 266.14 312.67 244.44 313.53" style="fill:#fff;opacity:0.5"></polygon><polygon points="242.36 353.92 241.4 358.8 256.81 360.41 258.27 355.54 242.36 353.92" style="fill:#fff;opacity:0.5"></polygon><path d="M238.08,411H238a1,1,0,0,1-.94-1.06l.53-8.93a.64.64,0,0,1,0-.2l15.51-58.84-1.94-34.23a1,1,0,1,1,2-.11L255.16,342a1.09,1.09,0,0,1,0,.31L239.6,401.19l-.52,8.84A1,1,0,0,1,238.08,411Z" style="fill:#263238"></path><g style="opacity:0.30000000000000004"><path d="M238.08,411H238a1,1,0,0,1-.94-1.06l.53-8.93a.64.64,0,0,1,0-.2l15.51-58.84-1.94-34.23a1,1,0,1,1,2-.11L255.16,342a1.09,1.09,0,0,1,0,.31L239.6,401.19l-.52,8.84A1,1,0,0,1,238.08,411Z" style="fill:#fff"></path></g><path d="M256.9,341.83a2.74,2.74,0,1,1-2.74-2.74A2.74,2.74,0,0,1,256.9,341.83Z" style="fill:#263238"></path><path d="M256.9,341.83a2.74,2.74,0,1,1-2.74-2.74A2.74,2.74,0,0,1,256.9,341.83Z" style="fill:#fff;opacity:0.4"></path><circle cx="254.16" cy="341.83" r="1.4" style="fill:#263238"></circle><circle cx="254.16" cy="341.83" r="1.4" style="fill:#fff;opacity:0.2"></circle><circle cx="238.72" cy="401.04" r="1.63" style="fill:#263238"></circle><circle cx="238.72" cy="401.04" r="1.63" style="fill:#fff;opacity:0.4"></circle><circle cx="238.72" cy="401.04" r="0.85" style="fill:#263238"></circle><circle cx="238.72" cy="401.04" r="0.85" style="fill:#fff;opacity:0.2"></circle><path d="M281.15,264.61c-10.12,0-28.57-3.12-35.12-4.4,1.68-7.73,9.11-26.61,15.17-37.67a75.2,75.2,0,0,1,6-8.47c2-2.66-.58-.88,2.67-3.71,0,0,11.4-2.94,17.09-2.59a69.89,69.89,0,0,1,11.62,1.57,47.47,47.47,0,0,1,6.19,1.54s2.57.89,2.22,2.14C305.35,218.83,296.57,238.73,281.15,264.61Z" style="fill:#263238"></path><path d="M292.14,194.81c-1.31,4.36-4.53,12.26-9.57,14.65a29,29,0,0,1,9.33,9c2.85-2.42,5.33-4.8,6.23-7-5-1.84-2.93-5.33-.18-8.51Z" style="fill:#ffb573"></path><path d="M294.51,198.12l3.44,4.81a19.55,19.55,0,0,0-1.75,2.28c-2-.53-3.84-2.89-3-4.81A7.71,7.71,0,0,1,294.51,198.12Z" style="opacity:0.2"></path><path d="M277.28,220.89c1,11-5.92,19.32-14.27,16.68-.58-.36,0-3,0-3l3.5-7S276,220.7,277.28,220.89Z" style="opacity:0.2"></path><path d="M308.79,179.82c4.7,2.5,1.76,13.42-.53,14.32C304,195.84,303,176.73,308.79,179.82Z" style="fill:#263238"></path><path d="M292.19,187.78c-.17,6.47-.6,10.25,2.36,13.84,4.45,5.39,12.65,3.15,14.75-3.14,1.89-5.66,1.85-15.28-4.22-18.4A8.83,8.83,0,0,0,292.19,187.78Z" style="fill:#ffb573"></path><path d="M301.79,190.44c-.05.53.19,1,.53,1s.66-.37.71-.89-.2-1-.54-1S301.83,189.92,301.79,190.44Z" style="fill:#263238"></path><path d="M307.71,191c0,.53.19,1,.53,1s.66-.37.71-.9-.2-1-.54-1S307.75,190.44,307.71,191Z" style="fill:#263238"></path><path d="M305.8,191.06a19.08,19.08,0,0,0,2.11,4.7,3,3,0,0,1-2.54.25Z" style="fill:#ed893e"></path><path d="M301.32,196.53a.15.15,0,0,0,.05.3A4.15,4.15,0,0,1,305,198a.17.17,0,0,0,.22,0,.16.16,0,0,0,0-.22,4.37,4.37,0,0,0-3.84-1.3Z" style="fill:#263238"></path><path d="M300,187.75a.33.33,0,0,0,.24,0,2.46,2.46,0,0,1,2.23.2.31.31,0,1,0,.36-.5,3.08,3.08,0,0,0-2.8-.28.31.31,0,0,0-.18.4A.28.28,0,0,0,300,187.75Z" style="fill:#263238"></path><path d="M311.07,188.17a.16.16,0,0,0,.06-.08.31.31,0,0,0-.15-.41,3.1,3.1,0,0,0-2.82.06.31.31,0,0,0,.33.53,2.42,2.42,0,0,1,2.23,0A.29.29,0,0,0,311.07,188.17Z" style="fill:#263238"></path><path d="M306.47,176.91C301.56,173.27,296.9,175,295,175s-3.66.2-2.18.69c0,0-3-.2-4.51,1.27a2.16,2.16,0,0,1-2.94.3s-.18,1.58,2.26,1.77c0,0-1.79,4.12-4.05,3.34,0,0,1.38,2.45,2.75,2.16,0,0-.78,3.31-2,3.27a3,3,0,0,0,3.26,1.54,3.85,3.85,0,0,0-1.1,2.48,9.72,9.72,0,0,1,3.72,1.76h0c.89,1.7,1.87,2.87,2.78,2.87,2.66,0,4-5.53,3.2-10.84h0c-.13-1-.2-2.94.95-3.44,1.57-.69,11.12,1.91,12.38,1C309.52,183.19,311.39,180.54,306.47,176.91Z" style="fill:#263238"></path><path d="M288.66,194.62a6.14,6.14,0,0,0,3.58,3c2.06.65,3.15-1.18,2.64-3.15-.46-1.78-2.09-4.27-4.19-4A2.76,2.76,0,0,0,288.66,194.62Z" style="fill:#ffb573"></path><path d="M298.89,189s1,2.63,0,2.63S298.89,189,298.89,189Z" style="fill:#fff"></path><path d="M297.19,191.29s1,2.64,0,2.64S297.19,191.29,297.19,191.29Z" style="fill:#fff"></path><path d="M307,184.7s1.6,2.35.58,2.58S307,184.7,307,184.7Z" style="fill:#fff"></path><path d="M290.53,177.66s-.66-1.85,1.81-3.44,11.43-.78,13.77,1.35,4.71,1.31,4.77.21a2,2,0,0,1-.28,2.31s1.71.23,2.07,2.92a2.16,2.16,0,0,0-1.84.16,2.73,2.73,0,0,1,.24,2.6,3.26,3.26,0,0,0-1.75-1.31s-1.08,1.68-.65,2.24a5.23,5.23,0,0,1-3.55-1.64,2.77,2.77,0,0,0,.84,1.18s-6.28.45-7.72-2.14a2.45,2.45,0,0,0-.68,2.2,3.42,3.42,0,0,1-2.36-1.52,9.27,9.27,0,0,1-5.18,1.13,6.12,6.12,0,0,0,1-1s-3.22,1.17-4.89-.47a3.76,3.76,0,0,0,.73-1.27l-.83.24S286.77,177.13,290.53,177.66Z" style="fill:#263238"></path><rect x="311.14" y="286.79" width="4.73" height="130.92" transform="translate(627.02 704.5) rotate(180)" style="fill:#407BFF"></rect><rect x="311.14" y="372.62" width="4.73" height="45.09" transform="translate(627.02 790.33) rotate(180)" style="fill:#263238"></rect><rect x="314.67" y="286.79" width="1.2" height="130.92" transform="translate(630.55 704.5) rotate(180)" style="opacity:0.2"></rect><polygon points="314.67 286.79 311.14 286.79 311.14 372.62 311.14 417.71 314.67 417.71 315.88 417.71 315.88 372.62 315.88 286.79 314.67 286.79" style="fill:#fff;opacity:0.2"></polygon><rect x="107.75" y="286.79" width="4.73" height="130.92" transform="translate(220.23 704.5) rotate(180)" style="fill:#407BFF"></rect><rect x="107.75" y="372.62" width="4.73" height="45.09" transform="translate(220.23 790.33) rotate(180)" style="fill:#263238"></rect><rect x="111.28" y="286.79" width="1.2" height="130.92" transform="translate(223.76 704.5) rotate(180)" style="fill:#fff;opacity:0.2"></rect><polygon points="107.75 286.79 107.75 372.62 107.75 417.71 111.28 417.71 112.48 417.71 112.48 372.62 112.48 286.79 111.28 286.79 107.75 286.79" style="fill:#fff;opacity:0.2"></polygon><path d="M80.34,285.35h266c.82,0,1.47.4,1.47.89v4.48c0,.48-.65.87-1.47.89h-266c-.8,0-1.44-.41-1.44-.88v-4.48C78.9,285.76,79.54,285.38,80.34,285.35Z" style="fill:#407BFF"></path><path d="M80.34,285.35h266c.82,0,1.47.4,1.47.89v4.48c0,.48-.65.87-1.47.89h-266c-.8,0-1.44-.41-1.44-.88v-4.48C78.9,285.76,79.54,285.38,80.34,285.35Z" style="fill:#fff;opacity:0.6000000000000001"></path><path d="M346.31,291.61h0c.84,0,1.51-.4,1.51-.89v-4.48c0-.49-.67-.89-1.51-.89h0c-.83,0-1.51.4-1.51.89v4.48C344.8,291.21,345.48,291.61,346.31,291.61Z" style="opacity:0.4"></path><path d="M274.86,219.77c-6.22,9.7-14.35,21.76-18.23,31.19a1.46,1.46,0,0,0,0-.39c.18,1.79,1.27,4,2,5.88,1.2,2.78,2.53,5.64,3.75,8.57,2.46,5.85,4.77,12,5.68,18.6a2.49,2.49,0,0,1-4.81,1.17,107.86,107.86,0,0,0-7.9-16.33c-2.3-4.18-4.82-8.24-6.78-12.77-.84-2-1.72-4.54-1.09-7a60.65,60.65,0,0,1,4.19-10,243.51,243.51,0,0,1,14.8-24.49c3.82-5.31,11.75-.08,8.33,5.53Z" style="fill:#ffb573"></path><path d="M269.84,210.36c-8.58,1-16.65,20.21-16.65,20.21l11.68,6.28s7.23-6.3,11.43-13.64C280.73,215.48,277.06,209.55,269.84,210.36Z" style="fill:#263238"></path><path d="M267.55,281.05s3.24,8.33,3.14,9.31-.88,5.31-1.22,5.33-6.64-.86-6.64-.86l-2.11-7.42s0-4.33,1.41-6.36Z" style="fill:#ffb573"></path></g><g id="freepik--character-1--inject-79"><path d="M200.1,201.56c2.14,4.91,4.08,9.9,6.13,14.8,1.82,4.26,4,9.53,6.62,12.92l-5.71-.27c5.15-4.3,9.5-10.59,13.66-16l4.37-6a2.49,2.49,0,0,1,4.25,2.54A134.7,134.7,0,0,1,218,229.3a38.31,38.31,0,0,1-5.43,6.29,4.06,4.06,0,0,1-5.52-.09c-4.71-4.64-6.94-9.65-9.73-15.13-2.35-4.93-4.45-9.93-6.44-15-2.16-6.1,6.45-9.66,9.24-3.83Z" style="fill:#ce7a63"></path><path d="M210.55,214.58l-10.7,8s-.41-.45-1.09-1.23l-1.87-2.23c-4.16-5.07-10.24-14.31-10.28-18.84-.08-6.75,6.93-7.74,14.79-.84,3.4,3,5.17,7.92,6.89,11,.57,1,1.05,1.89,1.42,2.58C210.25,214,210.55,214.58,210.55,214.58Z" style="fill:#407BFF"></path><path d="M210.55,214.58l-10.7,8s-.41-.45-1.09-1.23l-1.87-2.23c-4.16-5.07-10.24-14.31-10.28-18.84-.08-6.75,6.93-7.74,14.79-.84,3.4,3,5.17,7.92,6.89,11,.57,1,1.05,1.89,1.42,2.58C210.25,214,210.55,214.58,210.55,214.58Z" style="fill:#fff;opacity:0"></path><path d="M186.53,201c2.42-1.6,4.19,2.54,9,6,2.14,1.56,6.8,11.72,6.42,14l-2.06,1.54S186.48,207.77,186.53,201Z" style="opacity:0.2"></path><path d="M199.42,260.91l-39.71.23c-.25-3.24-1.25-21.12-1.8-34.52-.38-9-1.09-19.05-.59-29.53a8,8,0,0,0-.5-2.18s1.83-.38,4.46-.76c2.19-.32,4.92-.65,7.61-.78a136.14,136.14,0,0,1,15.39,0c2.36.22,4.67.61,6.52,1,2.35.47,3.74.88,3.74.88S205.7,222.84,199.42,260.91Z" style="fill:#407BFF"></path><path d="M157.91,226.62c-.38-9-.59-18.76-.59-29.53,2.42-.21,6.56,0,7.24,3.94C165.3,205.23,161.36,215.11,157.91,226.62Z" style="opacity:0.2"></path><polygon points="196.38 212.11 186.84 212.5 186.53 207.13 196.08 206.76 196.38 212.11" style="fill:#fff"></polygon><path d="M158.39,252.35l8.54-1.48-4.38,9.88s-7.79,0-7.44-4.06Z" style="fill:#ce7a63"></path><polygon points="173.31 255.83 169.29 263.82 162.55 260.75 166.94 250.87 173.31 255.83" style="fill:#ce7a63"></polygon><path d="M169.22,176.11l4.12,3.42,5.6,4.66a17.94,17.94,0,0,0-.35,2.26c-.3,3,.48,5.81,5,6.87.69,1.46-1.45,7-3,6.68-2.48.34-11.73-4.69-12.29-6.59C171.65,190.1,170.36,181.07,169.22,176.11Z" style="fill:#ce7a63"></path><path d="M178.94,184.19a17.94,17.94,0,0,0-.35,2.26c-2.09-.42-4.89-2.65-5.18-4.79a9.3,9.3,0,0,1-.07-2.13Z" style="opacity:0.2"></path><path d="M183.42,158.94c3.45,1.56,5.37,11.27,1,13.36S176.89,156,183.42,158.94Z" style="fill:#263238"></path><path d="M167.69,169.44c1.48,6.8,2,10.84,6,13.95a9,9,0,0,0,14.63-6.51c.53-6.33-2-16.39-9.13-18.31A9.15,9.15,0,0,0,167.69,169.44Z" style="fill:#ce7a63"></path><path d="M165.21,162.16c-2.22,1.41-3.06,4.21-3,6.87.07,4.24,5.06,8.16,7.32,6.32,2-1,3.34-7,1.58-10.63,3.11-2,16.38-.65,16.38-.65-.71-2.64-1.11-5.41-3.95-7.16,0,0-3.57-2.21-6.94-2.09C169.37,155.09,165.65,156.43,165.21,162.16Z" style="fill:#263238"></path><path d="M166.13,176.54a7.43,7.43,0,0,0,4.31,2.56c2.15.37,2.63-1.62,1.54-3.53-1-1.73-3.28-4-5.19-3.5S164.74,174.87,166.13,176.54Z" style="fill:#ce7a63"></path><path d="M178.42,170.12c.09.56.45,1,.82.93s.59-.53.51-1.09-.46-1-.82-.93S178.33,169.56,178.42,170.12Z" style="fill:#263238"></path><path d="M184.75,169.37c.09.55.45,1,.82.93s.59-.53.51-1.09-.46-1-.82-.93S184.66,168.81,184.75,169.37Z" style="fill:#263238"></path><path d="M182.78,169.88a21,21,0,0,0,3.41,4.45,3.21,3.21,0,0,1-2.6.82Z" style="fill:#ba4d3c"></path><path d="M176.15,168.32a.3.3,0,0,1-.16,0,.33.33,0,0,1-.13-.45,3.16,3.16,0,0,1,2.48-1.67.32.32,0,0,1,.34.31.33.33,0,0,1-.31.35,2.5,2.5,0,0,0-1.93,1.34A.34.34,0,0,1,176.15,168.32Z" style="fill:#263238"></path><path d="M187.14,166.87a.35.35,0,0,1-.28-.14,2.8,2.8,0,0,0-2.09-1.27.33.33,0,0,1,0-.66h0a3.42,3.42,0,0,1,2.64,1.56.34.34,0,0,1-.09.46A.29.29,0,0,1,187.14,166.87Z" style="fill:#263238"></path><path d="M178.54,187h-8.13a15.24,15.24,0,0,1-.63,3.8h9.61A6.21,6.21,0,0,1,178.54,187Z" style="fill:#ce7a63"></path><path d="M183.52,176.65a19.31,19.31,0,0,0-.88,2.56l-.47-.05c-2.15-.23-3.07-1-3.44-1.88a2.75,2.75,0,0,1-.2-1.31,2.59,2.59,0,0,1,.14-.74,10.05,10.05,0,0,0,4.12,1.33C183.24,176.63,183.52,176.65,183.52,176.65Z" style="fill:#263238"></path><path d="M182.79,176.56l-.28.75c-2-.23-3.41-.65-4-1.34a2.59,2.59,0,0,1,.14-.74A10.05,10.05,0,0,0,182.79,176.56Z" style="fill:#fff"></path><path d="M182.17,179.16c-2.15-.23-3.07-1-3.44-1.88a6.67,6.67,0,0,1,2.34.73A2.67,2.67,0,0,1,182.17,179.16Z" style="fill:#de5753"></path><path d="M163.53,205.29c-7.33,8.55-14.76,17.35-20.68,26.87l.35-3.59a1.42,1.42,0,0,1,.08.18c3.37,6.62,7.94,12.68,12.34,18.66,1.13,1.51,2.41,3.09,3.63,4.54.35.54,1.06.73.8,1.88a4.86,4.86,0,0,1-4,4c-1.19.18-1.41-.6-2-1a127.66,127.66,0,0,1-17.85-22.9A18.62,18.62,0,0,1,135,231.4a3.83,3.83,0,0,1,.34-3.59,180.56,180.56,0,0,1,15-22.12q2.72-3.48,5.53-6.86c4.41-5,11.86,1.26,7.63,6.46Z" style="fill:#ce7a63"></path><path d="M164.28,208.84A128,128,0,0,1,155.61,221c-.69.88-1.32,1.66-1.83,2.29l-1.45,1.76L140.55,214.7l.81-1.41c.39-.66.89-1.53,1.5-2.53,3.63-5.87,10.67-16.22,15.28-15.89C165,195.36,168.75,201.41,164.28,208.84Z" style="fill:#407BFF"></path><path d="M164.28,208.84A128,128,0,0,1,155.61,221c-.69.88-1.32,1.66-1.83,2.29l-1.45,1.76L140.55,214.7l.81-1.41c.39-.66.89-1.53,1.5-2.53,3.63-5.87,10.67-16.22,15.28-15.89C165,195.36,168.75,201.41,164.28,208.84Z" style="fill:#fff;opacity:0"></path><path d="M200.38,214.7s2.59-.74,5.29-7.32,6.67-14.64,8.5-14.59l16.89.54L218.22,215Z" style="fill:#407BFF"></path><path d="M200.38,214.7s2.59-.74,5.29-7.32,6.67-14.64,8.5-14.59l16.89.54L218.22,215Z" style="fill:#fff;opacity:0.7000000000000001"></path><path d="M201.94,217.27l12.55-23.59a1,1,0,0,1,.84-.51h17.32a.42.42,0,0,1,.37.62l-12.71,22.6a.93.93,0,0,1-.77.49l-17.21,1A.42.42,0,0,1,201.94,217.27Z" style="fill:#407BFF"></path><path d="M201.94,217.27l12.55-23.59a1,1,0,0,1,.84-.51h17.32a.42.42,0,0,1,.37.62l-12.71,22.6a.93.93,0,0,1-.77.49l-17.21,1A.42.42,0,0,1,201.94,217.27Z" style="opacity:0.2"></path><path d="M224.5,192.3c-.2,0-.44.2-.61.41l.7,0C224.66,192.55,224.7,192.33,224.5,192.3Z" style="fill:none"></path><path d="M225.1,192.75c.05-.34.05-.93-.58-1s-1.06.52-1.34.91c-.9,0-1.74,0-2.33,0a.3.3,0,0,0-.29.19l-.72,1.65a.48.48,0,0,0,.44.66l5.87-.09a1.15,1.15,0,0,0,1-.63l.62-1.26a.25.25,0,0,0-.22-.36Zm-.6-.45c.2,0,.16.25.09.43l-.7,0C224.06,192.5,224.3,192.26,224.5,192.3Z" style="fill:#263238"></path><path d="M229.38,209.51l2.52-9.77-9.66.75s-.89,9.54,2,10.4Z" style="fill:#ce7a63"></path><polygon points="226.84 192.28 220.26 194.54 222.24 200.49 231.9 199.75 226.84 192.28" style="fill:#ce7a63"></polygon><polygon points="200.79 403.91 201.47 414.3 206.7 414.3 206.02 403.91 200.79 403.91" style="fill:#ce7a63"></polygon><path d="M207,410.87h-6.87a.43.43,0,0,0-.45.42l-.34,5.43a1.09,1.09,0,0,0,1.07,1.09c2.39-.05,3.53-.19,6.55-.19,1.86,0,9.76.2,12.33.2s2.49-2.54,1.4-2.77c-4.87-1-10.92-2.45-12.64-3.81A1.75,1.75,0,0,0,207,410.87Z" style="fill:#263238"></path><path d="M199.39,407.92h9c-2.23-23.14-2.58-66.12-3.38-73.93l-6.38-67.32.4-5.74H170.63c6.48,23.41,13.5,72.28,18.19,83.5C189,363.63,196.33,383.37,199.39,407.92Z" style="fill:#407BFF"></path><path d="M199.39,407.92h9c-2.23-23.14-2.58-66.12-3.38-73.93l-6.38-67.32.4-5.74H170.63c6.48,23.41,13.5,72.28,18.19,83.5C189,363.63,196.33,383.37,199.39,407.92Z" style="opacity:0.2"></path><polygon points="158.17 405.15 157.8 413.83 162.82 413.83 164.38 404.33 158.17 405.15" style="fill:#ce7a63"></polygon><path d="M163.93,410.87h-6.87a.43.43,0,0,0-.45.42l-.33,5.43a1.08,1.08,0,0,0,1.07,1.09c2.39-.05,3.53-.19,6.55-.19,1.86,0,9.75.2,12.32.2s2.49-2.54,1.4-2.77c-4.87-1-10.91-2.45-12.64-3.81A1.75,1.75,0,0,0,163.93,410.87Z" style="fill:#263238"></path><path d="M185.68,290.7s7.25,22,7.25,35.34a110.39,110.39,0,0,1-3.66,26.27l-.45-7.88c-2.44-5.89-3.24-12.44-8-34Z" style="opacity:0.2"></path><path d="M161.36,261.15l34.4-.22.06,18.32-8.77,3.17-10,61c-.74,8.82-5.61,38-10.37,64.4l-10.3-.89c2-24.48.53-43.38,3.58-64.52-2.68-17.83-1.55-33.77-1-56.06C157.06,271.52,159.67,262.91,161.36,261.15Z" style="fill:#407BFF"></path><path d="M161.36,261.15l34.4-.22.06,18.32-8.77,3.17-10,61c-.74,8.82-5.61,38-10.37,64.4l-10.3-.89c2-24.48.53-43.38,3.58-64.52-2.68-17.83-1.55-33.77-1-56.06C157.06,271.52,159.67,262.91,161.36,261.15Z" style="opacity:0.2"></path></g></svg>
