<svg xmlns="http://www.w3.org/2000/svg" viewBox="0 0 500 500"><g id="freepik--background-complete--inject-8"><path d="M456.68,142.76c-2.52-1.9-6.2-2.12-8.92-.52-3.62-7.31-13.69-10.53-20.88-6.68-1.88-7.88-9.63-13.93-17.73-13.83-8.09,.1-15.71,6.34-17.39,14.25-.27,1.26-.44,2.64-1.35,3.56-1.46,1.49-3.9,.99-5.99,.83-6.56-.51-13.15,4.09-14.93,10.42l90.28-.33c.79-3.06-.57-5.79-3.09-7.69Z" style="fill:#e0e0e0;"></path><path d="M128.97,430.05c-2.52-1.9-6.2-2.12-8.92-.52-3.62-7.31-13.69-10.53-20.88-6.68-1.88-7.88-9.63-13.93-17.73-13.83-8.1,.1-15.71,6.34-17.39,14.25-.27,1.26-.44,2.64-1.35,3.56-1.46,1.49-3.9,.99-5.99,.83-6.56-.51-13.15,4.09-14.93,10.42l90.28-.33c.79-3.06-.57-5.79-3.09-7.69Z" style="fill:#e0e0e0;"></path><path d="M268.36,398.8c-1.26-.95-3.1-1.06-4.46-.26-1.81-3.65-6.85-5.27-10.44-3.34-.94-3.94-4.82-6.96-8.86-6.92-4.05,.05-7.85,3.17-8.7,7.13-.13,.63-.22,1.32-.67,1.78-.73,.75-1.95,.5-2.99,.41-3.28-.26-6.58,2.05-7.47,5.21l45.14-.16c.4-1.53-.29-2.9-1.54-3.85Z" style="fill:#e0e0e0;"></path><path d="M112.17,331.41c-1.26-.95-3.1-1.06-4.46-.26-1.81-3.65-6.85-5.27-10.44-3.34-.94-3.94-4.82-6.96-8.86-6.92-4.05,.05-7.85,3.17-8.7,7.13-.13,.63-.22,1.32-.67,1.78-.73,.75-1.95,.5-2.99,.41-3.28-.26-6.58,2.05-7.47,5.21l45.14-.16c.4-1.53-.29-2.9-1.54-3.85Z" style="fill:#f0f0f0;"></path><path d="M461.3,276.18c-1.26-.95-3.1-1.06-4.46-.26-1.81-3.65-6.85-5.27-10.44-3.34-.94-3.94-4.82-6.96-8.86-6.92-4.05,.05-7.85,3.17-8.7,7.13-.13,.63-.22,1.32-.67,1.78-.73,.75-1.95,.5-2.99,.41-3.28-.26-6.58,2.05-7.47,5.21l45.14-.16c.4-1.53-.29-2.9-1.54-3.85Z" style="fill:#f0f0f0;"></path><path d="M322.82,87.51c-1.26-.95-3.1-1.06-4.46-.26-1.81-3.65-6.85-5.27-10.44-3.34-.94-3.94-4.82-6.96-8.86-6.92-4.05,.05-7.85,3.17-8.7,7.13-.13,.63-.22,1.32-.67,1.78-.73,.75-1.95,.5-2.99,.41-3.28-.26-6.58,2.05-7.47,5.21l45.14-.16c.4-1.53-.29-2.9-1.54-3.85Z" style="fill:#f0f0f0;"></path><path d="M130.62,163.19c-1.26-.95-3.1-1.06-4.46-.26-1.81-3.65-6.85-5.27-10.44-3.34-.94-3.94-4.82-6.96-8.86-6.92-4.05,.05-7.85,3.17-8.7,7.13-.13,.63-.22,1.32-.67,1.78-.73,.75-1.95,.5-2.99,.41-3.28-.26-6.58,2.05-7.47,5.21l45.14-.16c.4-1.53-.29-2.9-1.54-3.85Z" style="fill:#f0f0f0;"></path><path d="M424.9,56.95c-1.26-.95-3.1-1.06-4.46-.26-1.81-3.65-6.85-5.27-10.44-3.34-.94-3.94-4.82-6.96-8.86-6.92-4.05,.05-7.85,3.17-8.7,7.13-.13,.63-.22,1.32-.67,1.78-.73,.75-1.95,.5-2.99,.41-3.28-.26-6.58,2.05-7.47,5.21l45.14-.16c.4-1.53-.29-2.9-1.54-3.85Z" style="fill:#f0f0f0;"></path><g><g><g><path d="M443.92,362.22h-180.75c-3.23,0-5.86-2.63-5.86-5.86V93.08c0-3.23,2.63-5.86,5.86-5.86h180.75c3.23,0,5.86,2.63,5.86,5.86V356.36c0,3.23-2.63,5.86-5.86,5.86ZM263.17,87.47c-3.09,0-5.61,2.52-5.61,5.61V356.36c0,3.09,2.52,5.61,5.61,5.61h180.75c3.09,0,5.61-2.52,5.61-5.61V93.08c0-3.09-2.52-5.61-5.61-5.61h-180.75Z" style="fill:#e0e0e0;"></path><path d="M235.49,362.22H54.75c-3.23,0-5.86-2.63-5.86-5.86V93.08c0-3.23,2.63-5.86,5.86-5.86H235.49c3.23,0,5.86,2.63,5.86,5.86V356.36c0,3.23-2.63,5.86-5.86,5.86ZM54.75,87.47c-3.09,0-5.61,2.52-5.61,5.61V356.36c0,3.09,2.52,5.61,5.61,5.61H235.49c3.09,0,5.61-2.52,5.61-5.61V93.08c0-3.09-2.52-5.61-5.61-5.61H54.75Z" style="fill:#e0e0e0;"></path></g><rect x="0" y="423.29" width="500" height=".25" style="fill:#e0e0e0;"></rect></g><rect x="51.67" y="437.55" width="16.06" height=".25" style="fill:#e0e0e0;"></rect><rect x="170.35" y="434.84" width="53.53" height=".25" style="fill:#e0e0e0;"></rect><rect x="68.73" y="446.84" width="36.25" height=".25" style="fill:#e0e0e0;"></rect><rect x="378.35" y="434.71" width="43.19" height=".25" style="fill:#e0e0e0;"></rect><rect x="430.45" y="434.71" width="6.33" height=".25" style="fill:#e0e0e0;"></rect><rect x="316.21" y="440.94" width="53.89" height=".25" style="fill:#e0e0e0;"></rect></g><g><path d="M109.29,85.26c-2.31-3.91-4.9-7.79-8.58-10.46-5.49-3.99-12.61-4.74-19.34-5.57-14.64-1.79-29.17-4.54-43.46-8.21-2.77-.71-5.01,2.28-3.57,4.75,1.6,2.75,3.38,5.38,5.54,7.71,3.87,4.18,9.19,7.35,14.88,7.37-2.02,.45-4.16,.96-5.42,2.79-.64,.93-.81,2.13-.31,3.14,.83,1.67,2.88,1.8,4.63,1.78l10.35-.11c-2.49,.98-3.77,4.12-2.96,6.67,.81,2.55,3.4,4.33,6.07,4.49,2.35,.14,4.69-.85,6.42-2.46-1.16,1.56-.92,4.07,.46,5.53,1.61,1.7,4.27,2.07,6.52,1.44s4.16-2.14,5.84-3.76c1.37,2.21,4,3.58,6.6,3.44s5.06-1.79,6.18-4.14c1.65,3.82,7.23,5.22,10.49,2.62,2.71,3.32,5.42,6.65,8.13,9.97l.95-7.73c-2.63-6.66-5.78-13.1-9.42-19.26Z" style="fill:#ebebeb;"></path><path d="M191.49,72.43c1.71-4.21,3.7-8.43,6.94-11.62,4.84-4.76,11.77-6.56,18.31-8.37,14.22-3.94,28.18-8.81,41.77-14.56,2.64-1.11,5.29,1.51,4.24,4.17-1.18,2.96-2.55,5.82-4.34,8.45-3.21,4.7-8,8.63-13.62,9.49,2.07,.15,4.26,.34,5.78,1.96,.77,.82,1.12,1.99,.77,3.06-.57,1.78-2.58,2.2-4.31,2.44-3.42,.47-6.84,.95-10.25,1.42,2.61,.61,4.33,3.51,3.91,6.15-.42,2.64-2.72,4.78-5.34,5.34-2.31,.49-4.76-.15-6.72-1.48,1.37,1.37,1.52,3.89,.36,5.54-1.34,1.92-3.91,2.68-6.23,2.38-2.32-.3-4.43-1.5-6.33-2.85-1.03,2.39-3.43,4.13-6.02,4.38-2.59,.24-5.27-1.02-6.73-3.18-1.07,4.03-6.38,6.23-9.99,4.15-2.19,3.69-4.38,7.38-6.57,11.07l-2.09-7.5c1.61-6.97,3.77-13.81,6.46-20.44Z" style="fill:#ebebeb;"></path><circle cx="149.52" cy="96.4" r="39.84" transform="translate(29.64 227.85) rotate(-80.45)" style="fill:#e0e0e0;"></circle><circle cx="150.51" cy="87.49" r="39.84" transform="translate(47.87 228.11) rotate(-84.04)" style="fill:#ebebeb;"></circle><circle cx="150.51" cy="87.49" r="36.59" transform="translate(-17.78 132.05) rotate(-45)" style="fill:#fafafa;"></circle><g><path d="M145.7,55.24l.52,4.34-.81,.1-.44-3.66-.92,.11-.08-.68,1.72-.21Z" style="fill:#e0e0e0;"></path><path d="M150.15,58.42l.08,.68-3.2,.38-.06-.54,1.53-1.84c.17-.21,.28-.39,.34-.53,.05-.15,.07-.29,.05-.42-.02-.2-.11-.35-.26-.44-.15-.09-.36-.12-.62-.09-.44,.05-.76,.25-.96,.58l-.62-.37c.14-.25,.35-.45,.62-.61,.27-.16,.59-.26,.94-.3,.47-.06,.86,0,1.17,.2,.31,.19,.48,.48,.53,.86,.03,.24,0,.46-.07,.68-.07,.22-.24,.48-.48,.78l-1.03,1.24,2.04-.25Z" style="fill:#e0e0e0;"></path></g><path d="M154.4,117.01c.24,.08,.44,.22,.59,.4,.15,.19,.24,.41,.28,.68,.03,.28,0,.54-.12,.77-.12,.23-.29,.42-.51,.56-.23,.14-.49,.23-.78,.27-.59,.07-1.08-.06-1.45-.39-.37-.33-.6-.85-.69-1.54-.06-.49-.02-.91,.12-1.28,.14-.37,.35-.66,.65-.88,.3-.22,.66-.35,1.08-.4,.22-.03,.43-.03,.64,0,.2,.02,.38,.07,.54,.15l-.22,.64c-.23-.11-.51-.15-.85-.11-.42,.05-.73,.22-.93,.5-.2,.28-.28,.67-.22,1.15h0c.11-.16,.26-.29,.45-.39,.19-.1,.41-.16,.66-.2,.29-.03,.55-.01,.79,.07Zm-.08,1.78c.14-.15,.2-.34,.17-.56-.03-.23-.13-.4-.3-.51-.17-.11-.39-.15-.66-.12-.26,.03-.46,.13-.61,.29-.15,.16-.21,.35-.18,.56,.03,.21,.13,.38,.3,.5,.18,.12,.4,.16,.68,.13,.25-.03,.45-.12,.59-.28Z" style="fill:#e0e0e0;"></path><path d="M162.55,58.54l.52,4.34-.81,.1-.44-3.66-.92,.11-.08-.68,1.72-.21Z" style="fill:#e0e0e0;"></path><path d="M169.21,110.9c.32,.2,.51,.51,.56,.92,.03,.26,0,.5-.11,.73-.1,.23-.27,.42-.52,.57-.24,.16-.55,.25-.93,.3-.31,.04-.61,.03-.91-.02-.3-.05-.56-.15-.78-.28l.27-.67c.18,.11,.38,.19,.62,.24s.47,.06,.71,.03c.28-.03,.5-.12,.65-.26,.15-.14,.21-.31,.19-.52-.03-.22-.13-.38-.32-.47-.19-.09-.5-.11-.92-.06l-1.05,.13-.06-2.39,2.55-.31,.08,.68-1.86,.22,.03,1.01,.41-.05c.61-.07,1.08,0,1.4,.19Z" style="fill:#e0e0e0;"></path><g><path d="M131.74,62.25l.52,4.34-.81,.1-.44-3.66-.92,.11-.08-.68,1.72-.21Z" style="fill:#e0e0e0;"></path><path d="M134.1,61.96l.52,4.34-.81,.1-.44-3.66-.92,.11-.08-.68,1.72-.21Z" style="fill:#e0e0e0;"></path></g><g><path d="M137.8,112.61l.52,4.34-.81,.1-.44-3.66-.92,.11-.08-.68,1.72-.21Z" style="fill:#e0e0e0;"></path><path d="M140.16,112.33l.52,4.34-.81,.1-.44-3.66-.92,.11-.08-.68,1.72-.21Z" style="fill:#e0e0e0;"></path></g><path d="M175.06,70.32l.08,.68-3.2,.38-.06-.54,1.53-1.84c.17-.21,.28-.39,.33-.53,.05-.15,.07-.29,.05-.42-.02-.2-.11-.35-.26-.44-.15-.09-.36-.12-.62-.09-.44,.05-.76,.25-.96,.58l-.62-.37c.14-.25,.35-.45,.62-.61,.27-.16,.59-.26,.94-.31,.47-.06,.86,0,1.17,.2,.31,.19,.48,.48,.53,.86,.03,.23,0,.46-.07,.68-.07,.22-.24,.48-.49,.78l-1.03,1.24,2.04-.25Z" style="fill:#e0e0e0;"></path><path d="M179.49,99.87l-.77,.09,.12,.99-.78,.09-.12-.99-2.38,.29-.07-.56,1.8-3.05,.86-.1-1.69,2.91,1.42-.17-.11-.87,.76-.09,.11,.87,.77-.09,.08,.68Z" style="fill:#e0e0e0;"></path><g><path d="M123.12,72.86l.52,4.34-.81,.1-.44-3.66-.92,.11-.08-.68,1.72-.21Z" style="fill:#e0e0e0;"></path><path d="M125.36,76.79c-.29-.14-.54-.37-.74-.69-.2-.32-.32-.71-.38-1.17-.06-.46-.02-.87,.09-1.23,.12-.35,.3-.64,.55-.84,.25-.21,.55-.33,.9-.38,.35-.04,.67,0,.96,.15,.3,.14,.54,.37,.74,.69,.2,.32,.32,.71,.38,1.17,.06,.46,.03,.87-.09,1.23-.12,.35-.3,.64-.56,.84-.25,.21-.55,.33-.9,.38-.35,.04-.67,0-.96-.15Zm1.56-1.02c.15-.28,.19-.67,.13-1.18-.06-.51-.2-.88-.41-1.12-.21-.23-.47-.33-.78-.3-.31,.04-.53,.19-.68,.47-.15,.28-.19,.67-.13,1.18,.06,.51,.2,.88,.41,1.11,.21,.23,.47,.33,.77,.3,.31-.04,.54-.19,.69-.47Z" style="fill:#e0e0e0;"></path></g><path d="M128.86,105.01c.14,.16,.23,.36,.26,.59,.03,.26-.01,.5-.14,.72-.12,.22-.31,.39-.57,.53-.26,.14-.56,.23-.92,.27-.35,.04-.67,.03-.95-.05-.28-.07-.5-.2-.67-.38-.17-.18-.27-.4-.3-.67-.03-.24,0-.45,.11-.64,.1-.19,.25-.35,.46-.48-.18-.07-.33-.18-.44-.33-.11-.14-.18-.32-.2-.52-.03-.24,.01-.46,.12-.66,.11-.2,.28-.36,.52-.49,.23-.13,.51-.21,.82-.25,.32-.04,.61-.02,.87,.05,.26,.07,.46,.19,.62,.35,.16,.17,.25,.37,.28,.61,.02,.2,0,.38-.08,.55-.08,.16-.2,.31-.36,.43,.24,.08,.43,.19,.57,.35Zm-2.4-1.48c-.13,.12-.19,.28-.17,.48,.02,.19,.11,.32,.27,.42,.16,.09,.37,.12,.62,.09,.26-.03,.45-.11,.59-.24,.14-.13,.19-.29,.17-.47-.02-.2-.12-.34-.28-.43-.16-.09-.37-.12-.62-.09-.25,.03-.44,.11-.58,.23Zm1.65,2.69c.16-.14,.22-.33,.2-.54-.03-.21-.13-.37-.32-.48-.19-.1-.43-.14-.73-.1-.3,.04-.52,.13-.68,.27-.15,.14-.22,.32-.19,.54,.03,.22,.13,.38,.32,.48,.18,.1,.43,.14,.72,.1,.3-.04,.52-.13,.68-.27Z" style="fill:#e0e0e0;"></path><path d="M180.49,83.48c.24,.2,.38,.46,.42,.8,.03,.25,0,.49-.11,.71-.1,.22-.28,.41-.52,.56-.24,.15-.55,.25-.92,.3-.31,.04-.61,.03-.91-.02-.3-.06-.56-.15-.78-.28l.27-.67c.17,.11,.38,.2,.61,.25,.23,.05,.47,.06,.71,.03,.29-.03,.5-.12,.65-.26,.15-.14,.21-.31,.19-.51-.02-.2-.12-.35-.29-.45-.17-.09-.41-.12-.73-.09l-.4,.05-.07-.55,.84-1.29-1.97,.24-.08-.68,2.96-.36,.06,.54-.9,1.38c.41,0,.73,.1,.97,.3Z" style="fill:#e0e0e0;"></path><path d="M122.04,88.79c.37,.33,.6,.85,.68,1.54,.06,.49,.02,.91-.12,1.28-.14,.37-.35,.66-.65,.88-.3,.22-.66,.35-1.08,.4-.22,.03-.44,.03-.64,0-.2-.02-.38-.07-.54-.15l.22-.64c.23,.11,.52,.15,.85,.11,.42-.05,.73-.22,.93-.5,.21-.28,.28-.67,.22-1.15h0c-.11,.16-.26,.29-.45,.39-.19,.1-.41,.17-.66,.2-.28,.03-.55,0-.79-.07-.24-.08-.44-.22-.59-.4-.15-.19-.25-.41-.28-.68-.03-.28,0-.54,.12-.77,.11-.23,.29-.42,.51-.56,.23-.14,.49-.23,.78-.27,.59-.07,1.08,.06,1.45,.39Zm-.53,1.42c.15-.16,.21-.35,.18-.56-.02-.21-.13-.38-.3-.49-.18-.12-.4-.16-.69-.13-.25,.03-.45,.12-.59,.27s-.2,.34-.17,.56c.03,.23,.13,.4,.3,.51,.17,.11,.39,.16,.66,.12,.26-.03,.46-.13,.61-.29Z" style="fill:#e0e0e0;"></path><polygon points="149.75 87.66 147.71 64 148.83 63.87 152.99 87.27 149.75 87.66" style="fill:#e0e0e0;"></polygon><polygon points="150.15 89.22 137.82 79.58 138.47 78.66 152.02 86.55 150.15 89.22" style="fill:#e0e0e0;"></polygon><polygon points="144.6 93.4 168.55 75.7 145.24 94.12 144.6 93.4" style="fill:#e6e6e6;"></polygon><path d="M154.78,87.06c.23,1.88-1.12,3.59-3,3.82-1.88,.23-3.59-1.12-3.82-3-.23-1.88,1.12-3.59,3-3.82,1.88-.23,3.59,1.12,3.82,3Z" style="fill:#e0e0e0;"></path><path d="M127.65,125.28s-4.91,13.01-2.73,12.93c2.18-.08,8.6-9.67,8.6-9.67,0,0-1.32-4.2-5.87-3.26Z" style="fill:#ebebeb;"></path><path d="M181.3,117.62s7.86,11.48,5.72,11.91c-2.13,.44-10.65-7.35-10.65-7.35,0,0,.28-4.39,4.93-4.56Z" style="fill:#ebebeb;"></path><path d="M105.4,72.02c.2-.31,24.2-27.94,24.2-27.94,0,0-11.39-7.69-22.04,5.78-10.64,13.47-2.17,22.16-2.17,22.16Z" style="fill:#f0f0f0;"></path><path d="M129.6,44.09c1.23,1.05-3.51,7.98-10.14,15.7-6.63,7.72-13,13.13-14.22,12.08-1.23-1.05,3.15-8.17,9.78-15.89,6.63-7.72,13.36-12.94,14.59-11.89Z" style="fill:#e0e0e0;"></path><rect x="113.47" y="49.59" width="5.48" height="14.01" transform="translate(-2.42 107.93) rotate(-49.37)" style="fill:#f0f0f0;"></rect><path d="M112.65,49.74c.26,2.15-1.27,4.09-3.42,4.35-2.15,.26-4.09-1.27-4.35-3.42-.26-2.15,1.27-4.09,3.42-4.35s4.09,1.27,4.35,3.42Z" style="fill:#f0f0f0;"></path><g style="opacity:.4;"><path d="M107.59,50.23l-1.95,2.33c-.26,.42-4.75,8.74,.63,15.42,1.43-2.53,3.17-5.05,5.12-7.57-2.57-1.6-5.66-4.76-3.8-10.19Z" style="fill:#fff;"></path></g><polygon points="113.45 57.84 117.04 53.7 118.06 54.57 114.71 58.92 113.45 57.84" style="fill:#e0e0e0;"></polygon><polygon points="105.64 52.56 110.51 46.7 110.04 46.51 105.34 52.08 105.64 52.56" style="fill:#e0e0e0;"></polygon><g><path d="M153.16,39.96c.35,.1,33.77,15.04,33.77,15.04,0,0,4.05-13.14-11.93-19.41-15.98-6.27-21.83,4.36-21.83,4.36Z" style="fill:#f0f0f0;"></path><path d="M186.92,55.01c-.65,1.48-8.65-1.05-17.97-5.14-9.32-4.1-16.34-8.62-15.69-10.1,.65-1.48,8.73,.64,18.05,4.74,9.32,4.1,16.26,9.02,15.61,10.5Z" style="fill:#e0e0e0;"></path><rect x="168.32" y="38.82" width="5.48" height="14.01" transform="translate(32.93 -65) rotate(23.74)" style="fill:#f0f0f0;"></rect><path d="M176.59,40.43c-1.98,.87-4.29-.03-5.16-2.01-.87-1.98,.03-4.29,2.01-5.16,1.98-.87,4.29,.03,5.16,2.01,.87,1.98-.03,4.29-2.01,5.16Z" style="fill:#f0f0f0;"></path><g style="opacity:.4;"><path d="M174.65,35.73l-2.8-1.19c-.48-.13-9.74-2-14.58,5.08,2.83,.63,5.75,1.57,8.73,2.7,.79-2.92,2.91-6.8,8.64-6.6Z" style="fill:#fff;"></path></g><polygon points="169.07 43.54 174.08 45.78 173.54 47.01 168.4 45.06 169.07 43.54" style="fill:#e0e0e0;"></polygon><polygon points="171.85 34.54 178.87 37.5 178.92 36.99 172.22 34.11 171.85 34.54" style="fill:#e0e0e0;"></polygon></g><path d="M119.24,62.81s2.67-3.01,3.72-4.04l-.43-.37-3.67,4.08,.38,.33Z" style="fill:#e0e0e0;"></path><path d="M60.98,77.94s23.83,.35,29.18,3.22c5.35,2.87,17.02,15.22,17.02,15.22,0,0-13.89-11.53-19.18-13.97-5.3-2.44-27.02-4.47-27.02-4.47Z" style="fill:#e0e0e0;"></path><path d="M71.35,83.25s-1.34,7.01,3.98,6.18c5.32-.83,7.19-3.43,7.19-3.43,0,0-.75,6.36,3.26,5.79,4.02-.58,6.52-3.45,6.52-3.45,0,0-5.21,5.65-8.16,4.83-2.95-.83-2.25-5-2.25-5,0,0-6.2,3.99-9.18,2.08s-2.58-3-1.36-6.99Z" style="fill:#e0e0e0;"></path><path d="M235.06,55.69s-23.07,6-27.58,10.05c-4.51,4.05-12.92,18.82-12.92,18.82,0,0,10.75-14.49,15.32-18.12s25.18-10.76,25.18-10.76Z" style="fill:#e0e0e0;"></path><path d="M226.25,63.31s2.97,6.49-2.4,6.94c-5.36,.46-7.8-1.63-7.8-1.63,0,0,2.24,6-1.8,6.4s-7.16-1.8-7.16-1.8c0,0,6.41,4.26,9.08,2.75,2.67-1.5,.99-5.39,.99-5.39,0,0,6.97,2.41,9.41-.16,2.45-2.57,1.79-3.53-.34-7.11Z" style="fill:#e0e0e0;"></path></g><g><path d="M365,354.65c.45-3.17,.74-6.44-.11-9.53-1.26-4.61-4.84-8.16-8.18-11.58-7.26-7.44-14.03-15.34-20.27-23.65-1.21-1.61-3.76-.96-4.05,1.04-.33,2.22-.51,4.45-.35,6.68,.29,4,1.81,8.08,4.93,10.6-1.31-.64-2.71-1.3-4.21-.85-.76,.23-1.39,.81-1.56,1.59-.28,1.29,.79,2.26,1.76,3.01,1.91,1.5,3.83,3,5.74,4.5-1.8-.55-3.88,.6-4.56,2.36-.68,1.76-.04,3.88,1.36,5.14,1.23,1.12,2.95,1.6,4.61,1.48-1.32,.35-2.3,1.83-2.18,3.24,.14,1.64,1.43,3.02,2.95,3.66s3.22,.66,4.87,.51c-.22,1.82,.62,3.73,2.11,4.8s3.57,1.24,5.22,.45c-.78,2.83,1.68,6.05,4.61,6.06,.03,3.02,.05,6.04,.08,9.06l3.93-3.83c1.49-4.81,2.59-9.75,3.3-14.74Z" style="fill:#ebebeb;"></path><path d="M415.83,383.81c2.79-1.56,5.75-3.01,8.93-3.33,4.76-.48,9.35,1.58,13.75,3.46,9.55,4.09,19.37,7.57,29.37,10.39,1.94,.55,2.24,3.16,.49,4.16-1.95,1.11-3.96,2.08-6.1,2.73-3.84,1.17-8.19,1.22-11.67-.78,1.07,.99,2.19,2.06,2.31,3.62,.06,.79-.26,1.59-.92,2.02-1.1,.72-2.39,.07-3.45-.56-2.09-1.24-4.18-2.49-6.26-3.73,1.17,1.48,.84,3.84-.56,5.11s-3.6,1.43-5.28,.58c-1.48-.75-2.55-2.18-3.04-3.77,.15,1.36-.88,2.8-2.24,3.2-1.58,.46-3.33-.25-4.48-1.43-1.14-1.19-1.77-2.77-2.22-4.36-1.62,.86-3.7,.76-5.24-.24-1.53-1.01-2.45-2.88-2.3-4.71-2.36,1.74-6.25,.62-7.32-2.12-2.83,1.06-5.66,2.13-8.48,3.19l2.16-5.04c3.96-3.12,8.16-5.93,12.56-8.39Z" style="fill:#ebebeb;"></path><circle cx="382.2" cy="378.5" r="28.06" transform="translate(-151.56 445.09) rotate(-51.83)" style="fill:#e0e0e0;"></circle><circle cx="386.68" cy="374.04" r="28.06" transform="translate(2.39 750.52) rotate(-88.46)" style="fill:#ebebeb;"></circle><circle cx="386.68" cy="374.04" r="25.77" transform="translate(-111.51 170.98) rotate(-21.87)" style="fill:#fafafa;"></circle><g><path d="M398.23,354.19l-1.62,2.61-.49-.3,1.37-2.21-.55-.34,.25-.41,1.04,.64Z" style="fill:#e0e0e0;"></path><path d="M399.28,357.9l-.26,.41-1.93-1.2,.2-.32,1.65-.34c.19-.04,.33-.09,.42-.15,.09-.06,.16-.13,.22-.21,.08-.12,.09-.24,.05-.36-.04-.12-.14-.22-.3-.32-.27-.17-.53-.2-.78-.11l-.18-.47c.19-.07,.39-.09,.61-.06,.22,.03,.44,.11,.65,.25,.28,.18,.47,.38,.56,.62,.08,.24,.06,.48-.09,.71-.09,.14-.2,.26-.34,.34-.14,.09-.34,.16-.61,.21l-1.11,.23,1.23,.76Z" style="fill:#e0e0e0;"></path></g><path d="M375.81,391.97c.1,.15,.14,.31,.15,.48,0,.17-.05,.33-.15,.49-.1,.17-.24,.29-.4,.37-.16,.08-.34,.1-.53,.08-.19-.02-.37-.09-.55-.2-.36-.22-.57-.51-.63-.85-.06-.35,.04-.73,.3-1.15,.18-.29,.39-.51,.63-.65,.24-.14,.48-.21,.74-.2,.26,.01,.52,.1,.77,.25,.13,.08,.25,.18,.35,.28,.1,.1,.18,.21,.23,.32l-.41,.26c-.08-.17-.22-.31-.42-.44-.25-.16-.5-.2-.73-.14-.24,.07-.45,.25-.63,.54h0c.13-.04,.27-.04,.42-.02,.15,.03,.3,.09,.45,.18,.17,.11,.31,.23,.4,.39Zm-.83,.94c.14-.02,.26-.1,.34-.23,.09-.14,.1-.27,.06-.41-.05-.14-.15-.26-.31-.36-.16-.1-.31-.14-.46-.11-.15,.02-.27,.1-.35,.23-.08,.13-.1,.26-.05,.4,.04,.14,.15,.27,.32,.37,.15,.09,.3,.13,.45,.11Z" style="fill:#e0e0e0;"></path><path d="M406.04,363.43l-1.62,2.61-.49-.3,1.37-2.21-.55-.34,.25-.41,1.04,.64Z" style="fill:#e0e0e0;"></path><path d="M386.64,395.14c.09,.25,.06,.5-.1,.75-.1,.16-.22,.27-.38,.35-.16,.08-.33,.11-.54,.09-.2-.02-.41-.1-.64-.24-.19-.12-.35-.25-.49-.42-.14-.16-.24-.33-.3-.5l.44-.25c.05,.14,.13,.27,.23,.41,.11,.13,.23,.24,.38,.33,.17,.11,.33,.16,.47,.14,.14,0,.25-.08,.33-.2,.08-.13,.09-.27,.03-.4-.06-.13-.22-.28-.48-.44l-.63-.39,1.02-1.34,1.53,.95-.25,.41-1.12-.7-.43,.57,.25,.16c.37,.23,.6,.47,.68,.72Z" style="fill:#e0e0e0;"></path><g><path d="M387.47,351.9l-1.62,2.61-.48-.3,1.37-2.21-.55-.34,.25-.41,1.04,.64Z" style="fill:#e0e0e0;"></path><path d="M388.9,352.78l-1.62,2.61-.49-.3,1.37-2.21-.55-.34,.25-.41,1.04,.64Z" style="fill:#e0e0e0;"></path></g><g><path d="M368.63,382.25l-1.62,2.61-.49-.3,1.37-2.21-.55-.34,.25-.41,1.04,.64Z" style="fill:#e0e0e0;"></path><path d="M370.05,383.13l-1.62,2.61-.49-.3,1.37-2.21-.55-.34,.25-.41,1.04,.64Z" style="fill:#e0e0e0;"></path></g><path d="M407.73,375.41l-.25,.41-1.93-1.2,.2-.32,1.65-.34c.19-.04,.33-.09,.42-.15,.09-.06,.16-.13,.22-.21,.08-.12,.09-.24,.05-.36-.04-.12-.14-.22-.3-.32-.27-.17-.53-.2-.78-.11l-.18-.47c.19-.07,.39-.09,.61-.06,.22,.03,.44,.11,.65,.25,.28,.18,.47,.38,.55,.62,.09,.24,.06,.47-.09,.71-.09,.14-.2,.26-.34,.34-.14,.09-.34,.16-.61,.21l-1.11,.23,1.23,.77Z" style="fill:#e0e0e0;"></path><path d="M397.15,393.6l-.46-.29-.37,.59-.47-.29,.37-.59-1.43-.89,.21-.34,2.33-.88,.52,.32-2.21,.86,.85,.53,.33-.53,.46,.28-.33,.53,.46,.29-.25,.41Z" style="fill:#e0e0e0;"></path><g><path d="M378.07,353.93l-1.62,2.61-.49-.3,1.37-2.21-.55-.34,.25-.41,1.04,.64Z" style="fill:#e0e0e0;"></path><path d="M377.57,357.08c-.1-.21-.13-.44-.1-.7,.03-.26,.13-.53,.31-.81,.17-.28,.37-.49,.59-.63,.22-.14,.45-.22,.68-.22,.23,0,.45,.06,.66,.19,.21,.13,.36,.3,.46,.51,.1,.21,.13,.44,.1,.7-.03,.26-.13,.53-.31,.81-.17,.28-.37,.49-.59,.63-.22,.15-.45,.22-.68,.22-.23,0-.45-.06-.66-.19-.21-.13-.36-.3-.46-.51Zm1.31,.13c.2-.09,.4-.28,.59-.59s.28-.57,.27-.79c-.01-.22-.11-.39-.3-.51-.18-.11-.38-.13-.58-.04-.2,.09-.4,.28-.59,.59s-.28,.57-.27,.79c.01,.22,.11,.39,.29,.5,.19,.12,.38,.13,.59,.04Z" style="fill:#e0e0e0;"></path></g><path d="M367.06,374.13c0,.15-.03,.3-.12,.44-.1,.16-.23,.27-.39,.34-.16,.06-.34,.08-.55,.04-.2-.04-.41-.12-.62-.25-.21-.13-.38-.28-.5-.44-.12-.16-.19-.33-.2-.51-.01-.17,.03-.34,.13-.5,.09-.14,.2-.24,.34-.3,.14-.06,.29-.08,.47-.06-.07-.12-.1-.25-.1-.38,0-.13,.04-.25,.12-.38,.09-.15,.21-.25,.36-.31,.15-.06,.32-.07,.5-.04,.18,.03,.37,.11,.56,.23,.19,.12,.35,.26,.46,.41,.11,.15,.17,.31,.19,.47,.01,.16-.03,.31-.12,.46-.08,.12-.17,.21-.29,.27-.11,.06-.24,.08-.39,.08,.1,.15,.15,.3,.16,.45Zm-.67-1.87c-.13,0-.23,.07-.3,.19-.07,.11-.08,.23-.03,.35,.05,.12,.15,.23,.3,.32,.15,.1,.3,.14,.43,.13,.13-.01,.23-.07,.3-.18,.07-.12,.08-.24,.03-.36-.05-.12-.15-.23-.3-.32-.15-.09-.29-.14-.42-.13Zm-.28,2.21c.15,0,.27-.08,.35-.21,.08-.13,.09-.26,.03-.4-.06-.14-.18-.27-.36-.38-.18-.11-.34-.16-.49-.15-.15,.01-.26,.08-.34,.21-.08,.13-.1,.27-.04,.4,.06,.14,.17,.26,.35,.37,.18,.11,.34,.16,.49,.15Z" style="fill:#e0e0e0;"></path><path d="M404.92,385.03c.04,.21,0,.42-.12,.62-.09,.15-.22,.27-.37,.34-.15,.08-.33,.1-.53,.08s-.41-.1-.64-.24c-.19-.12-.35-.25-.49-.42-.14-.16-.24-.33-.3-.5l.44-.25c.05,.14,.12,.27,.23,.4,.11,.13,.23,.24,.38,.33,.17,.11,.33,.16,.47,.15,.14-.01,.25-.08,.33-.2,.08-.12,.09-.25,.04-.37-.05-.13-.17-.25-.36-.37l-.24-.15,.21-.33,1.03-.34-1.19-.74,.25-.41,1.78,1.11-.2,.32-1.1,.36c.22,.18,.36,.38,.4,.59Z" style="fill:#e0e0e0;"></path><path d="M370.45,362.21c.06,.35-.04,.73-.3,1.15-.18,.29-.39,.51-.63,.65-.24,.14-.48,.21-.74,.19-.26-.01-.52-.1-.77-.25-.13-.08-.25-.18-.35-.28-.1-.1-.18-.21-.23-.32l.41-.25c.08,.16,.22,.31,.42,.44,.25,.16,.5,.2,.73,.13,.24-.07,.45-.24,.63-.54h0c-.13,.04-.27,.04-.42,.02-.15-.03-.3-.09-.45-.18-.17-.11-.31-.24-.4-.39-.1-.15-.15-.31-.15-.48,0-.17,.05-.33,.15-.49,.11-.17,.24-.29,.4-.37,.16-.08,.34-.1,.53-.08,.19,.02,.37,.09,.55,.2,.36,.22,.57,.51,.63,.85Zm-.92,.55c.15-.02,.27-.1,.35-.23,.08-.13,.1-.26,.05-.41-.04-.14-.15-.27-.32-.37-.15-.09-.3-.13-.44-.11-.15,.02-.26,.1-.34,.24-.09,.14-.1,.27-.06,.41,.04,.14,.15,.26,.31,.36,.16,.1,.31,.13,.46,.11Z" style="fill:#e0e0e0;"></path><polygon points="386.18 373.8 395.48 359.89 396.15 360.31 388.13 375.01 386.18 373.8" style="fill:#e0e0e0;"></polygon><polygon points="385.71 374.83 383.18 364.1 383.95 363.88 387.92 374.18 385.71 374.83" style="fill:#e0e0e0;"></polygon><polygon points="380.82 374.68 401.78 375.5 380.86 375.35 380.82 374.68" style="fill:#e6e6e6;"></polygon><path d="M389.21,375.68c-.7,1.13-2.2,1.48-3.33,.78-1.13-.7-1.48-2.2-.78-3.33,.7-1.13,2.2-1.48,3.33-.78,1.14,.7,1.48,2.2,.78,3.33Z" style="fill:#e0e0e0;"></path><path d="M357.47,384.74s-8.43,4.99-7.2,5.9c1.23,.91,8.98-1.53,8.98-1.53,0,0,1.13-2.89-1.79-4.38Z" style="fill:#ebebeb;"></path><path d="M390.33,404.15s-.74,9.77-2.1,9.07c-1.36-.7-2.62-8.73-2.62-8.73,0,0,2.09-2.29,4.72-.34Z" style="fill:#ebebeb;"></path><path d="M368.69,345.67c.25-.08,25.61-4.7,25.61-4.7,0,0-2.88-9.24-14.66-6.53-11.78,2.72-10.95,11.22-10.95,11.22Z" style="fill:#f0f0f0;"></path><path d="M394.3,340.97c.21,1.12-5.44,2.84-12.49,4.16-7.04,1.33-12.93,1.49-13.14,.38-.21-1.12,5.33-3.1,12.37-4.43,7.04-1.33,13.04-1.23,13.25-.11Z" style="fill:#e0e0e0;"></path><rect x="379.5" y="337.01" width="3.86" height="9.87" transform="translate(-56.68 76.47) rotate(-10.66)" style="fill:#f0f0f0;"></rect><path d="M382.49,336.61c-.8,1.29-2.5,1.69-3.8,.89-1.29-.8-1.69-2.5-.89-3.8,.8-1.29,2.5-1.69,3.8-.89s1.69,2.5,.89,3.8Z" style="fill:#f0f0f0;"></path><g style="opacity:.4;"><path d="M379.5,334.65l-2.1,.42c-.33,.11-6.46,2.71-6.45,8.75,1.9-.76,3.97-1.38,6.15-1.9-.7-2.01-1.01-5.11,2.4-7.27Z" style="fill:#fff;"></path></g><polygon points="379.36 341.42 383.16 340.72 383.34 341.65 379.58 342.56 379.36 341.42" style="fill:#e0e0e0;"></polygon><polygon points="377.4 335.08 382.65 334 382.48 333.69 377.44 334.68 377.4 335.08" style="fill:#e0e0e0;"></polygon><g><path d="M409.06,349.08c.15,.21,11.93,23.14,11.93,23.14,0,0,8.01-5.44,1.99-15.92-6.02-10.48-13.92-7.22-13.92-7.22Z" style="fill:#f0f0f0;"></path><path d="M420.99,372.22c-1.01,.53-4.3-4.39-7.61-10.74-3.32-6.35-5.19-11.93-4.18-12.46,1.01-.53,4.52,4.2,7.83,10.55,3.32,6.35,4.97,12.12,3.96,12.65Z" style="fill:#e0e0e0;"></path><rect x="414.39" y="355.25" width="3.86" height="9.87" transform="translate(543.08 -175.53) rotate(62.45)" style="fill:#f0f0f0;"></rect><path d="M421.73,359.66c-1.47-.39-2.34-1.9-1.95-3.37,.39-1.47,1.9-2.34,3.37-1.95,1.47,.39,2.34,1.9,1.95,3.37-.39,1.47-1.9,2.34-3.37,1.95Z" style="fill:#f0f0f0;"></path><g style="opacity:.4;"><path d="M422.74,356.22l-1.02-1.89c-.21-.28-4.47-5.39-10.25-3.63,1.28,1.59,2.47,3.4,3.61,5.33,1.72-1.26,4.6-2.46,7.66,.18Z" style="fill:#fff;"></path></g><polygon points="416.23 358.05 418 361.49 417.16 361.93 415.19 358.6 416.23 358.05" style="fill:#e0e0e0;"></polygon><polygon points="421.72 354.33 424.28 359.05 424.53 358.79 422.11 354.26 421.72 354.33" style="fill:#e0e0e0;"></polygon></g><path d="M380.36,346.7s2.79-.48,3.82-.58l-.07-.39-3.81,.62,.07,.35Z" style="fill:#e0e0e0;"></path><path d="M341.67,329.36s12.94,10.69,14.62,14.62c1.68,3.93,2.65,15.86,2.65,15.86,0,0-2.56-12.45-4.39-16.12-1.84-3.67-12.88-14.36-12.88-14.36Z" style="fill:#e0e0e0;"></path><path d="M345.03,336.84s-3.82,3.26-.53,5.14c3.29,1.89,5.46,1.28,5.46,1.28,0,0-3.22,3.17-.75,4.62s5.1,.98,5.1,.98c0,0-5.36,.81-6.61-.94-1.26-1.75,.97-3.74,.97-3.74,0,0-5.16-.54-5.96-2.9-.8-2.37-.1-2.79,2.33-4.44Z" style="fill:#e0e0e0;"></path><path d="M447.15,393.79s-15.32-6.86-19.59-6.62-15.39,4.66-15.39,4.66c0,0,12.29-3.23,16.4-3.21,4.11,.02,18.58,5.18,18.58,5.18Z" style="fill:#e0e0e0;"></path><path d="M438.95,394.1s-1.23,4.87-4.37,2.76c-3.15-2.11-3.57-4.33-3.57-4.33,0,0-1.41,4.29-3.8,2.72-2.39-1.56-3.14-4.14-3.14-4.14,0,0,1.65,5.16,3.78,5.51,2.13,.35,2.92-2.52,2.92-2.52,0,0,2.77,4.39,5.25,4.06,2.48-.33,2.54-1.15,2.95-4.06Z" style="fill:#e0e0e0;"></path></g></g><g id="freepik--Shadow--inject-8"><path d="M463.39,461.55c0,3.39-93.52,6.13-208.87,6.13s-208.87-2.75-208.87-6.13,93.52-6.13,208.87-6.13,208.87,2.75,208.87,6.13Z" style="fill:#f5f5f5;"></path></g><g id="freepik--Lines--inject-8"><g><path d="M107.36,328.65c-.13,0-.26-.05-.36-.15-.19-.2-.19-.51,0-.71,5.72-5.57,9.43-9.13,13.14-12.7,3.7-3.56,7.41-7.11,13.12-12.68,.2-.19,.51-.19,.71,0,.19,.2,.19,.51,0,.71-5.71,5.56-9.42,9.12-13.12,12.68-3.71,3.56-7.42,7.12-13.13,12.69-.1,.09-.22,.14-.35,.14Z" style="fill:#263238;"></path><path d="M99.67,335.5c-.13,0-.26-.05-.36-.15-.19-.2-.19-.51,0-.71l4.65-4.53c.2-.19,.51-.19,.71,0,.19,.2,.19,.51,0,.71l-4.65,4.53c-.1,.09-.22,.14-.35,.14Z" style="fill:#263238;"></path><path d="M96.66,372.61c-.12,0-.25-.05-.35-.14-.2-.19-.21-.51-.02-.71l50.55-52.84c.19-.2,.51-.21,.71-.02,.2,.19,.21,.51,.02,.71l-50.55,52.84c-.1,.1-.23,.15-.36,.15Z" style="fill:#263238;"></path><path d="M136.36,359.89c-.12,0-.25-.04-.34-.14-.2-.19-.21-.51-.02-.71,4.29-4.56,7.25-7.8,10.11-10.93,2.86-3.13,5.82-6.37,10.12-10.94,.19-.2,.51-.21,.71-.02,.2,.19,.21,.51,.02,.71-4.29,4.56-7.25,7.8-10.11,10.93-2.86,3.13-5.82,6.37-10.12,10.94-.1,.1-.23,.16-.36,.16Z" style="fill:#263238;"></path><path d="M159.36,334.95c-.12,0-.24-.04-.33-.13-.21-.18-.23-.5-.04-.71l3.98-4.48c.18-.21,.5-.22,.71-.04,.21,.18,.23,.5,.04,.71l-3.98,4.48c-.1,.11-.24,.17-.37,.17Z" style="fill:#263238;"></path></g></g><g id="freepik--Clock--inject-8"><g><g><path d="M161.28,240c-3.79-8.63-8.17-17.26-15.07-23.67-10.32-9.57-24.78-12.89-38.45-16.26-29.71-7.33-58.94-16.58-87.46-27.68-5.53-2.15-10.89,3.45-8.53,8.9,2.62,6.06,5.63,11.91,9.5,17.25,6.93,9.56,17.09,17.41,28.81,18.87-4.28,.43-8.81,.95-11.86,4.4-1.55,1.75-2.2,4.19-1.42,6.39,1.3,3.65,5.49,4.41,9.09,4.81,7.11,.78,14.23,1.56,21.34,2.34-5.37,1.41-8.77,7.54-7.74,12.99,1.03,5.45,5.93,9.75,11.38,10.75,4.81,.88,9.86-.59,13.84-3.46-2.77,2.93-2.91,8.15-.42,11.5,2.89,3.89,8.27,5.33,13.06,4.57,4.79-.76,9.09-3.37,12.96-6.29,2.28,4.89,7.35,8.36,12.74,8.71,5.39,.35,10.87-2.44,13.76-6.99,2.45,8.28,13.6,12.54,20.95,8,4.76,7.52,9.52,15.03,14.27,22.55l3.88-15.67c-3.76-14.36-8.65-28.41-14.62-42Z" style="fill:#263238;"></path><g style="opacity:.8;"><path d="M161.28,240c-3.79-8.63-8.17-17.26-15.07-23.67-10.32-9.57-24.78-12.89-38.45-16.26-29.71-7.33-58.94-16.58-87.46-27.68-5.53-2.15-10.89,3.45-8.53,8.9,2.62,6.06,5.63,11.91,9.5,17.25,6.93,9.56,17.09,17.41,28.81,18.87-4.28,.43-8.81,.95-11.86,4.4-1.55,1.75-2.2,4.19-1.42,6.39,1.3,3.65,5.49,4.41,9.09,4.81,7.11,.78,14.23,1.56,21.34,2.34-5.37,1.41-8.77,7.54-7.74,12.99,1.03,5.45,5.93,9.75,11.38,10.75,4.81,.88,9.86-.59,13.84-3.46-2.77,2.93-2.91,8.15-.42,11.5,2.89,3.89,8.27,5.33,13.06,4.57,4.79-.76,9.09-3.37,12.96-6.29,2.28,4.89,7.35,8.36,12.74,8.71,5.39,.35,10.87-2.44,13.76-6.99,2.45,8.28,13.6,12.54,20.95,8,4.76,7.52,9.52,15.03,14.27,22.55l3.88-15.67c-3.76-14.36-8.65-28.41-14.62-42Z" style="fill:#fff;"></path></g></g><g><path d="M333.73,233.97c4.56-8.25,9.7-16.45,17.16-22.2,11.15-8.6,25.85-10.59,39.77-12.7,30.25-4.6,60.2-11.16,89.61-19.63,5.7-1.64,10.53,4.42,7.69,9.63-3.16,5.8-6.69,11.35-11.02,16.32-7.77,8.89-18.6,15.78-30.41,16.17,4.22,.82,8.69,1.75,11.41,5.46,1.38,1.88,1.81,4.38,.84,6.5-1.62,3.52-5.86,3.9-9.48,3.96-7.16,.13-14.31,.26-21.47,.39,5.22,1.89,8.05,8.31,6.53,13.64-1.52,5.33-6.79,9.17-12.31,9.67-4.87,.44-9.76-1.48-13.46-4.71,2.49,3.17,2.16,8.38-.63,11.49-3.23,3.62-8.72,4.56-13.43,3.37-4.7-1.19-8.74-4.18-12.33-7.44-2.71,4.67-8.08,7.66-13.48,7.52s-10.6-3.41-13.07-8.21c-3.2,8.03-14.68,11.25-21.59,6.07-5.42,7.05-10.84,14.11-16.26,21.16l-2.44-15.96c5.05-13.95,11.2-27.51,18.38-40.5Z" style="fill:#263238;"></path><g style="opacity:.8;"><path d="M333.73,233.97c4.56-8.25,9.7-16.45,17.16-22.2,11.15-8.6,25.85-10.59,39.77-12.7,30.25-4.6,60.2-11.16,89.61-19.63,5.7-1.64,10.53,4.42,7.69,9.63-3.16,5.8-6.69,11.35-11.02,16.32-7.77,8.89-18.6,15.78-30.41,16.17,4.22,.82,8.69,1.75,11.41,5.46,1.38,1.88,1.81,4.38,.84,6.5-1.62,3.52-5.86,3.9-9.48,3.96-7.16,.13-14.31,.26-21.47,.39,5.22,1.89,8.05,8.31,6.53,13.64-1.52,5.33-6.79,9.17-12.31,9.67-4.87,.44-9.76-1.48-13.46-4.71,2.49,3.17,2.16,8.38-.63,11.49-3.23,3.62-8.72,4.56-13.43,3.37-4.7-1.19-8.74-4.18-12.33-7.44-2.71,4.67-8.08,7.66-13.48,7.52s-10.6-3.41-13.07-8.21c-3.2,8.03-14.68,11.25-21.59,6.07-5.42,7.05-10.84,14.11-16.26,21.16l-2.44-15.96c5.05-13.95,11.2-27.51,18.38-40.5Z" style="fill:#fff;"></path></g></g><circle cx="241.36" cy="272.93" r="82.62" transform="translate(-67.54 466.13) rotate(-80.54)" style="fill:#041858;"></circle><circle cx="241.36" cy="272.93" r="82.62" transform="translate(-67.54 466.13) rotate(-80.54)" style="opacity:.3;"></circle><circle cx="245.61" cy="254.82" r="82.62" transform="translate(-46.12 455.2) rotate(-80.54)" style="fill:#041858;"></circle><circle cx="245.61" cy="254.82" r="75.88" transform="translate(-108.25 248.31) rotate(-45)" style="fill:#041858;"></circle><circle cx="245.61" cy="254.82" r="75.88" transform="translate(-108.25 248.31) rotate(-45)" style="fill:#fff; opacity:.7;"></circle><path d="M273.28,184.14l-99.88,94.05s6.88,17.4,13.14,24.26l107.34-106.18s-9.17-8.19-20.6-12.12Z" style="fill:#fff; opacity:.4;"></path><path d="M303.66,206.49l-111.79,101.9s1.75,2.79,9.81,8l110.36-98.46s-1.28-3.98-8.38-11.45Z" style="fill:#fff; opacity:.4;"></path><g><g><path d="M243.73,187.18v9.06h-1.68v-7.65h-1.91v-1.41h3.6Z" style="fill:#263238;"></path><path d="M252.09,194.82v1.42h-6.68v-1.13l3.6-3.42c.41-.39,.68-.73,.82-1.02,.14-.29,.21-.58,.21-.86,0-.42-.14-.75-.43-.97-.29-.22-.7-.34-1.26-.34-.92,0-1.63,.31-2.12,.94l-1.18-.91c.35-.47,.83-.84,1.43-1.11,.6-.26,1.27-.39,2.01-.39,.98,0,1.77,.23,2.36,.7,.59,.47,.88,1.1,.88,1.9,0,.49-.1,.95-.31,1.38-.21,.43-.6,.92-1.19,1.47l-2.42,2.3h4.27Z" style="fill:#263238;"></path></g><path d="M246.32,316.52c.47,.23,.84,.55,1.11,.98,.27,.42,.4,.91,.4,1.46,0,.59-.15,1.1-.44,1.55-.29,.44-.69,.79-1.19,1.03-.5,.24-1.06,.36-1.68,.36-1.24,0-2.21-.39-2.89-1.17-.69-.78-1.03-1.89-1.03-3.34,0-1.02,.19-1.89,.56-2.61,.37-.72,.89-1.27,1.56-1.64,.67-.38,1.44-.56,2.32-.56,.47,0,.9,.05,1.31,.15,.41,.1,.77,.24,1.07,.43l-.62,1.27c-.45-.29-1.02-.44-1.72-.44-.87,0-1.55,.27-2.04,.8-.49,.54-.74,1.31-.74,2.32h0c.27-.3,.61-.53,1.02-.69,.41-.16,.88-.24,1.4-.24,.6,0,1.13,.11,1.61,.34Zm-.61,3.64c.33-.28,.49-.65,.49-1.12s-.16-.85-.49-1.13c-.33-.28-.77-.41-1.32-.41s-.99,.15-1.33,.44c-.34,.29-.51,.67-.51,1.11s.17,.8,.5,1.09c.33,.29,.79,.43,1.38,.43,.53,0,.95-.14,1.28-.42Z" style="fill:#263238;"></path><path d="M277.61,198.15v9.06h-1.68v-7.65h-1.92v-1.41h3.6Z" style="fill:#263238;"></path><path d="M278.34,307.61c.61,.5,.92,1.17,.92,2.03,0,.54-.13,1.04-.4,1.48-.27,.44-.67,.79-1.2,1.05-.54,.26-1.2,.39-1.98,.39-.65,0-1.27-.09-1.88-.28-.6-.19-1.11-.44-1.53-.77l.71-1.31c.34,.28,.74,.49,1.21,.65,.47,.16,.96,.24,1.46,.24,.6,0,1.06-.12,1.4-.37,.34-.25,.51-.58,.51-1.02,0-.47-.18-.82-.55-1.05-.37-.24-.99-.36-1.88-.36h-2.19l.47-4.93h5.32v1.41h-3.9l-.19,2.1h.87c1.28,0,2.22,.25,2.83,.74Z" style="fill:#263238;"></path><g><path d="M213.25,198.15v9.06h-1.68v-7.65h-1.91v-1.41h3.6Z" style="fill:#263238;"></path><path d="M218.18,198.15v9.06h-1.68v-7.65h-1.92v-1.41h3.6Z" style="fill:#263238;"></path></g><g><path d="M213.25,303.36v9.06h-1.68v-7.65h-1.91v-1.41h3.6Z" style="fill:#263238;"></path><path d="M218.18,303.36v9.06h-1.68v-7.65h-1.92v-1.41h3.6Z" style="fill:#263238;"></path></g><path d="M300.45,225.5v1.42h-6.68v-1.13l3.6-3.42c.41-.39,.68-.73,.82-1.02,.14-.29,.21-.58,.21-.86,0-.42-.14-.75-.43-.97-.29-.22-.7-.34-1.26-.34-.92,0-1.63,.31-2.12,.94l-1.18-.91c.35-.47,.83-.84,1.43-1.11,.6-.26,1.27-.39,2.01-.39,.98,0,1.77,.23,2.36,.7s.88,1.1,.88,1.9c0,.49-.1,.95-.31,1.38-.21,.43-.6,.92-1.19,1.47l-2.42,2.3h4.27Z" style="fill:#263238;"></path><path d="M302.24,287.45h-1.6v2.06h-1.63v-2.06h-4.97v-1.17l4.46-5.84h1.8l-4.21,5.58h2.96v-1.82h1.58v1.82h1.6v1.42Z" style="fill:#263238;"></path><g><path d="M192.87,217.86v9.06h-1.68v-7.65h-1.92v-1.41h3.6Z" style="fill:#263238;"></path><path d="M196.51,226.5c-.57-.37-1.02-.9-1.35-1.6-.33-.7-.49-1.54-.49-2.5s.16-1.8,.49-2.5c.33-.7,.78-1.24,1.35-1.61,.57-.37,1.22-.55,1.94-.55s1.37,.18,1.95,.55c.57,.37,1.02,.9,1.35,1.61,.33,.7,.49,1.54,.49,2.5s-.16,1.8-.49,2.5c-.33,.7-.78,1.24-1.35,1.6-.57,.37-1.22,.55-1.95,.55s-1.37-.18-1.94-.55Zm3.47-1.71c.37-.53,.56-1.33,.56-2.39s-.19-1.86-.56-2.39c-.37-.54-.89-.8-1.53-.8s-1.15,.27-1.52,.8c-.38,.54-.56,1.33-.56,2.39s.19,1.86,.56,2.39c.37,.54,.88,.8,1.52,.8s1.16-.27,1.53-.8Z" style="fill:#263238;"></path></g><path d="M196.71,285.48c.25,.37,.38,.8,.38,1.29,0,.55-.15,1.04-.46,1.45-.31,.41-.74,.73-1.3,.95-.56,.22-1.21,.33-1.95,.33s-1.39-.11-1.95-.33c-.56-.22-.99-.54-1.29-.95-.3-.41-.45-.9-.45-1.45,0-.49,.12-.92,.38-1.29,.25-.37,.61-.66,1.07-.87-.36-.2-.64-.46-.83-.78-.19-.32-.29-.7-.29-1.12,0-.51,.14-.95,.42-1.33,.28-.38,.68-.67,1.18-.88,.51-.21,1.1-.31,1.76-.31s1.26,.1,1.77,.31c.51,.21,.91,.5,1.19,.88,.28,.38,.43,.82,.43,1.33,0,.42-.1,.79-.3,1.11-.2,.32-.48,.58-.85,.79,.47,.22,.84,.51,1.09,.87Zm-1.86,2.31c.36-.26,.54-.62,.54-1.07s-.18-.8-.54-1.06-.85-.39-1.48-.39-1.11,.13-1.46,.39c-.35,.26-.53,.61-.53,1.06s.18,.82,.53,1.07c.35,.26,.84,.39,1.46,.39s1.11-.13,1.48-.39Zm-2.72-5.95c-.31,.22-.46,.54-.46,.95s.15,.7,.46,.92c.31,.23,.72,.34,1.25,.34s.96-.11,1.27-.34c.31-.23,.47-.54,.47-.92s-.16-.72-.47-.95c-.32-.22-.74-.34-1.26-.34s-.94,.11-1.25,.34Z" style="fill:#263238;"></path><path d="M308.36,253.95c.44,.47,.66,1.05,.66,1.75,0,.53-.13,1-.4,1.44-.27,.43-.67,.77-1.21,1.03-.54,.25-1.2,.38-1.97,.38-.65,0-1.27-.09-1.87-.28-.6-.19-1.11-.44-1.53-.77l.72-1.31c.33,.28,.73,.49,1.2,.65,.47,.16,.96,.24,1.46,.24,.6,0,1.06-.12,1.4-.37,.34-.25,.51-.58,.51-1s-.16-.75-.49-.99c-.32-.24-.82-.36-1.48-.36h-.83v-1.15l2.06-2.45h-4.12v-1.41h6.17v1.12l-2.2,2.61c.84,.1,1.48,.39,1.92,.85Z" style="fill:#263238;"></path><path d="M186.69,250.39c.69,.78,1.03,1.89,1.03,3.34,0,1.02-.19,1.89-.56,2.61s-.89,1.27-1.56,1.64c-.67,.38-1.44,.56-2.32,.56-.47,0-.9-.05-1.31-.15-.41-.1-.77-.24-1.07-.43l.62-1.27c.45,.29,1.02,.44,1.72,.44,.87,0,1.55-.27,2.04-.8,.49-.53,.74-1.31,.74-2.32h0c-.27,.3-.61,.53-1.02,.69-.41,.16-.88,.24-1.4,.24-.6,0-1.13-.11-1.6-.34-.47-.23-.85-.55-1.11-.98-.27-.42-.4-.91-.4-1.46,0-.59,.15-1.1,.44-1.55,.29-.44,.69-.79,1.19-1.03,.5-.24,1.06-.36,1.68-.36,1.24,0,2.21,.39,2.89,1.16Zm-1.44,2.79c.34-.29,.51-.66,.51-1.11s-.17-.8-.5-1.09c-.33-.29-.79-.43-1.38-.43-.53,0-.95,.14-1.28,.42-.33,.28-.49,.65-.49,1.12s.16,.85,.49,1.13c.33,.28,.77,.41,1.32,.41s.99-.15,1.33-.44Z" style="fill:#263238;"></path></g><g><polygon points="244 254.99 245.67 205.76 248.01 205.76 250.78 254.99 244 254.99" style="fill:#263238;"></polygon><polygon points="244.43 258.29 221.44 235.38 223 233.64 248.97 253.25 244.43 258.29" style="fill:#263238;"></polygon><polygon points="231.98 265.52 285.68 235.01 233.11 267.16 231.98 265.52" style="fill:#041858;"></polygon><path d="M254.51,254.99c0,3.93-3.19,7.12-7.12,7.12s-7.12-3.19-7.12-7.12,3.19-7.12,7.12-7.12,7.12,3.19,7.12,7.12Z" style="fill:#041858;"></path><path d="M254.51,254.99c0,3.93-3.19,7.12-7.12,7.12s-7.12-3.19-7.12-7.12,3.19-7.12,7.12-7.12,7.12,3.19,7.12,7.12Z" style="opacity:.3;"></path></g><path d="M189.17,326.97s-13.33,25.58-8.83,25.95c4.5,.37,20.11-17.77,20.11-17.77,0,0-1.67-8.98-11.27-8.18Z" style="fill:#041858;"></path><path d="M301.54,324.49s13.33,25.58,8.83,25.95c-4.5,.37-20.11-17.77-20.11-17.77,0,0,1.67-8.98,11.27-8.18Z" style="fill:#041858;"></path><g><path d="M156.56,211.79c.49-.59,56.76-51.53,56.76-51.53,0,0-21.55-18.66-46.8,6.44-25.25,25.09-9.96,45.09-9.96,45.09Z" style="fill:#041858;"></path><g><path d="M213.32,160.26c2.27,2.47-9.21,15.55-24.78,29.81-15.56,14.26-30.01,23.82-32.28,21.34-2.27-2.47,8.51-16.04,24.08-30.3,15.56-14.26,30.71-23.33,32.98-20.86Z" style="fill:#041858;"></path><path d="M213.32,160.26c2.27,2.47-9.21,15.55-24.78,29.81-15.56,14.26-30.01,23.82-32.28,21.34-2.27-2.47,8.51-16.04,24.08-30.3,15.56-14.26,30.71-23.33,32.98-20.86Z" style="opacity:.3;"></path></g><rect x="176.96" y="168.16" width="11.37" height="29.06" transform="translate(-75.44 171.39) rotate(-42.5)" style="fill:#041858;"></rect><circle cx="168.9" cy="167.7" r="8.12" style="fill:#041858;"></circle><path d="M166.48,167.45l-4.59,4.32c-.65,.8-11.94,16.82-2.53,31.91,3.57-4.85,7.79-9.61,12.42-14.31-4.88-3.94-10.48-11.21-5.3-21.92Z" style="fill:#fff; opacity:.4;"></path><polygon points="176.65 184.58 185.08 176.94 186.96 179 178.97 187.12 176.65 184.58" style="opacity:.2;"></polygon><polygon points="161.89 171.77 173.36 160.92 172.44 160.4 161.37 170.72 161.89 171.77" style="opacity:.3;"></polygon></g><g><path d="M274.98,159.6c.65,.4,59.15,48.77,59.15,48.77,0,0,15.37-24.01-13.09-45.39-28.46-21.38-46.06-3.38-46.06-3.38Z" style="fill:#041858;"></path><g><path d="M334.13,208.37c-2.12,2.6-16.71-6.88-33.06-20.24-16.35-13.35-27.88-26.28-25.76-28.88,2.12-2.6,17.09,6.12,33.44,19.47,16.35,13.35,27.5,27.04,25.38,29.64Z" style="fill:#041858;"></path><path d="M334.13,208.37c-2.12,2.6-16.71-6.88-33.06-20.24-16.35-13.35-27.88-26.28-25.76-28.88,2.12-2.6,17.09,6.12,33.44,19.47,16.35,13.35,27.5,27.04,25.38,29.64Z" style="opacity:.3;"></path></g><rect x="301.84" y="166.7" width="11.37" height="29.06" transform="translate(183.98 -153.66) rotate(39.24)" style="fill:#041858;"></rect><path d="M321.56,173.51c-4.44,.64-8.55-2.43-9.2-6.87-.64-4.44,2.43-8.55,6.87-9.2,4.44-.64,8.55,2.43,9.2,6.87,.64,4.44-2.43,8.55-6.87,9.2Z" style="fill:#041858;"></path><path d="M320.29,163.05l-4.94-3.92c-.89-.53-18.36-9.4-31.94,2.08,5.31,2.83,10.63,6.33,15.95,10.24,3.19-5.4,9.59-11.98,20.93-8.4Z" style="fill:#fff; opacity:.4;"></path><polygon points="304.8 175.57 313.57 182.81 311.81 184.97 302.63 178.23 304.8 175.57" style="opacity:.2;"></polygon><polygon points="315.36 159.12 327.75 168.91 328.13 167.93 316.32 158.46 315.36 159.12" style="opacity:.3;"></polygon></g><path d="M187.35,196.24s6.24-5.54,8.65-7.39l-.79-.86-8.57,7.49,.7,.77Z" style="opacity:.3;"></path><path d="M294.58,188.16s6.45,5.29,8.66,7.39l.72-.91-8.74-7.29-.65,.81Z" style="opacity:.3;"></path><g><path d="M63.63,212.96s48.98,6.64,59.28,13.86c10.3,7.23,31.28,35.56,31.28,35.56,0,0-25.74-27.17-36.04-33.51-10.3-6.34-54.52-15.91-54.52-15.91Z" style="opacity:.3;"></path><path d="M83.66,226.47s-4.5,14.09,6.65,13.7c11.16-.39,15.66-5.28,15.66-5.28,0,0-3.13,12.92,5.28,12.72,8.42-.2,14.29-5.48,14.29-5.48,0,0-12.14,10.35-18.01,7.92-5.87-2.44-3.38-10.85-3.38-10.85,0,0-13.75,6.68-19.43,2s-4.57-6.82-1.07-14.72Z" style="opacity:.3;"></path></g><g><path d="M427.6,210.29s-48.98,6.64-59.28,13.86c-10.3,7.23-31.28,35.56-31.28,35.56,0,0,25.74-27.17,36.04-33.51,10.3-6.34,54.52-15.91,54.52-15.91Z" style="opacity:.3;"></path><path d="M407.57,223.81s4.5,14.09-6.65,13.7c-11.16-.39-15.66-5.28-15.66-5.28,0,0,3.13,12.92-5.28,12.72-8.42-.2-14.29-5.48-14.29-5.48,0,0,12.14,10.35,18.01,7.92,5.87-2.44,3.38-10.85,3.38-10.85,0,0,13.75,6.68,19.43,2,5.68-4.68,4.57-6.82,1.07-14.72Z" style="opacity:.3;"></path></g><g><path d="M216.78,173.79c-.15,0-.3-.09-.35-.25-.07-.19,.03-.41,.22-.48,15.57-5.73,33.03-6.77,49.16-2.91,.2,.05,.33,.25,.28,.45-.05,.2-.25,.32-.45,.28-16-3.83-33.3-2.8-48.73,2.88-.04,.02-.09,.02-.13,.02Z" style="fill:#041858;"></path><path d="M270.38,172.17s-.07,0-.1-.01l-2.47-.7c-.2-.06-.32-.26-.26-.46,.06-.2,.26-.32,.46-.26l2.47,.7c.2,.06,.32,.26,.26,.46-.05,.17-.2,.27-.36,.27Z" style="fill:#041858;"></path></g></g></g></svg>
